<?xml version="1.0" encoding="UTF-8" standalone="no"?>
<!DOCTYPE svg PUBLIC "-//W3C//DTD SVG 1.1//EN" "http://www.w3.org/Graphics/SVG/1.1/DTD/svg11.dtd">
<!-- Created with Vectornator (http://vectornator.io/) -->
<svg height="100%" stroke-miterlimit="10" style="fill-rule:nonzero;clip-rule:evenodd;stroke-linecap:round;stroke-linejoin:round;" version="1.1" viewBox="959.079 36.9319 125.099 165.711" width="100%" xml:space="preserve" xmlns="http://www.w3.org/2000/svg" xmlns:vectornator="http://vectornator.io" xmlns:xlink="http://www.w3.org/1999/xlink">
<defs/>
<clipPath id="ArtboardFrame">
<rect height="165.711" width="125.099" x="959.079" y="36.9319"/>
</clipPath>
<g clip-path="url(#ArtboardFrame)" id="Layer" vectornator:layerName="Layer">
<g opacity="1" vectornator:layerName="Group 1">
<g opacity="1" vectornator:layerName="Curve 31">
<path d="M1083.23 126.749C1081.02 114.908 1075.27 104.952 1066.75 96.4233C1053.44 83.1094 1023.29 73.8299 1023.29 53.6977C1023.29 53.6977 1024.78 40.629 1027.43 38.0525C1028.19 37.3171 1029.26 39.1898 1029.26 39.1898C1029.26 39.1898 1030.13 39.861 1031.4 40.949C1032.27 41.6985 1033.34 42.6459 1034.45 43.7078C1034.79 44.0355 1035.14 44.3741 1035.48 44.7211C1045.8 55.0936 1040.23 58.1768 1040.23 77.0888L1066.75 97.3491L1078.58 110.972L1083.23 126.749Z" fill="#92c5a1" fill-rule="nonzero" stroke="none"/>
<path d="M1028.03 37.4062C1027.23 37.2423 1026.7 38.0443 1026.34 38.625C1025.51 39.977 1025.03 41.5837 1024.59 43.0938C1024.01 45.1361 1023.56 47.2227 1023.19 49.3125C1023 50.3311 1022.84 51.3509 1022.69 52.375C1022.62 52.8104 1022.49 53.2759 1022.5 53.7188C1022.52 55.4138 1022.69 57.068 1023.09 58.7188C1024.52 64.539 1028.51 69.3571 1032.94 73.2188C1039.16 78.6473 1046.37 82.773 1053.34 87.1562C1055.87 89.0817 1058.41 91.0098 1060.94 92.9375C1062.32 93.9916 1063.71 95.0395 1065.09 96.0938C1065.65 96.5153 1066.25 96.8664 1066.75 97.3438C1066.01 96.6439 1065.09 96.0561 1064.28 95.4375C1062.9 94.3813 1061.51 93.3376 1060.12 92.2812C1058.04 90.6834 1055.96 89.0683 1053.88 87.4688C1054.69 87.981 1055.51 88.4759 1056.31 89C1059.54 91.1071 1062.72 93.3288 1065.56 95.9375C1065.93 96.2752 1066.35 96.8841 1066.75 97.3438C1067.11 97.6863 1067.42 98.1053 1067.75 98.5C1067.88 98.6715 1067.99 98.7567 1068.12 98.9375C1074.53 107.605 1083.22 126.75 1083.22 126.75C1083.22 126.75 1081.74 120.044 1080.53 116.812C1080.33 116.279 1080.06 115.777 1079.84 115.25C1079.84 115.241 1079.85 115.228 1079.84 115.219C1078.93 113.003 1077.85 110.87 1076.66 108.781C1073.82 103.816 1070.31 99.1996 1066.22 95.25C1063.07 92.2084 1059.49 89.6398 1055.88 87.1875C1050.78 83.7292 1045.48 80.4688 1040.47 76.8438C1040.38 76.5437 1040.31 76.2392 1040.31 75.9375C1040.32 75.5638 1040.33 75.1861 1040.34 74.8125C1040.35 74.4522 1040.36 74.0789 1040.38 73.7188C1040.39 73.3702 1040.42 73.0359 1040.44 72.6875C1040.6 69.3121 1040.99 65.9451 1041.41 62.5938C1041.7 60.2634 1042.03 57.8838 1041.81 55.5312C1041.28 49.6653 1036.7 45.2447 1032.59 41.4688C1031.86 40.7907 1031.11 40.117 1030.34 39.4688C1030.17 39.3233 1029.99 39.1747 1029.81 39.0312C1029.75 38.9771 1029.69 38.929 1029.62 38.875C1029.61 38.7183 1029.45 38.5743 1029.34 38.4375C1029.02 37.9986 1028.6 37.5225 1028.03 37.4062ZM1027.84 38.375C1028.39 38.5939 1028.6 39.1838 1029 39.5625C1029.38 39.9214 1029.84 40.2359 1030.25 40.5625C1031.04 41.1946 1031.83 41.8371 1032.59 42.5C1036.24 45.6653 1040.52 49.5405 1041.34 54.5625C1041.71 56.7953 1041.58 59.0116 1041.34 61.25C1040.9 65.4053 1040.36 69.5379 1040.22 73.7188C1040.21 74.0796 1040.2 74.4515 1040.19 74.8125C1040.18 75.1865 1040.16 75.5635 1040.16 75.9375C1040.15 76.2047 1040.24 76.4511 1040.28 76.7188C1037.82 74.9277 1035.4 73.0694 1033.16 71C1029.12 67.2687 1025.54 62.6973 1024.44 57.1875C1024.21 56.0447 1024.12 54.94 1024.06 53.7812C1024.06 53.7706 1024.06 53.7678 1024.06 53.75C1024.07 53.7319 1024.09 53.6891 1024.09 53.6562C1024.1 53.5721 1024.12 53.4909 1024.12 53.4062C1024.16 53.1331 1024.19 52.8353 1024.22 52.5625C1024.31 51.8128 1024.39 51.0915 1024.5 50.3438C1024.83 48.0242 1025.22 45.6814 1025.78 43.4062C1026.13 41.9807 1026.52 40.4516 1027.25 39.1562C1027.33 39.0084 1027.43 38.8874 1027.53 38.75C1027.62 38.6206 1027.7 38.3158 1027.84 38.375ZM1077.09 109.281C1077.59 109.849 1078.19 110.313 1078.56 110.969C1078.73 111.273 1078.79 111.626 1078.88 111.969C1078.78 111.64 1078.76 111.268 1078.59 110.969C1078.23 110.313 1077.59 109.849 1077.09 109.281Z" fill="#1f5a38" stroke="none"/>
</g>
<g opacity="1" vectornator:layerName="Curve 32">
<path d="M1046.57 82.6699C1034.43 68.6554 1022.36 84.6089 1009.18 91.6208C1008.34 92.0649 1006.37 91.7289 1006.54 92.6592C1006.62 93.1135 1020.26 95.8838 1021.75 96.3499C1034.47 100.336 1054.4 91.7061 1046.57 82.6699Z" fill="#6fa880" fill-rule="nonzero" stroke="none"/>
<path d="M1036.41 76.375C1030.47 75.8879 1024.34 79.569 1019.44 82.7188C1018.34 83.4223 1017.28 84.148 1016.22 84.9062C1015.18 85.6543 1014.11 86.4157 1013.06 87.1562C1011.56 88.2194 1009.91 89.3478 1008.47 90.2812C1008.24 90.4301 1007.85 90.4183 1007.59 90.4688C1006.88 90.6079 1006.01 90.7897 1005.56 91.4375C1005.01 92.2358 1005.15 92.9251 1005.69 93.6875C1006 94.1289 1007.63 94.2924 1008.12 94.375C1010.51 94.7715 1012.93 95.044 1015.31 95.4062C1017.17 95.6879 1019.01 96.0173 1020.84 96.4062C1022.53 96.7629 1024.18 97.202 1025.91 97.375C1030.49 97.8354 1035.36 97.0303 1039.69 95.3125C1035.34 96.9982 1030.44 97.5138 1025.94 97C1023.96 96.7738 1022.1 96.1665 1020.19 95.6562C1017.45 94.9274 1014.72 94.1567 1012.03 93.2812C1011.45 93.0917 1010.86 92.882 1010.28 92.6875C1010.74 92.464 1011.23 92.3129 1011.66 92.0938C1015.14 90.2834 1018.39 88.0179 1021.5 85.625C1027.18 81.2482 1046.56 82.6563 1046.56 82.6562C1046.56 82.6562 1043.93 79.5596 1042.22 78.4062C1040.34 77.1435 1038.38 76.5374 1036.41 76.375ZM1046.56 82.6562C1046.56 82.6563 1044.88 92.2107 1041.56 94.4375C1042.54 93.9521 1043.55 93.5029 1044.44 92.875C1046.97 91.0867 1049.23 88.1393 1047.97 84.9062C1047.64 84.0643 1046.56 82.6562 1046.56 82.6562ZM1041.56 94.4375C1041.2 94.6158 1040.87 94.8403 1040.5 95C1040.71 94.9078 1040.95 94.847 1041.16 94.75C1041.3 94.6847 1041.43 94.5289 1041.56 94.4375ZM1040.5 95C1040.24 95.1143 1039.96 95.2055 1039.69 95.3125C1039.96 95.207 1040.23 95.1151 1040.5 95Z" fill="#265a1a" stroke="none"/>
</g>
<g opacity="1" vectornator:layerName="Curve 33">
<path d="M963.719 161.969C964.328 163.438 965.102 164.839 965.844 166.25C965.098 164.832 964.331 163.447 963.719 161.969ZM966.875 168.312C967.68 169.699 968.61 171.023 969.531 172.344C968.611 171.026 967.68 169.697 966.875 168.312ZM970.844 174.25C971.828 175.552 972.913 176.773 974 178C972.914 176.775 971.828 175.551 970.844 174.25ZM974 178C974.491 178.554 974.959 179.119 975.469 179.656C974.959 179.118 974.49 178.554 974 178ZM975.469 179.656C976.656 180.909 977.906 182.088 979.188 183.25C977.907 182.09 976.656 180.907 975.469 179.656ZM979.188 183.25C979.675 183.691 980.126 184.166 980.625 184.594C980.126 184.166 979.674 183.691 979.188 183.25ZM980.625 184.594C981.806 185.606 983.07 186.506 984.312 187.438C983.071 186.507 981.805 185.604 980.625 184.594ZM984.312 187.438C985.038 187.982 985.725 188.578 986.469 189.094C985.726 188.579 985.037 187.981 984.312 187.438ZM986.469 189.094C987.718 189.96 989.019 190.718 990.312 191.5C989.024 190.72 987.714 189.957 986.469 189.094ZM990.312 191.5C991.013 191.924 991.695 192.382 992.406 192.781C991.695 192.383 991.013 191.924 990.312 191.5ZM992.406 192.781C993.581 193.438 994.77 194.009 995.969 194.594C994.773 194.007 993.579 193.439 992.406 192.781ZM995.969 194.594C996.705 194.955 997.413 195.386 998.156 195.719C998.445 195.848 998.742 195.937 999.031 196.062C997.996 195.618 996.991 195.093 995.969 194.594ZM999.031 196.062C999.304 196.18 999.57 196.324 999.844 196.438C1000.63 196.765 1001.45 196.987 1002.25 197.281C1001.17 196.884 1000.09 196.52 999.031 196.062ZM1002.25 197.281C1003.52 197.749 1004.78 198.215 1006.06 198.594C1004.79 198.217 1003.51 197.747 1002.25 197.281ZM1006.06 198.594C1007.27 198.95 1008.5 199.196 1009.72 199.469C1008.49 199.196 1007.27 198.95 1006.06 198.594ZM1009.72 199.469C1010.76 199.701 1011.79 199.988 1012.84 200.156C1011.79 199.988 1010.76 199.701 1009.72 199.469ZM1012.84 200.156C1014.44 200.413 1016.07 200.495 1017.69 200.594C1016.07 200.496 1014.44 200.41 1012.84 200.156ZM1017.69 200.594C1018.51 200.644 1019.33 200.774 1020.16 200.781C1019.33 200.774 1018.51 200.644 1017.69 200.594ZM1020.16 200.781C1022.57 200.802 1024.99 200.679 1027.44 200.312C1024.99 200.678 1022.57 200.802 1020.16 200.781Z" fill="#124f3d" stroke="none"/>
</g>
<g opacity="1" vectornator:layerName="Curve 34">
<path d="M961.5 136.844C961.45 136.844 961.406 136.887 961.406 136.938C961.589 141.921 962.015 146.897 963.062 151.781C965.921 165.114 972.572 177.726 982.875 186.781C995.43 197.816 1012.57 203.268 1029.19 201.344C1036.85 200.456 1044.16 197.98 1051.09 194.656C1055.67 192.463 1059.86 189.864 1063.62 186.75C1059.06 190.312 1053.79 192.9 1048.34 194.875C1035.92 199.381 1022.2 199.992 1009.41 196.656C988.211 191.129 969.487 174.341 963.625 152.969C962.19 147.736 961.5 142.359 961.594 136.938C961.593 136.887 961.55 136.843 961.5 136.844ZM1072 177.688C1070.69 179.633 1069.24 181.422 1067.69 183.062C1067.76 182.983 1067.86 182.924 1067.94 182.844C1069.45 181.248 1070.76 179.503 1072 177.688Z" fill="#124f3d" stroke="none"/>
</g>
<text fill="#1c2f22" font-family="BMJUAOTF" font-size="36" opacity="1" stroke="none" text-anchor="start" transform="matrix(1 0 0 1 953.399 105.158)" vectornator:layerName="Text 8" vectornator:width="139.789" x="0" y="0">
<tspan textLength="84.816" x="31.9864" y="29">VILD </tspan>
<tspan textLength="71.892" x="33.9484" y="66">MAD</tspan>
</text>
</g>
</g>
</svg>
