<?xml version="1.0" encoding="UTF-8" standalone="no"?>
<!DOCTYPE svg PUBLIC "-//W3C//DTD SVG 1.1//EN" "http://www.w3.org/Graphics/SVG/1.1/DTD/svg11.dtd">
<!-- Created with Vectornator (http://vectornator.io/) -->
<svg height="100%" stroke-miterlimit="10" style="fill-rule:nonzero;clip-rule:evenodd;stroke-linecap:round;stroke-linejoin:round;" version="1.1" viewBox="961.406 37.3796 121.818 164.345" width="100%" xml:space="preserve" xmlns="http://www.w3.org/2000/svg" xmlns:vectornator="http://vectornator.io" xmlns:xlink="http://www.w3.org/1999/xlink">
<defs/>
<clipPath id="ArtboardFrame">
<rect height="164.345" width="121.818" x="961.406" y="37.3796"/>
</clipPath>
<g clip-path="url(#ArtboardFrame)" id="Layer" vectornator:layerName="Layer">
<g opacity="1" vectornator:layerName="Group 2">
<path d="M1002.37 48.395" fill="#1f1313" fill-rule="nonzero" opacity="1" stroke="none" vectornator:layerName="Curve 30"/>
<path d="M1028.03 37.4062C1027.23 37.2423 1026.7 38.0443 1026.34 38.625C1025.51 39.977 1025.03 41.5837 1024.59 43.0938C1024.01 45.1361 1023.56 47.2227 1023.19 49.3125C1023 50.3311 1022.84 51.3509 1022.69 52.375C1022.62 52.8104 1022.49 53.2759 1022.5 53.7188C1022.52 55.4138 1022.69 57.068 1023.09 58.7188C1024.52 64.539 1028.51 69.3571 1032.94 73.2188C1039.16 78.6473 1046.37 82.773 1053.34 87.1562C1055.87 89.0817 1058.41 91.0098 1060.94 92.9375C1062.32 93.9916 1063.71 95.0395 1065.09 96.0938C1065.65 96.5153 1066.25 96.8664 1066.75 97.3438C1066.01 96.6439 1065.09 96.0561 1064.28 95.4375C1062.9 94.3813 1061.51 93.3376 1060.12 92.2812C1058.04 90.6834 1055.96 89.0683 1053.88 87.4688C1054.69 87.981 1055.51 88.4759 1056.31 89C1059.54 91.1071 1062.72 93.3288 1065.56 95.9375C1065.93 96.2752 1066.35 96.8841 1066.75 97.3438C1067.11 97.6863 1067.42 98.1053 1067.75 98.5C1067.88 98.6715 1067.99 98.7567 1068.12 98.9375C1074.53 107.605 1083.22 126.75 1083.22 126.75C1083.22 126.75 1081.74 120.044 1080.53 116.812C1080.33 116.279 1080.06 115.777 1079.84 115.25C1079.84 115.241 1079.85 115.228 1079.84 115.219C1078.93 113.003 1077.85 110.87 1076.66 108.781C1073.82 103.816 1070.31 99.1996 1066.22 95.25C1063.07 92.2084 1059.49 89.6398 1055.88 87.1875C1050.78 83.7292 1045.48 80.4688 1040.47 76.8438C1040.38 76.5437 1040.31 76.2392 1040.31 75.9375C1040.32 75.5638 1040.33 75.1861 1040.34 74.8125C1040.35 74.4522 1040.36 74.0789 1040.38 73.7188C1040.39 73.3702 1040.42 73.0359 1040.44 72.6875C1040.6 69.3121 1040.99 65.9451 1041.41 62.5938C1041.7 60.2634 1042.03 57.8838 1041.81 55.5312C1041.28 49.6653 1036.7 45.2447 1032.59 41.4688C1031.86 40.7907 1031.11 40.117 1030.34 39.4688C1030.17 39.3233 1029.99 39.1747 1029.81 39.0312C1029.75 38.9771 1029.69 38.929 1029.62 38.875C1029.61 38.7183 1029.45 38.5743 1029.34 38.4375C1029.02 37.9986 1028.6 37.5225 1028.03 37.4062ZM1027.84 38.375C1028.39 38.5939 1028.6 39.1838 1029 39.5625C1029.38 39.9214 1029.84 40.2359 1030.25 40.5625C1031.04 41.1946 1031.83 41.8371 1032.59 42.5C1036.24 45.6653 1040.52 49.5405 1041.34 54.5625C1041.71 56.7953 1041.58 59.0116 1041.34 61.25C1040.9 65.4053 1040.36 69.5379 1040.22 73.7188C1040.21 74.0796 1040.2 74.4515 1040.19 74.8125C1040.18 75.1865 1040.16 75.5635 1040.16 75.9375C1040.15 76.2047 1040.24 76.4511 1040.28 76.7188C1037.82 74.9277 1035.4 73.0694 1033.16 71C1029.12 67.2687 1025.54 62.6973 1024.44 57.1875C1024.21 56.0447 1024.12 54.94 1024.06 53.7812C1024.06 53.7706 1024.06 53.7678 1024.06 53.75C1024.07 53.7319 1024.09 53.6891 1024.09 53.6562C1024.1 53.5721 1024.12 53.4909 1024.12 53.4062C1024.16 53.1331 1024.19 52.8353 1024.22 52.5625C1024.31 51.8128 1024.39 51.0915 1024.5 50.3438C1024.83 48.0242 1025.22 45.6814 1025.78 43.4062C1026.13 41.9807 1026.52 40.4516 1027.25 39.1562C1027.33 39.0084 1027.43 38.8874 1027.53 38.75C1027.62 38.6206 1027.7 38.3158 1027.84 38.375ZM1077.09 109.281C1077.59 109.849 1078.19 110.313 1078.56 110.969C1078.73 111.273 1078.79 111.626 1078.88 111.969C1078.78 111.64 1078.76 111.268 1078.59 110.969C1078.23 110.313 1077.59 109.849 1077.09 109.281Z" fill="#49725a" fill-rule="nonzero" opacity="1" stroke="#124f3d" stroke-linecap="butt" stroke-linejoin="round" stroke-width="0.01" vectornator:layerName="Curve 37"/>
<path d="M1036.41 76.375C1030.47 75.8879 1024.34 79.569 1019.44 82.7188C1018.34 83.4223 1017.28 84.148 1016.22 84.9062C1015.18 85.6543 1014.11 86.4157 1013.06 87.1562C1011.56 88.2194 1009.91 89.0769 1008.46 90.0103C1008.23 90.1591 1007.79 90.4586 1007.53 90.5091C1006.81 90.6482 1005.74 91.5459 1005.3 92.1936C1004.74 92.9919 1005.37 93.2172 1006.23 93.571C1007.78 94.2087 1007.63 94.2924 1008.12 94.375C1010.51 94.7715 1012.93 95.044 1015.31 95.4062C1017.17 95.6879 1019.01 96.0173 1020.84 96.4062C1022.53 96.7629 1024.18 97.202 1025.91 97.375C1030.49 97.8354 1035.36 97.0303 1039.69 95.3125C1035.34 96.9982 1030.44 97.5138 1025.94 97C1023.96 96.7738 1022.1 96.1665 1020.19 95.6562C1017.45 94.9274 1014.72 94.1567 1012.03 93.2812C1011.45 93.0917 1008.19 92.6606 1007.61 92.4662C1008.07 92.2427 1008.69 91.7434 1009.13 91.5446C1013.68 89.4473 1020.01 85.7896 1022.5 83.4408C1024.93 81.1505 1032.48 77.3424 1037.31 77.9103C1042.85 78.5626 1046.56 82.6563 1046.56 82.6562C1046.56 82.6562 1045.61 81.5326 1044.47 80.3869C1043.73 79.6307 1042.9 78.8648 1042.22 78.4062C1040.34 77.1435 1038.38 76.5374 1036.41 76.375ZM1047.55 82.0673C1047.55 82.0673 1048.31 85.3228 1046.88 88.6671C1045.87 91.007 1042.93 93.5208 1041.56 94.4375C1042.54 93.9521 1043.55 93.5029 1044.44 92.875C1046.97 91.0867 1049.23 88.1393 1047.97 84.9062C1047.64 84.0643 1047.55 82.0673 1047.55 82.0673ZM1041.56 94.4375C1041.2 94.6158 1040.87 94.8403 1040.5 95C1040.71 94.9078 1040.95 94.847 1041.16 94.75C1041.3 94.6847 1041.43 94.5289 1041.56 94.4375ZM1040.5 95C1040.24 95.1143 1039.96 95.2055 1039.69 95.3125C1039.96 95.207 1040.23 95.1151 1040.5 95Z" fill="#265a1a" fill-rule="nonzero" opacity="1" stroke="none" vectornator:layerName="Curve 35"/>
<path d="M963.719 161.969C964.328 163.438 965.102 164.839 965.844 166.25C965.098 164.832 964.331 163.447 963.719 161.969ZM966.875 168.312C967.68 169.699 968.61 171.023 969.531 172.344C968.611 171.026 967.68 169.697 966.875 168.312ZM970.844 174.25C971.828 175.552 972.913 176.773 974 178C972.914 176.775 971.828 175.551 970.844 174.25ZM974 178C974.491 178.554 974.959 179.119 975.469 179.656C974.959 179.118 974.49 178.554 974 178ZM975.469 179.656C976.656 180.909 977.906 182.088 979.188 183.25C977.907 182.09 976.656 180.907 975.469 179.656ZM979.188 183.25C979.675 183.691 980.126 184.166 980.625 184.594C980.126 184.166 979.674 183.691 979.188 183.25ZM980.625 184.594C981.806 185.606 983.07 186.506 984.312 187.438C983.071 186.507 981.805 185.604 980.625 184.594ZM984.312 187.438C985.038 187.982 985.725 188.578 986.469 189.094C985.726 188.579 985.037 187.981 984.312 187.438ZM986.469 189.094C987.718 189.96 989.019 190.718 990.312 191.5C989.024 190.72 987.714 189.957 986.469 189.094ZM990.312 191.5C991.013 191.924 991.695 192.382 992.406 192.781C991.695 192.383 991.013 191.924 990.312 191.5ZM992.406 192.781C993.581 193.438 994.77 194.009 995.969 194.594C994.773 194.007 993.579 193.439 992.406 192.781ZM995.969 194.594C996.705 194.955 997.413 195.386 998.156 195.719C998.445 195.848 998.742 195.937 999.031 196.062C997.996 195.618 996.991 195.093 995.969 194.594ZM999.031 196.062C999.304 196.18 999.57 196.324 999.844 196.438C1000.63 196.765 1001.45 196.987 1002.25 197.281C1001.17 196.884 1000.09 196.52 999.031 196.062ZM1002.25 197.281C1003.52 197.749 1004.78 198.215 1006.06 198.594C1004.79 198.217 1003.51 197.747 1002.25 197.281ZM1006.06 198.594C1007.27 198.95 1008.5 199.196 1009.72 199.469C1008.49 199.196 1007.27 198.95 1006.06 198.594ZM1009.72 199.469C1010.76 199.701 1011.79 199.988 1012.84 200.156C1011.79 199.988 1010.76 199.701 1009.72 199.469ZM1012.84 200.156C1014.44 200.413 1016.07 200.495 1017.69 200.594C1016.07 200.496 1014.44 200.41 1012.84 200.156ZM1017.69 200.594C1018.51 200.644 1019.33 200.774 1020.16 200.781C1019.33 200.774 1018.51 200.644 1017.69 200.594ZM1020.16 200.781C1022.57 200.802 1024.99 200.679 1027.44 200.312C1024.99 200.678 1022.57 200.802 1020.16 200.781Z" fill="#124f3d" fill-rule="nonzero" opacity="1" stroke="none" vectornator:layerName="Curve 38"/>
<path d="M961.5 136.844C961.45 136.844 961.406 136.887 961.406 136.938C961.589 141.921 962.015 146.897 963.062 151.781C965.921 165.114 972.572 177.726 982.875 186.781C995.43 197.816 1012.57 203.268 1029.19 201.344C1036.85 200.456 1044.16 197.98 1051.09 194.656C1055.67 192.463 1059.86 189.864 1063.62 186.75C1059.06 190.312 1053.79 192.9 1048.34 194.875C1035.92 199.381 1022.2 199.992 1009.41 196.656C988.211 191.129 969.487 174.341 963.625 152.969C962.19 147.736 961.5 142.359 961.594 136.938C961.593 136.887 961.55 136.843 961.5 136.844ZM1072 177.688C1070.69 179.633 1069.24 181.422 1067.69 183.062C1067.76 182.983 1067.86 182.924 1067.94 182.844C1069.45 181.248 1070.76 179.503 1072 177.688Z" fill="#124f3d" fill-rule="nonzero" opacity="1" stroke="none" vectornator:layerName="Curve 36"/>
<g opacity="1" vectornator:layerName="Group 1">
<path d="M1008.1 113.494C1007.96 112.774 1007.53 112.162 1006.63 111.91C1006.34 111.838 1006.01 111.73 1005.73 111.694C1005.47 111.694 1005.15 111.73 1004.79 111.91C1004.61 112.018 1004.36 112.162 1004.21 112.342C1004.03 112.594 1003.85 112.846 1003.71 113.098C1003.53 113.386 1003.42 113.638 1003.31 113.89C1003.21 114.214 1003.1 114.502 1003.03 114.718L1002.77 115.33L997.662 130.09L992.478 115.294L992.262 114.682C992.19 114.466 992.01 114.178 991.902 113.854C991.794 113.602 991.686 113.35 991.542 113.026C991.362 112.774 991.182 112.558 991.002 112.306C990.822 112.126 990.57 112.018 990.318 111.91C989.994 111.73 989.706 111.694 989.382 111.694C989.094 111.73 988.77 111.838 988.482 111.91C985.674 112.774 987.222 116.842 987.87 118.75C989.094 122.062 990.246 125.914 991.722 129.154C992.91 131.818 994.638 138.694 998.85 136.966C1001.62 135.778 1002.7 131.566 1003.64 129.082C1004.65 126.382 1006.63 120.442 1007.81 116.698C1008.1 115.798 1008.32 114.574 1008.1 113.494Z" fill="#1c2f22" fill-rule="nonzero" opacity="1" stroke="none"/>
<path d="M1012.21 133.978C1012.17 134.194 1012.17 134.374 1012.21 134.59C1012.24 134.842 1012.28 135.094 1012.31 135.31C1012.31 135.598 1012.39 135.85 1012.46 136.102C1012.49 136.174 1012.57 136.246 1012.6 136.318C1012.6 136.39 1012.64 136.462 1012.71 136.534C1012.85 136.858 1013.07 137.074 1013.32 137.254C1013.86 137.506 1014.51 137.578 1015.16 137.434C1015.55 137.362 1015.88 137.254 1016.09 137.038C1016.35 136.858 1016.49 136.642 1016.63 136.39C1016.74 136.102 1016.81 135.85 1016.89 135.598C1016.92 135.31 1016.96 135.094 1016.96 134.95L1016.96 134.59L1017.17 115.906L1017.17 115.294C1017.17 115.006 1017.21 114.754 1017.21 114.43C1017.21 114.142 1017.17 113.854 1017.14 113.53C1017.1 113.242 1016.99 112.99 1016.92 112.702C1016.81 112.45 1016.71 112.27 1016.53 112.126C1016.27 111.874 1015.99 111.73 1015.7 111.694C1015.41 111.658 1015.09 111.622 1014.73 111.622C1014.37 111.622 1013.97 111.73 1013.61 111.91C1013.25 112.162 1013.03 112.414 1012.85 112.774C1012.64 113.242 1012.49 113.71 1012.46 114.178C1012.46 114.682 1012.42 115.222 1012.39 115.69L1012.39 115.834C1012.31 117.49 1012.31 118.678 1012.31 120.406C1012.31 122.134 1012.31 123.79 1012.28 125.302L1012.24 130.594L1012.21 133.438L1012.21 133.978Z" fill="#1c2f22" fill-rule="nonzero" opacity="1" stroke="none"/>
<path d="M1037.8 134.518C1037.73 134.266 1037.59 134.05 1037.3 133.798C1037.15 133.654 1036.94 133.51 1036.65 133.438C1036.36 133.366 1036.07 133.294 1035.71 133.258C1035.39 133.222 1035.03 133.186 1034.74 133.186L1033.05 133.186L1025.92 133.114L1026.07 116.158L1026.07 115.51C1026.07 115.258 1026.07 114.97 1026.14 114.682C1026.14 114.394 1026.07 114.106 1026.03 113.782C1025.99 113.494 1025.92 113.206 1025.85 112.99C1025.74 112.738 1025.6 112.522 1025.45 112.378C1025.17 112.162 1024.91 111.982 1024.63 111.946C1024.34 111.91 1024.01 111.874 1023.69 111.874C1023.29 111.874 1022.9 111.982 1022.57 112.198C1022.21 112.414 1021.96 112.702 1021.82 113.062C1021.57 113.494 1021.46 113.962 1021.42 114.466C1021.42 114.934 1021.39 115.438 1021.35 115.906L1021.35 116.086C1021.31 117.706 1021.28 118.894 1021.28 120.622L1021.28 125.446L1021.21 130.666C1021.21 132.214 1021.1 133.798 1021.28 135.418C1021.28 135.634 1021.35 135.886 1021.42 136.102C1022.18 138.154 1025.49 137.578 1027.36 137.65C1029.34 137.686 1031.21 137.686 1033.09 137.65L1033.23 137.65C1033.81 137.578 1034.38 137.578 1034.92 137.542C1035.46 137.542 1036 137.434 1036.54 137.254C1036.94 137.11 1037.23 136.93 1037.48 136.606C1037.69 136.318 1037.87 135.958 1037.87 135.598C1037.87 135.31 1037.87 134.77 1037.8 134.518Z" fill="#1c2f22" fill-rule="nonzero" opacity="1" stroke="none"/>
<path d="M1059.69 122.782C1059.29 117.67 1055.59 111.802 1049.25 111.658L1043.24 111.514C1042.88 111.694 1042.55 111.55 1042.27 111.622C1042.01 111.694 1041.73 111.802 1041.44 112.054C1041.26 112.198 1041.15 112.378 1041.04 112.666C1040.93 112.882 1040.86 113.17 1040.83 113.494C1040.75 113.782 1040.75 114.07 1040.75 114.394L1040.75 134.95C1040.75 135.13 1040.79 135.346 1040.83 135.598C1040.9 135.886 1040.97 136.138 1041.11 136.39C1041.22 136.642 1041.37 136.894 1041.58 137.038C1041.83 137.254 1042.16 137.362 1042.55 137.434C1043.6 137.686 1044.79 137.65 1045.87 137.578C1049.14 137.434 1052.63 136.894 1055.23 134.986C1057.71 133.186 1058.93 130.414 1059.4 127.678C1059.65 126.094 1059.8 124.366 1059.69 122.782ZM1052.99 129.622C1051.19 132.358 1048.57 132.646 1045.61 132.718L1045.61 125.374C1045.61 123.862 1045.61 122.206 1045.65 120.478C1045.65 119.038 1045.65 117.778 1045.61 116.41C1048.42 116.446 1051.59 116.842 1052.89 118.966C1054.65 121.846 1054.83 126.706 1052.99 129.622Z" fill="#1c2f22" fill-rule="nonzero" opacity="1" stroke="none"/>
<path d="M1010.71 171.662C1010.75 170.906 1010.68 170.114 1010.68 169.43C1010.68 166.19 1010.64 162.59 1010.64 159.35C1010.64 156.686 1010.57 154.022 1010.57 151.358C1010.57 151.07 1010.53 150.782 1010.5 150.458C1010.46 150.206 1010.39 149.918 1010.32 149.666C1010.21 149.414 1010.06 149.234 1009.88 149.054C1009.63 148.838 1009.38 148.694 1009.06 148.658C1008.77 148.622 1008.48 148.586 1008.12 148.586C1006.57 148.622 1005.06 151.106 1004.38 152.222C1002.79 154.85 1001.96 156.11 1000.96 157.658C1000.78 158.018 1000.16 158.918 999.912 159.206C999.048 158.018 998.112 156.29 996.852 154.274C996.276 153.338 995.232 151.574 994.476 150.71C993.864 150.062 993.216 148.838 992.244 148.658C991.956 148.622 991.632 148.586 991.308 148.586C990.912 148.586 990.516 148.694 990.156 148.91C989.796 149.126 989.58 149.414 989.4 149.774C989.22 150.206 989.076 150.674 989.076 151.178C988.932 153.194 988.86 155.246 988.86 157.334L988.86 162.158L988.824 167.702L988.788 170.51C988.788 171.158 988.824 171.806 988.86 172.454C988.932 173.066 989.256 173.894 989.868 174.29C991.848 175.334 993.468 173.93 993.468 172.31C993.612 172.274 993.648 157.154 993.684 156.974C995.232 159.854 996.708 161.798 997.86 163.238C998.292 163.778 999.084 164.678 999.876 164.606C1001.24 164.498 1002.07 163.526 1005.82 157.298C1005.89 158.882 1005.85 158.99 1005.85 159.134C1005.89 160.826 1005.89 160.682 1005.89 162.23L1005.92 167.738L1005.92 170.546C1005.96 171.806 1005.78 173.498 1007.11 174.326C1007.65 174.578 1008.26 174.686 1008.95 174.47C1009.34 174.434 1009.63 174.29 1009.88 174.074C1010.06 173.93 1010.24 173.678 1010.35 173.426C1010.57 172.886 1010.68 172.238 1010.71 171.662Z" fill="#1c2f22" fill-rule="nonzero" opacity="1" stroke="none"/>
<path d="M1035.84 171.806C1035.8 171.59 1035.73 171.338 1035.66 171.158C1035.59 170.942 1035.55 170.87 1035.55 170.834L1028.06 152.402L1027.85 151.826C1027.74 151.538 1027.6 151.322 1027.49 150.998C1027.38 150.71 1027.27 150.458 1027.09 150.17C1026.91 149.882 1026.73 149.63 1026.55 149.414C1026.37 149.198 1026.16 149.054 1025.94 148.946C1025.26 148.694 1024.28 148.694 1023.6 148.946C1023.38 149.054 1023.17 149.198 1022.99 149.414C1022.81 149.63 1022.59 149.882 1022.45 150.17C1022.27 150.458 1022.16 150.71 1022.05 150.998C1021.94 151.322 1021.8 151.538 1021.69 151.826L1021.48 152.402L1013.99 170.834C1013.99 170.87 1013.95 170.942 1013.88 171.158C1013.81 171.338 1013.74 171.59 1013.7 171.806C1013.66 172.094 1013.63 172.346 1013.63 172.67C1013.63 172.958 1013.7 173.21 1013.88 173.462C1014.02 173.678 1014.28 173.93 1014.6 174.074C1015.21 174.434 1015.82 174.542 1016.51 174.434C1016.8 174.362 1017.12 174.218 1017.41 173.966C1017.48 173.894 1017.55 173.858 1017.59 173.786C1017.62 173.75 1017.7 173.642 1017.77 173.606C1017.98 173.39 1018.13 173.138 1018.24 172.922C1018.38 172.706 1018.49 172.49 1018.63 172.238C1018.74 172.058 1018.81 171.878 1018.88 171.698C1018.96 171.518 1018.99 171.302 1019.06 171.122L1019.82 169.358C1023.1 169.394 1026.44 169.358 1029.72 169.358L1030.48 171.122C1030.51 171.302 1030.58 171.518 1030.66 171.698C1030.69 171.878 1030.8 172.058 1030.91 172.238C1031.05 172.49 1031.16 172.706 1031.27 172.922C1031.41 173.138 1031.56 173.39 1031.77 173.606C1031.84 173.642 1031.92 173.75 1031.95 173.786C1031.99 173.858 1032.06 173.894 1032.13 173.966C1032.42 174.218 1032.74 174.362 1033.03 174.434C1033.72 174.542 1034.33 174.434 1034.94 174.074C1035.26 173.93 1035.52 173.678 1035.66 173.462C1035.84 173.21 1035.91 172.958 1035.91 172.67C1035.91 172.346 1035.88 172.094 1035.84 171.806ZM1027.96 164.57L1021.58 164.57L1022.23 162.986C1022.84 161.618 1023.49 160.106 1024.21 158.558C1024.39 158.126 1024.61 157.658 1024.75 157.226C1024.93 157.658 1025.15 158.126 1025.33 158.558C1026.05 160.106 1026.7 161.618 1027.31 162.986L1027.96 164.57Z" fill="#1c2f22" fill-rule="nonzero" opacity="1" stroke="none"/>
<path d="M1057.73 159.782C1057.33 154.67 1053.62 148.802 1047.29 148.658L1041.28 148.514C1040.92 148.694 1040.59 148.55 1040.3 148.622C1040.05 148.694 1039.76 148.802 1039.48 149.054C1039.3 149.198 1039.19 149.378 1039.08 149.666C1038.97 149.882 1038.9 150.17 1038.86 150.494C1038.79 150.782 1038.79 151.07 1038.79 151.394L1038.79 171.95C1038.79 172.13 1038.83 172.346 1038.86 172.598C1038.94 172.886 1039.01 173.138 1039.15 173.39C1039.26 173.642 1039.4 173.894 1039.62 174.038C1039.87 174.254 1040.2 174.362 1040.59 174.434C1041.64 174.686 1042.82 174.65 1043.9 174.578C1047.18 174.434 1050.67 173.894 1053.26 171.986C1055.75 170.186 1056.97 167.414 1057.44 164.678C1057.69 163.094 1057.84 161.366 1057.73 159.782ZM1051.03 166.622C1049.23 169.358 1046.6 169.646 1043.65 169.718L1043.65 162.374C1043.65 160.862 1043.65 159.206 1043.69 157.478C1043.69 156.038 1043.69 154.778 1043.65 153.41C1046.46 153.446 1049.63 153.842 1050.92 155.966C1052.69 158.846 1052.87 163.706 1051.03 166.622Z" fill="#1c2f22" fill-rule="nonzero" opacity="1" stroke="none"/>
</g>
</g>
</g>
</svg>
