<?xml version="1.0" encoding="UTF-8" standalone="no"?>
<!DOCTYPE svg PUBLIC "-//W3C//DTD SVG 1.1//EN" "http://www.w3.org/Graphics/SVG/1.1/DTD/svg11.dtd">
<!-- Created with Vectornator (http://vectornator.io/) -->
<svg height="100%" stroke-miterlimit="10" style="fill-rule:nonzero;clip-rule:evenodd;stroke-linecap:round;stroke-linejoin:round;" version="1.1" viewBox="83.5066 92.5669 177.752 274.044" width="100%" xml:space="preserve" xmlns="http://www.w3.org/2000/svg" xmlns:vectornator="http://vectornator.io" xmlns:xlink="http://www.w3.org/1999/xlink">
<defs/>
<clipPath id="ArtboardFrame">
<rect height="274.044" width="177.752" x="83.5066" y="92.5669"/>
</clipPath>
<g clip-path="url(#ArtboardFrame)" id="Layer" vectornator:layerName="Layer">
<g opacity="1" vectornator:layerName="Group 6">
<g opacity="1" vectornator:layerName="Curve 1">
<path d="M85.9062 198.531C89.5702 235.282 93.2423 272.03 96.9062 308.781C97.8222 317.969 98.7403 327.156 99.6562 336.344C99.8852 338.641 100.115 340.953 100.344 343.25C100.382 343.633 100.431 344.023 100.469 344.406C100.486 344.579 100.52 345.528 100.594 345.594C101.395 346.314 102.192 347.006 103 347.719C103.335 348.014 103.864 348.223 104.25 348.438C105.154 348.939 106.08 349.435 107 349.906C110.137 351.511 113.341 352.96 116.594 354.312C127.612 358.895 139.184 362.239 150.969 364.125C176.06 368.14 201.464 365.195 224.469 354.312C228.84 352.245 233.085 349.934 237.188 347.375C238.618 346.483 240.013 345.542 241.406 344.594C241.722 344.379 242.111 344.185 242.344 343.875C242.7 343.4 242.691 342.264 242.75 341.75C242.79 341.401 242.804 341.037 242.844 340.688C243.122 338.244 243.41 335.819 243.688 333.375C244.68 324.647 245.664 315.915 246.656 307.188C250.348 274.72 254.058 242.249 257.75 209.781C257.86 209.637 257.227 208.986 256.344 208.312C255.461 207.639 254.641 207.2 254.531 207.344C250.839 239.811 247.161 272.283 243.469 304.75C242.437 313.827 241.407 322.892 240.375 331.969C240.137 334.063 239.894 336.155 239.656 338.25C239.617 338.599 239.571 338.963 239.531 339.312C239.492 339.662 239.446 339.995 239.406 340.344C239.366 340.7 239.38 341.076 239.156 341.375C238.932 341.674 238.586 341.855 238.281 342.062C237.929 342.302 237.573 342.545 237.219 342.781C236.172 343.478 235.098 344.178 234.031 344.844C229.603 347.605 225.019 350.092 220.281 352.281C197.637 362.746 172.617 365.497 148.031 361.562C137.106 359.814 126.371 356.812 116.094 352.719C111.878 351.039 107.697 349.139 103.688 346.969C103.542 344.991 103.29 343.028 103.094 341.062C102.102 331.109 101.086 321.141 100.094 311.188C96.4301 274.437 92.7887 237.688 89.125 200.938C89.2327 200.793 88.6028 200.13 87.7188 199.469C86.8347 198.808 86.014 198.387 85.9062 198.531Z" fill="#000000" stroke="none"/>
</g>
<g opacity="1" vectornator:layerName="Oval 1">
<path d="M169.938 162.406C157.218 162.643 144.485 164.042 132.094 166.969C120.739 169.651 109.155 173.542 99.5 180.25C95.3319 183.146 91.3905 186.711 88.9375 191.219C88.6459 191.755 88.5546 192.377 88.3125 192.938C88.7524 191.984 89.2332 191.062 89.8125 190.188C90.3015 189.449 90.9342 188.617 91.5 187.938C92.1409 187.168 92.7865 186.485 93.5 185.781C97.1791 182.154 101.622 179.372 106.219 177.062C112.652 173.831 119.537 171.504 126.5 169.719C140.657 166.088 155.376 164.642 169.969 164.719C183.895 164.792 197.895 166.219 211.438 169.531C219.865 171.593 228.198 174.382 235.875 178.469C239.395 180.343 242.799 182.502 245.812 185.125C247.886 186.93 249.784 188.978 251.25 191.312C252.069 192.617 252.743 194.022 253.188 195.5C255.588 203.483 250.408 210.296 244.312 214.969C239.764 218.456 234.583 221.027 229.281 223.156C220.72 226.595 211.685 228.8 202.594 230.281C190.883 232.189 178.981 232.904 167.125 232.75C156.845 232.616 146.566 231.84 136.406 230.25C123.929 228.297 110.964 225.113 100.25 218.156C96.1358 215.485 92.2049 212.091 89.75 207.781C88.9299 206.342 88.3524 204.82 87.9375 203.219C87.742 202.464 87.6264 201.682 87.5625 200.906C87.5464 200.711 87.5489 200.913 87.5 199.719C87.492 199.285 87.1467 198.956 86.7188 198.938C86.7016 198.937 86.7049 198.906 86.6875 198.906C86.2359 198.915 85.8666 199.298 85.875 199.75C85.8855 200.39 85.9427 200.162 85.875 200.406C85.7585 200.826 85.9497 201.255 86 201.688C86.1262 202.773 86.3601 203.864 86.6875 204.906C87.833 208.553 90.0826 211.745 92.7188 214.469C96.4105 218.283 100.871 221.26 105.5 223.812C112.293 227.558 119.555 230.403 126.969 232.656C141.849 237.179 157.377 239.094 172.906 239.062C187.034 239.034 201.223 237.403 214.906 233.844C223.511 231.606 232.024 228.576 239.781 224.188C243.471 222.1 247.008 219.669 250.094 216.75C256.394 210.79 260.364 202.776 257.531 194.156C256.924 192.309 256.039 190.528 254.969 188.906C253.217 186.251 251.003 183.935 248.562 181.906C243.934 178.058 238.549 175.167 233.031 172.812C223.978 168.95 214.377 166.476 204.688 164.844C193.228 162.914 181.55 162.19 169.938 162.406ZM86.7188 198.938C86.7246 198.793 86.7368 198.645 86.75 198.5C86.8067 197.882 86.9031 197.263 87.0312 196.656C87.151 196.089 87.3849 195.551 87.5625 195C87.3954 195.562 87.0763 196.079 86.9688 196.656C86.8548 197.268 86.7608 197.879 86.7188 198.5C86.7138 198.572 86.7239 198.742 86.7188 198.938ZM87.5625 195C87.771 194.298 88.022 193.61 88.3125 192.938C88.0053 193.603 87.7874 194.302 87.5625 195Z" fill="#000000" stroke="none"/>
</g>
<g opacity="1" vectornator:layerName="Curve 2">
<path d="M171.469 94.2188C157.576 95.234 145.245 103.673 135.438 113.281C129.202 119.39 123.671 126.19 118.594 133.281C115.179 138.051 111.856 142.938 108.938 148.031C104.241 156.228 100.379 164.976 96.75 173.688C93.0291 182.619 89.5405 191.728 86.75 201C89.002 195.503 91.5665 190.109 94.1875 184.781C98.1045 176.819 102.304 169.005 106.781 161.344C108.894 157.729 111.123 154.181 113.281 150.594C115.506 146.897 117.636 143.162 119.969 139.531C125.079 131.578 130.736 123.898 137.25 117.031C147.903 105.802 162.159 95.5676 178.438 97.1875C193.17 98.6535 205.295 109.052 214.531 119.875C222.707 129.455 229.401 140.255 235.375 151.312C244.32 167.869 251.603 185.257 258.25 202.844C252.601 186.951 246.455 171.219 239.031 156.062C233.363 144.492 227.001 133.162 219.25 122.844C210.762 111.544 200.069 100.565 186.312 96.0625C183.457 95.1281 180.494 94.5092 177.5 94.25C175.454 94.0728 173.453 94.0737 171.469 94.2188Z" fill="#000000" stroke="none"/>
</g>
</g>
</g>
</svg>
