<?xml version="1.0" encoding="UTF-8" standalone="no"?>
<!DOCTYPE svg PUBLIC "-//W3C//DTD SVG 1.1//EN" "http://www.w3.org/Graphics/SVG/1.1/DTD/svg11.dtd">
<!-- Created with Vectornator (http://vectornator.io/) -->
<svg height="100%" stroke-miterlimit="10" style="fill-rule:nonzero;clip-rule:evenodd;stroke-linecap:round;stroke-linejoin:round;" version="1.1" viewBox="303.405 147.707 127.846 201.244" width="100%" xml:space="preserve" xmlns="http://www.w3.org/2000/svg" xmlns:vectornator="http://vectornator.io" xmlns:xlink="http://www.w3.org/1999/xlink">
<defs/>
<clipPath id="ArtboardFrame">
<rect height="201.244" width="127.846" x="303.405" y="147.707"/>
</clipPath>
<g clip-path="url(#ArtboardFrame)" id="Layer" vectornator:layerName="Layer">
<g opacity="1" vectornator:layerName="Group 4">
<g opacity="1" vectornator:layerName="Group 2">
<path d="M429.751 315.375L425.491 306.603L419.867 303.353C419.867 303.353 388.873 180.633 382.184 174.835C371.272 165.376 372.933 204.591 372.25 212.516C371.567 220.442 362.408 146.781 349.519 149.346C349.519 149.346 338.247 144.57 351.437 191.021C364.162 235.837 341.896 152.069 330.79 149.6C316.93 146.518 339.524 202.481 339.736 201.775C339.948 201.069 323.89 156.001 315.588 162.269C307.286 168.536 327.478 207.448 326.324 209.948C325.17 212.447 317.106 165.051 306.011 177.828C294.917 190.605 371.056 338.63 365.743 342.254C360.43 345.879 367.323 346.361 370.803 347.421C374.283 348.48 424.778 321.128 429.751 315.375Z" fill="#e2eee1" fill-rule="nonzero" opacity="1" stroke="#000000" stroke-linecap="butt" stroke-linejoin="round" stroke-width="3" vectornator:layerName="Curve 3"/>
<g opacity="1" vectornator:layerName="Curve 4">
<path d="M360.027 204.711C356.209 205.676 352.391 206.641 348.574 207.606" fill="#e2eee1" fill-rule="nonzero" stroke="none"/>
<path d="M356.875 204.312C356.389 204.42 355.96 204.684 355.5 204.875C355.041 205.066 354.586 205.253 354.125 205.438C352.283 206.175 350.414 206.881 348.562 207.594C350.53 207.341 352.498 207.101 354.469 206.875C354.962 206.818 355.474 206.769 355.969 206.719C356.464 206.669 356.958 206.699 357.438 206.562C358.456 206.273 359.271 205.455 360.031 204.719C359.012 204.433 357.909 204.084 356.875 204.312Z" fill="#000000" stroke="none"/>
</g>
<g opacity="1" vectornator:layerName="Curve 5">
<path d="M344.291 209.232C342.073 209.232 340.638 210.067 339.083 211.61" fill="#e2eee1" fill-rule="nonzero" stroke="none"/>
<path d="M343.094 208.125C342.81 208.041 342.203 208.44 342 208.562C341.387 208.933 340.831 209.381 340.344 209.906C340.124 210.143 339.88 210.46 339.688 210.719C339.581 210.863 339.204 211.211 339.375 211.156C340.159 210.905 340.083 211.024 339.844 211.188C339.828 211.198 339.893 211.176 339.875 211.188C339.963 211.143 339.978 211.12 340.031 211.094C340.179 211.021 340.317 210.939 340.469 210.875C340.555 210.839 340.635 210.874 340.719 210.844C340.34 211.031 340.271 210.995 339.875 211.188C339.796 211.226 339.787 211.25 339.719 211.281C339.655 211.31 339.614 211.323 339.562 211.344C339.355 211.458 339.094 211.625 339.094 211.625C339.094 211.625 340.092 211.299 340.969 210.812C341.639 210.617 342.261 210.494 343 210.5C343.135 210.501 343.301 210.553 343.406 210.469C343.589 210.323 344.008 209.815 343.781 209.875C343.377 209.982 343.217 210.009 343.188 209.969C342.712 210.238 342.167 210.485 341.688 210.406C340.797 210.261 343.248 209.396 343.719 208.625C343.857 208.399 343.348 208.2 343.094 208.125ZM343.188 209.969C343.801 209.621 344.281 209.219 344.281 209.219C344.281 209.219 343.1 209.848 343.188 209.969Z" fill="#000000" stroke="none"/>
</g>
<g opacity="1" vectornator:layerName="Curve 6">
<path d="M415.763 308.384C408.748 311.098 401.738 313.859 394.682 316.465C391.874 317.501 388.787 318.15 386.207 319.719C383.116 321.599 380.848 324.461 377.957 326.559C375.018 328.692 370.81 330.732 367.328 331.772" fill="#e2eee1" fill-rule="nonzero" stroke="none"/>
<path d="M415.75 308.375C413.297 308.984 410.852 309.583 408.406 310.219C407.126 310.552 406.022 310.848 404.781 311.312C403.607 311.752 402.499 312.293 401.344 312.781C399.038 313.756 396.7 314.73 394.375 315.656C391.515 316.795 388.549 317.561 385.906 319.188C382.834 321.077 380.579 324.079 377.781 326.312C374.729 328.749 370.984 330.515 367.312 331.781C371.085 330.698 374.948 329.109 378.156 326.812C381.423 324.474 384.089 321.261 387.812 319.594C389.641 318.775 391.62 318.322 393.531 317.75C395.825 317.063 398.076 316.234 400.344 315.469C402.122 314.869 403.943 314.319 405.688 313.625C407.443 312.926 409.087 311.983 410.75 311.094C412.422 310.199 414.083 309.279 415.75 308.375Z" fill="#000000" stroke="none"/>
</g>
<g opacity="1" vectornator:layerName="Curve 7">
<path d="M373.928 300.838C373.928 292.873 373.316 284.334 368.8 277.415C361.72 266.571 348.188 261.489 343.698 248.644" fill="#e2eee1" fill-rule="nonzero" stroke="none"/>
<path d="M343.688 248.656C345.103 252.797 347.465 256.358 350.406 259.594C355.417 265.108 361.707 269.387 366.25 275.344C368.289 278.017 369.833 280.962 370.781 284.188C371.243 285.756 371.499 287.342 371.844 288.938C372.125 290.242 372.485 291.535 372.75 292.844C373.285 295.486 373.624 298.168 373.938 300.844C374.355 296.802 374.831 292.584 374.281 288.531C374.094 287.153 373.683 285.787 373.25 284.469C372.196 281.257 370.656 278.245 368.594 275.562C363.635 269.111 356.529 264.933 350.844 259.219C347.785 256.144 345.276 252.695 343.688 248.656Z" fill="#000000" stroke="none"/>
</g>
<g opacity="1" vectornator:layerName="Curve 8">
<path d="M365.668 297.581C365.668 295.948 366.272 294.201 365.668 292.682C365.033 291.085 363.355 290.13 362.199 288.853" fill="#e2eee1" fill-rule="nonzero" stroke="none"/>
<path d="M362.188 288.844C362.188 288.844 362.939 291.806 363.938 293.219C364.562 294.103 363.549 291.907 363.031 290.406C362.859 290.376 362.188 288.844 362.188 288.844ZM363.031 290.406C363.078 290.414 363.054 290.159 363 289.875C362.886 289.72 362.69 289.427 362.719 289.562C362.76 289.76 362.935 290.127 363.031 290.406ZM363 289.875C363.132 290.055 363.209 290.128 363.312 290.25C363.684 290.689 364.062 291.11 364.375 291.594C364.914 292.425 365.112 293.289 364.906 294.281C364.869 294.462 364.817 294.637 364.75 294.812C365.221 295.815 365.484 296.442 365.969 297.188C366.058 297.324 366.177 296.938 366.281 296.812C366.385 296.687 366.491 296.563 366.594 296.438C366.747 296.249 367.04 295.915 367.094 295.656C367.188 295.201 367.046 294.708 366.969 294.25C366.708 292.704 365.979 291.588 364.75 290.656C364.357 290.358 364.067 290.171 363.625 289.875C363.379 289.71 362.831 289.088 362.906 289.375C362.991 289.695 362.967 289.702 363 289.875ZM364.75 294.812C364.434 294.141 363.698 292.673 363.938 293.219C364.252 293.935 364.374 294.293 364.688 295.094C364.712 295.001 364.715 294.904 364.75 294.812ZM364.688 295.094C364.662 295.189 364.594 295.276 364.594 295.375C364.592 295.807 364.965 296.352 365.156 296.719C365.235 296.871 365.467 297.317 365.406 297.156C364.902 295.815 364.974 295.93 365.156 296.344C365.023 295.992 364.895 295.623 364.688 295.094Z" fill="#000000" stroke="none"/>
</g>
<g opacity="1" vectornator:layerName="Curve 9">
<path d="M342.667 209.485C338.186 209.485 336.78 211.389 334.825 215.19" fill="#e2eee1" fill-rule="nonzero" stroke="none"/>
<path d="M340 208.562C339.693 208.653 339.418 208.821 339.094 209C337.664 209.789 336.6 211.004 335.906 212.469C335.777 212.742 335.65 213.034 335.531 213.312C335.404 213.611 334.902 214.372 335.188 214.219C335.504 214.049 335.52 214.069 335.688 214C335.844 213.819 335.891 213.73 336 213.594C336.35 213.155 336.715 212.727 337.125 212.344C337.793 211.72 338.568 211.204 339.469 211C339.692 210.949 339.951 210.913 340.219 210.906C341.113 210.136 341.555 209.799 342.094 209.125C342.225 208.96 341.752 208.937 341.562 208.844C341.381 208.755 341.19 208.663 341 208.594C340.631 208.46 340.307 208.472 340 208.562ZM340.219 210.906C339.508 211.518 338.185 212.732 338.75 212.344C339.583 211.772 340.01 211.437 340.812 210.844C340.644 210.906 340.43 210.901 340.219 210.906ZM340.812 210.844C340.83 210.837 340.858 210.851 340.875 210.844C341.134 210.726 341.319 210.506 341.531 210.312C341.33 210.463 341.094 210.636 340.812 210.844ZM338.75 212.344C339.5 211.54 337.517 213.041 336.156 213.875C336.142 214.116 334.813 215.187 334.812 215.188C334.812 215.188 337.5 213.684 338.75 212.344ZM336.156 213.875C336.16 213.81 335.945 213.894 335.688 214C335.558 214.15 335.306 214.404 335.438 214.344C335.613 214.264 335.917 214.022 336.156 213.875ZM342.656 209.5C342.656 209.5 339.685 211.618 342.125 209.844C342.285 209.727 341.811 210.095 341.656 210.219C341.909 210.029 342.656 209.5 342.656 209.5Z" fill="#000000" stroke="none"/>
</g>
<g opacity="1" vectornator:layerName="Curve 10">
<path d="M419.98 306.64C411.878 309.235 406.156 315.253 398.69 319.332C387.231 325.592 374.759 328.427 364.338 336.716" fill="#e2eee1" fill-rule="nonzero" stroke="none"/>
<path d="M419.969 306.625C415.918 307.529 411.871 309.144 408.375 311.406C406.646 312.526 405.069 313.879 403.406 315.094C401.298 316.633 399.128 318.078 396.844 319.344C389.84 323.225 382.276 325.947 375.188 329.656C371.334 331.673 367.731 333.989 364.344 336.719C367.835 334.154 371.545 332.022 375.469 330.188C383.238 326.555 391.493 324.065 399.125 320.125C401.641 318.826 404.011 317.303 406.375 315.75C407.519 314.998 408.714 314.255 409.812 313.438C411.167 312.43 412.42 311.313 413.781 310.312C415.731 308.88 417.777 307.649 419.969 306.625Z" fill="#000000" stroke="none"/>
</g>
</g>
<g opacity="1" vectornator:layerName="Group 1">
<path d="M310.582 301.401L314.455 293.366L319.567 290.389C319.567 290.389 347.742 177.99 353.823 172.679C363.743 164.016 362.233 199.933 362.854 207.192C363.475 214.451 371.8 146.985 383.517 149.334C383.517 149.334 393.764 144.96 381.774 187.505C370.206 228.551 390.447 151.828 400.542 149.567C413.142 146.744 392.603 198 392.41 197.354C392.217 196.707 406.815 155.43 414.362 161.17C421.909 166.91 403.554 202.55 404.603 204.839C405.652 207.129 412.983 163.718 423.068 175.421C433.153 187.123 363.939 322.7 368.769 326.02C373.599 329.34 367.332 329.781 364.169 330.751C361.006 331.722 315.103 306.67 310.582 301.401Z" fill="#e2eee1" fill-rule="nonzero" opacity="1" stroke="#000000" stroke-linecap="butt" stroke-linejoin="round" stroke-width="3" vectornator:layerName="Curve 3"/>
<g opacity="1" vectornator:layerName="Curve 4">
<path d="M373.965 200.043C377.436 200.927 380.906 201.811 384.377 202.695" fill="#e2eee1" fill-rule="nonzero" stroke="none"/>
<path d="M376.844 199.562C375.89 199.353 374.897 199.73 373.969 200.031C374.64 200.74 375.344 201.572 376.281 201.844C376.718 201.97 377.172 201.897 377.625 201.938C378.076 201.977 378.549 202.016 379 202.062C380.798 202.248 382.58 202.475 384.375 202.688C382.698 202.015 381.011 201.353 379.344 200.656C378.926 200.482 378.509 200.306 378.094 200.125C377.677 199.944 377.287 199.66 376.844 199.562Z" fill="#000000" stroke="none"/>
</g>
<g opacity="1" vectornator:layerName="Curve 5">
<path d="M388.27 204.184C390.286 204.184 391.591 204.949 393.004 206.362" fill="#e2eee1" fill-rule="nonzero" stroke="none"/>
<path d="M389.375 203.094C389.134 203.173 388.625 203.392 388.812 203.562C390.059 204.691 388.281 204.187 388.281 204.188C388.281 204.188 389.891 204.55 390.625 205.281C391.09 205.745 389.373 204.757 388.719 204.812C388.495 204.831 388.895 205.257 389.062 205.406C389.152 205.486 389.287 205.441 389.406 205.438C390.166 205.415 390.791 205.452 391.5 205.688C391.574 205.712 391.642 205.688 391.719 205.719C391.743 205.724 391.757 205.745 391.781 205.75C391.899 205.798 392.01 205.852 392.125 205.906C392.269 205.974 392.708 206.19 392.562 206.125C391.128 205.488 393 206.375 393 206.375C393 206.375 392.677 206.097 392.312 205.844C392.454 205.867 392.65 205.924 392.75 205.938C392.913 205.959 392.564 205.666 392.469 205.531C392.298 205.29 392.071 204.972 391.875 204.75C391.358 204.164 390.642 203.516 389.906 203.219C389.741 203.152 389.544 203.038 389.375 203.094Z" fill="#000000" stroke="none"/>
</g>
<g opacity="1" vectornator:layerName="Curve 6">
<path d="M323.298 294.997C331.806 298.314 342.365 300.6 350.166 305.38C356.151 309.047 360.326 314.312 367.328 316.419" fill="#e2eee1" fill-rule="nonzero" stroke="none"/>
<path d="M323.312 295C326.095 296.535 328.96 298.153 331.938 299.281C333.843 300.003 335.864 300.437 337.812 301.031C341.59 302.182 345.379 303.488 348.875 305.344C353.22 307.65 356.816 311.041 361 313.594C363.005 314.817 365.06 315.75 367.312 316.406C365.118 315.627 363.136 314.608 361.219 313.281C357.156 310.47 353.728 306.84 349.5 304.25C346.04 302.13 342.273 300.531 338.5 299.062C336.593 298.32 334.664 297.475 332.688 296.938C331.512 296.618 330.289 296.416 329.094 296.188C327.155 295.816 325.237 295.441 323.312 295Z" fill="#000000" stroke="none"/>
</g>
<g opacity="1" vectornator:layerName="Curve 7">
<path d="M361.328 288.086C361.328 263.326 381.809 260.459 388.809 240.281" fill="#e2eee1" fill-rule="nonzero" stroke="none"/>
<path d="M388.812 240.281C387.74 243 386.45 245.573 384.812 248C382.488 251.446 379.618 254.476 376.656 257.375C372.167 261.77 367.43 266.024 364.219 271.5C363.215 273.212 362.239 275.044 361.719 276.969C360.751 280.549 360.927 284.451 361.312 288.094C361.578 286.185 361.933 284.3 362.438 282.438C362.874 280.825 363.484 279.282 364.062 277.719C364.457 276.654 364.758 275.583 365.188 274.531C366.142 272.196 367.438 269.985 368.906 267.938C372.753 262.573 377.739 258.187 381.844 253.031C384.905 249.186 387.241 244.937 388.812 240.281Z" fill="#000000" stroke="none"/>
</g>
<g opacity="1" vectornator:layerName="Curve 8">
<path d="M368.837 285.103C368.837 279.044 367.837 281.728 371.991 277.109" fill="#e2eee1" fill-rule="nonzero" stroke="none"/>
<path d="M372 277.125C372 277.125 370.734 280.196 371.594 277.719C371.665 277.512 371.343 278.102 371.219 278.281C371.32 277.908 371.368 277.807 371.406 277.562C371.44 277.348 371.078 277.836 370.906 277.969C370.638 278.176 370.306 278.422 370.031 278.625C369.206 279.235 368.272 279.763 367.969 280.812C367.823 281.317 367.768 281.827 367.688 282.344C367.641 282.644 367.555 282.946 367.562 283.25C367.572 283.62 368.105 284.133 368.312 284.406C368.399 284.52 368.498 284.878 368.562 284.75C369.193 283.507 369.244 283.598 369.156 284C369.322 283.443 369.567 282.97 369.875 282.281C369.693 281.76 369.449 281.238 369.562 280.75C369.642 280.407 369.896 280.091 370.094 279.812C370.333 279.475 370.337 279.51 370.594 279.156C370.803 278.867 370.984 278.605 371.188 278.312C370.787 279.777 370.08 282 370.406 281.094C370.921 279.666 372 277.125 372 277.125ZM370.406 281.094C370.182 281.417 370.059 281.871 369.875 282.281C369.897 282.345 369.886 282.406 369.906 282.469C370.116 281.935 370.685 280.692 370.406 281.094ZM369.906 282.469C369.565 283.338 369.367 283.961 369.125 284.719C369.081 284.856 369.292 284.493 369.375 284.375C369.452 284.266 369.52 284.174 369.594 284.062C369.743 283.838 370.078 283.453 370.062 283.156C370.051 282.941 369.982 282.701 369.906 282.469Z" fill="#000000" stroke="none"/>
</g>
<g opacity="1" vectornator:layerName="Curve 9">
<path d="M389.746 204.416C393.82 204.416 395.097 206.16 396.875 209.641" fill="#e2eee1" fill-rule="nonzero" stroke="none"/>
<path d="M392.188 203.469C391.906 203.385 391.624 203.362 391.281 203.5C391.106 203.571 390.916 203.66 390.75 203.75C390.576 203.844 390.108 203.926 390.25 204.062C392.329 206.063 389.75 204.406 389.75 204.406C389.75 204.406 390.777 205.058 391.844 205.844C393.248 205.969 394.244 206.469 395.25 207.562C395.431 207.759 395.613 207.981 395.781 208.188C395.847 208.269 395.854 208.309 395.969 208.438C396.274 208.587 396.348 208.686 396.562 208.75C396.847 208.835 396.362 208.181 396.25 207.906C396.063 207.448 395.777 206.87 395.531 206.438C394.926 205.371 394.095 204.482 393.031 203.875C392.731 203.703 392.469 203.553 392.188 203.469ZM395.969 208.438C394.6 207.767 392.481 206.474 393.312 207.031C394.602 207.896 396.875 209.656 396.875 209.656C396.875 209.656 394.068 207.474 396.312 208.875C396.471 208.974 396.173 208.667 395.969 208.438ZM393.312 207.031C392.92 206.603 392.362 206.225 391.844 205.844C391.786 205.839 391.747 205.816 391.688 205.812C391.499 205.801 391.408 205.646 391.281 205.562C392.366 206.42 393.875 207.645 393.312 207.031ZM391.281 205.562C390.711 205.111 390.576 205.035 390.219 204.781C390.068 204.674 390.517 205.034 390.656 205.156C390.869 205.343 391.083 205.431 391.281 205.562Z" fill="#000000" stroke="none"/>
</g>
<g opacity="1" vectornator:layerName="Curve 10">
<path d="M319.465 293.4C334.007 298.093 357.799 311.131 370.046 320.947" fill="#e2eee1" fill-rule="nonzero" stroke="none"/>
<path d="M319.469 293.406C321.693 294.448 323.876 295.571 326.031 296.75C327.398 297.498 328.732 298.301 330.156 298.938C332.826 300.131 335.535 301.201 338.188 302.438C349.276 307.608 360.238 313.565 370.031 320.938C362.58 314.731 354.343 309.457 345.969 304.594C342.571 302.621 339.142 300.751 335.656 298.938C333.83 297.987 331.997 296.936 330.062 296.219C326.655 294.955 323.025 294.125 319.469 293.406Z" fill="#000000" stroke="none"/>
</g>
</g>
</g>
</g>
</svg>
