<?xml version="1.0" encoding="UTF-8" standalone="no"?>
<!DOCTYPE svg PUBLIC "-//W3C//DTD SVG 1.1//EN" "http://www.w3.org/Graphics/SVG/1.1/DTD/svg11.dtd">
<!-- Created with Vectornator (http://vectornator.io/) -->
<svg height="100%" stroke-miterlimit="10" style="fill-rule:nonzero;clip-rule:evenodd;stroke-linecap:round;stroke-linejoin:round;" version="1.1" viewBox="668.99 94.0669 79.6286 276.442" width="100%" xml:space="preserve" xmlns="http://www.w3.org/2000/svg" xmlns:vectornator="http://vectornator.io" xmlns:xlink="http://www.w3.org/1999/xlink">
<defs/>
<clipPath id="ArtboardFrame">
<rect height="276.442" width="79.6286" x="668.99" y="94.0669"/>
</clipPath>
<g clip-path="url(#ArtboardFrame)" id="Layer" vectornator:layerName="Layer">
<g opacity="1" vectornator:layerName="Group 5">
<path d="M685.494 210.115C682.752 203.443 687.861 194.148 693.403 190.216" fill="none" opacity="1" stroke="#000000" stroke-linecap="butt" stroke-linejoin="round" stroke-width="3" vectornator:layerName="Curve 13"/>
<path d="M683.695 211.156C674.252 217.025 681.12 221.447 678.022 229C676.576 232.527 673.118 235.668 673.715 239.908C674.432 245.011 678.37 248.826 679.408 253.591C680.859 260.25 674.222 265.037 675.148 271.376C675.792 275.783 680.299 279.47 681.102 284.007C682.468 291.73 675.246 298.925 676.189 306.586C676.952 312.781 682.544 317.682 681.844 324.325C681.424 328.308 676.752 329.362 676.381 333.806C675.962 338.818 681.187 343.431 679.47 348.233C678.122 352.005 667.942 361.427 671.091 366.18C675.223 372.417 685.576 362.64 688.039 359.514C698.339 346.441 695.692 331.868 697.173 316.5C698.354 304.24 699.687 291.936 700.188 279.614C700.561 270.417 698.274 260.441 699.389 251.536C700.563 242.171 706.24 227.038 702.523 217.362" fill="none" opacity="1" stroke="#000000" stroke-linecap="butt" stroke-linejoin="round" stroke-width="3" vectornator:layerName="Curve 3"/>
<path d="M717.707 217.442C716.538 224.202 714.413 237.093 716.792 243.865C717.917 247.069 722.063 249.78 722.512 253.209C723.41 260.071 720.941 268.14 720.937 275.198C720.924 295.722 723.316 316.003 724.107 336.37C724.484 346.098 712.187 356.766 714.758 365.637C716.895 373.011 731.156 366.446 734.342 363.338C745.754 352.202 742.996 328.621 742.061 314.218C741.195 300.872 737.799 284.821 739.182 271.567C740.108 262.696 747.731 250.487 747.079 242.418C746.355 233.457 733.353 218.368 735.023 208.71" fill="none" opacity="1" stroke="#000000" stroke-linecap="butt" stroke-linejoin="round" stroke-width="3" vectornator:layerName="Curve 4"/>
<path d="M684.731 211.156C690.52 212.157 696.695 221.735 710.627 213.076" fill="none" opacity="1" stroke="#000000" stroke-linecap="butt" stroke-linejoin="round" stroke-width="3" vectornator:layerName="Curve 5"/>
<path d="M714.404 217.362C722.921 217.758 727.768 216.942 735.023 208.71" fill="none" opacity="1" stroke="#000000" stroke-linecap="butt" stroke-linejoin="round" stroke-width="3" vectornator:layerName="Curve 6"/>
<path d="M715.48 217.362C705.234 214.368 714.416 205.785 707.851 200.587C703.425 197.082 693.09 196.126 690.691 190.304C685.162 176.891 688.818 142.893 691.31 128.486C693.223 117.422 696.417 97.2573 710.697 95.5669" fill="none" opacity="1" stroke="#000000" stroke-linecap="butt" stroke-linejoin="round" stroke-width="3" vectornator:layerName="Curve 7"/>
<path d="M710.627 95.5669C716.678 95.5669 717.774 99.0849 715.951 102.016C708.262 114.377 701.068 131.214 700.413 146.107C699.737 161.496 714.869 161.238 721.98 170.463C724.665 173.947 722.555 178.8 724.336 182.714C728.424 191.697 733.491 198.673 735.023 208.71" fill="none" opacity="1" stroke="#000000" stroke-linecap="butt" stroke-linejoin="round" stroke-width="3" vectornator:layerName="Curve 8"/>
<path d="M727.329 186.976C730.061 171.173 724.076 156.995 722.595 141.494C721.243 127.343 719.555 114.134 717.707 100.027" fill="none" opacity="1" stroke="#000000" stroke-linecap="butt" stroke-linejoin="round" stroke-width="3" vectornator:layerName="Curve 9"/>
<path d="M702.523 179.455C706.792 173.491 710.23 174.278 715.933 178.222" fill="none" opacity="1" stroke="#000000" stroke-linecap="butt" stroke-linejoin="round" stroke-width="3" vectornator:layerName="Curve 10"/>
<path d="M701.679 183.772C701.679 189.451 706.343 188.647 710.627 190.181" fill="none" opacity="1" stroke="#000000" stroke-linecap="butt" stroke-linejoin="round" stroke-width="3" vectornator:layerName="Curve 11"/>
<path d="M712.167 190.447C716.021 187.823 716.905 183.907 716.633 179.381" fill="none" opacity="1" stroke="#000000" stroke-linecap="butt" stroke-linejoin="round" stroke-width="3" vectornator:layerName="Curve 12"/>
</g>
</g>
</svg>
