<?xml version="1.0" encoding="UTF-8" standalone="no"?>
<!DOCTYPE svg PUBLIC "-//W3C//DTD SVG 1.1//EN" "http://www.w3.org/Graphics/SVG/1.1/DTD/svg11.dtd">
<!-- Created with Vectornator (http://vectornator.io/) -->
<svg height="100%" stroke-miterlimit="10" style="fill-rule:nonzero;clip-rule:evenodd;stroke-linecap:round;stroke-linejoin:round;" version="1.1" viewBox="511.564 86.007 85.286 299.831" width="100%" xml:space="preserve" xmlns="http://www.w3.org/2000/svg" xmlns:vectornator="http://vectornator.io" xmlns:xlink="http://www.w3.org/1999/xlink">
<defs/>
<clipPath id="ArtboardFrame">
<rect height="299.831" width="85.286" x="511.564" y="86.007"/>
</clipPath>
<g clip-path="url(#ArtboardFrame)" id="Layer" vectornator:layerName="Layer">
<g opacity="1" vectornator:layerName="Group 3">
<path d="M538.066 244.609C538.066 244.609 505.548 239.07 514.682 199.092C523.816 159.114 540.255 101.46 556.524 88.2276C568.066 78.8401 592.781 164.068 593.207 175.036C593.633 186.003 595.561 223.514 595.331 229.366C595.102 235.218 587.823 242.606 577.037 241.628C566.251 240.65 507.334 244.463 535.592 252.387C535.592 252.387 524.11 394.385 552.043 383.295C552.043 383.295 571.812 390.815 571.984 365.471C572.155 340.126 567.687 253.877 573.973 255.035C580.258 256.193 586.524 243.878 578.616 243.782" fill="none" opacity="1" stroke="#000000" stroke-linecap="butt" stroke-linejoin="round" stroke-width="3" vectornator:layerName="Curve 3"/>
<g opacity="1" vectornator:layerName="Curve 4">
<path d="M556.562 186.656C555.734 186.575 554.907 186.609 554.062 186.781C556.172 187.144 557.89 188.218 559.156 189.969C559.802 190.861 560.256 191.854 560.844 192.781C561.723 194.169 562.566 195.531 563.25 197.031C566.369 203.876 567.705 211.481 569.156 218.812C569.859 222.362 570.447 226.016 571.656 229.438C570.619 225.575 570.314 221.491 569.844 217.531C568.985 210.309 568.185 202.924 565.844 196C565.173 194.016 564.405 191.777 563.031 190.156C561.371 188.197 559.049 186.901 556.562 186.656Z" fill="#000000" stroke="none"/>
</g>
<g opacity="1" vectornator:layerName="Curve 5">
<path d="M544.688 252.594C543.319 252.543 542.006 252.608 540.719 253.094C541.846 253.608 542.714 254.42 543.594 255.281C543.77 255.454 543.934 255.624 544.125 255.781C544.522 256.108 544.876 256.505 545.344 256.719C545.847 256.949 546.42 257.018 546.969 257.094C547.531 257.172 548.088 257.194 548.656 257.188C550.311 257.168 551.997 256.859 553.625 256.594C557.375 255.982 561.098 255.042 564.875 254.594C565.925 254.469 566.978 254.431 568.031 254.344C565.88 254.153 563.755 254.004 561.594 254C557.856 253.994 554.101 254.248 550.375 253.844C549.446 253.743 548.736 253.686 547.875 253.344C547.515 253.201 547.185 252.919 546.812 252.812C546.123 252.615 545.404 252.62 544.688 252.594Z" fill="#000000" stroke="none"/>
</g>
<g opacity="1" vectornator:layerName="Curve 6">
<path d="M548.469 363.281C547.943 364.62 547.125 366.165 547.062 367.625C547.028 368.427 547.257 369.376 547.438 370.156C547.648 371.065 547.987 371.994 548.594 372.719C550.652 375.176 555.453 374.471 558.25 374.188C558.978 374.114 559.711 374.021 560.438 373.938C557.822 373.881 555.089 373.912 552.531 373.281C551.55 373.039 550.474 372.671 549.938 371.75C549.19 370.467 549.624 369.001 549.562 367.625C549.498 366.187 548.849 364.661 548.469 363.281Z" fill="#000000" stroke="none"/>
</g>
<g opacity="1" vectornator:layerName="Curve 7">
<path d="M555.469 360.062C554.922 360.046 554.379 360.068 553.812 360.25C552.123 360.792 550.496 361.543 548.844 362.188C550.211 362.711 551.577 363.231 552.969 363.688C553.57 363.885 554.182 364.139 554.812 364.188C555.586 364.246 556.452 364.004 557.219 363.906C557.911 363.818 558.617 363.723 559.312 363.656C561.372 363.458 564.738 362.882 565.719 365.312C565.986 365.975 566.109 366.7 566.188 367.406C566.305 368.456 566.32 369.507 566.312 370.562C566.3 372.334 566.224 374.106 566.125 375.875C566.694 373.261 567.284 370.61 567.5 367.938C567.607 366.617 567.656 365.22 567.156 363.969C565.741 360.427 560.308 360.465 557.156 360.188C556.575 360.136 556.015 360.079 555.469 360.062Z" fill="#000000" stroke="none"/>
</g>
<g opacity="1" vectornator:layerName="Curve 8">
<path d="M573.938 241.125C570.262 241.2 566.614 241.612 562.969 242.062C566.54 242.526 570.118 243 573.594 243.969C574.703 244.278 575.285 244.451 576.375 244.844C576.91 245.036 577.212 245.281 577.812 245.219C578.426 245.155 579.009 244.851 579.594 244.656C580.239 244.441 580.885 244.213 581.531 244C580.818 243.285 580.113 242.564 579.344 241.906C579.107 241.704 578.869 241.489 578.594 241.344C578.056 241.06 577.576 241.126 577 241.125C576.163 241.124 574.78 241.108 573.938 241.125Z" fill="#000000" stroke="none"/>
</g>
<g opacity="1" vectornator:layerName="Curve 9">
<path d="M578.188 244.562C578.5 244.563 578.812 244.562 579.125 244.562C578.812 244.563 578.5 244.562 578.188 244.562Z" fill="#000000" stroke="none"/>
</g>
</g>
</g>
</svg>
