<?xml version="1.0" encoding="UTF-8"?><svg id="Layer_2" xmlns="http://www.w3.org/2000/svg" width="1919.92" height="1083.34" xmlns:xlink="http://www.w3.org/1999/xlink" viewBox="0 0 1919.92 1083.34"><defs><style>.cls-1{stroke-width:115.49px;}.cls-1,.cls-2,.cls-3,.cls-4,.cls-5,.cls-6,.cls-7,.cls-8,.cls-9,.cls-10{fill:none;}.cls-1,.cls-2,.cls-4,.cls-6,.cls-7,.cls-8,.cls-9,.cls-10{stroke-miterlimit:10;}.cls-1,.cls-2,.cls-7{stroke-linecap:round;}.cls-1,.cls-7{stroke:#ffffd4;}.cls-2{stroke:#ffd483;stroke-dasharray:0 0 35.59 35.59;stroke-width:2.97px;}.cls-3{stroke-linejoin:round;}.cls-3,.cls-8,.cls-9{stroke:#fef5a4;}.cls-3,.cls-9{stroke-width:34.06px;}.cls-4{stroke-width:22.88px;}.cls-4,.cls-6{stroke:#513e36;}.cls-11{clip-path:url(#clippath);}.cls-5,.cls-12,.cls-13,.cls-14,.cls-15,.cls-16,.cls-17,.cls-18,.cls-19,.cls-20,.cls-21{stroke-width:0px;}.cls-12{fill:url(#linear-gradient);}.cls-6{stroke-width:6.73px;}.cls-7{stroke-width:67.54px;}.cls-8{stroke-width:35.15px;}.cls-13{fill:url(#linear-gradient-2);}.cls-14{fill:url(#linear-gradient-3);}.cls-15{fill:#478e4b;}.cls-16{fill:#94ff98;}.cls-17{fill:#56a55c;}.cls-18{fill:#407f4c;}.cls-19{fill:#83bf80;}.cls-20{fill:#64bc69;}.cls-21{fill:#fcfaf2;}.cls-10{stroke:#1d261c;stroke-width:5.38px;}</style><clipPath id="clippath"><rect class="cls-5" width="1919.92" height="1083.34"/></clipPath><linearGradient id="linear-gradient" x1="902.08" y1="445.75" x2="924.05" y2="-131.96" gradientUnits="userSpaceOnUse"><stop offset="0" stop-color="#e2eee1"/><stop offset=".17" stop-color="#ddebe1"/><stop offset=".34" stop-color="#d0e5e1"/><stop offset=".52" stop-color="#bbdae1"/><stop offset=".7" stop-color="#9dcbe2"/><stop offset=".89" stop-color="#78b8e3"/><stop offset=".96" stop-color="#68b0e4"/><stop offset="1" stop-color="#63abb3"/></linearGradient><linearGradient id="linear-gradient-2" x1="929.67" y1="1126.83" x2="977.79" y2="-138.57" gradientUnits="userSpaceOnUse"><stop offset="0" stop-color="#83bf80"/><stop offset=".19" stop-color="#87c180"/><stop offset=".38" stop-color="#94c983"/><stop offset=".59" stop-color="#a9d687"/><stop offset=".79" stop-color="#c6e88c"/><stop offset="1" stop-color="#ecff94"/></linearGradient><linearGradient id="linear-gradient-3" x1="939.57" y1="1193.9" x2="978.66" y2="165.9" gradientUnits="userSpaceOnUse"><stop offset="0" stop-color="#da494a"/><stop offset=".15" stop-color="#dc4d4a"/><stop offset=".3" stop-color="#e25a4c"/><stop offset=".46" stop-color="#eb6f4f"/><stop offset=".54" stop-color="#f27c52"/><stop offset="1" stop-color="#da494a"/></linearGradient></defs><g id="city"><g class="cls-11"><polygon class="cls-21" points="0 1083.34 1919.92 1083.34 1919.92 112.68 1919.92 0 0 0 0 1083.34"/><rect class="cls-12" x="-220.36" y="-26.39" width="2268.8" height="315.22"/><path class="cls-13" d="M-101.75,96.17S120.96-149.93,272.61-162.61c240.28-20.1,283.75,193.12,390.67,205.35,106.93,12.23,247.7-53.76,429.92-42.15,182.22,11.61,412.5,268.7,603.5,278.9,191,10.2,228.32-82.03,340.18-114.74l-54.49,918.6-2021.32,6.66L-101.75,96.17Z"/><g id="stig"><g id="stig-2"><path class="cls-9" d="M391.41,509.17s297.69,130.57,176.16,256.8c-174.43,181.19,55.11,349.43,288.88,239.6,85.2-40.03,239.31-171.98,351.99-190.83,27.7-4.63,52.82-2.58,73.66,9.08,122.19,68.36,169.44,155.77,218.44,144.53,49-11.24,396.37-209.67,396.37-209.67,0,0,32.39-22.7-1.84-42.46-34.23-19.76-421.45-242.8-421.45-242.8,0,0-35.1-9.19-66.79,7.18-31.69,16.37-338.47,196.95-338.47,196.95,0,0-36.19,15.55-2.43,37.46,33.76,21.91,91.86,55.46,102.22,61.43,34.23,19.76,1.83,34.72-25.03,58.74"/><path class="cls-9" d="M110.4,573.97c5.82.13-75.64,251.81,121.86,258.36,203.84,6.76,181.78-42.18,272.82,73.69"/><path class="cls-8" d="M192.31,1118.2s-92.15-207.3,155.77-287.35"/><path class="cls-9" d="M-51.87,826.75s114.69,109.76,200.83-17.7"/><path class="cls-9" d="M442.6,838.06s32.99.49,124.97-72.09"/><path class="cls-9" d="M480.1,832.02c11.84,17.07,15.35,31.59,15.35,31.59"/><path class="cls-3" d="M99.79,704.56s-1.2-88.86,94.27-135.2c-46.65,4.61-163.18,0-163.18,0,0,0,62.27,63.74,68.91,135.2Z"/><line class="cls-9" x1="110.94" y1="622.79" x2="147.41" y2="573.97"/><line class="cls-3" x1="68.88" y1="584.06" x2="92.18" y2="613.08"/><line class="cls-9" x1="1272.42" y1="819.35" x2="1168.14" y2="776.44"/></g><path class="cls-9" d="M402.37,827.75s62.58,3.1,137.96-38.52"/><path class="cls-9" d="M286.45,856.73s173.48-79.67,226.43,75.99"/></g><g id="road"><path id="road-2" class="cls-14" d="M1020.06,1154.18l236.16-136.34s38.75-22.37,0-44.74c-38.75-22.37-431.73-249.26-431.73-249.26,0,0-79.33-43.68,0-89.48,79.33-45.8,313.65-181.08,313.65-181.08,0,0,38.75-24.5,0-46.87-38.75-22.37-273.06-157.65-273.06-157.65,0,0-42.43-22.37-81.17,0-38.75,22.37-195.57,112.91-195.57,112.91l-77.49-44.74,236.16-136.34s75.65-45.8,154.98,0c79.33,45.8,354.23,204.52,354.23,204.52,0,0,79.33,43.68,0,89.48-79.33,45.8-313.65,181.08-313.65,181.08,0,0-42.43,22.37-1.84,45.8,40.59,23.43,392.98,226.89,392.98,226.89l38.75,22.37s81.17,44.74,1.84,90.54c-79.33,45.8-274.9,158.71-274.9,158.71l-79.33-45.8Z"/><path class="cls-2" d="M549.28,337.96l236.16-136.34s31.88-26.31,77.49,0c45.61,26.31,354.23,204.52,354.23,204.52,0,0,40.59,21.31,0,44.74s-354.23,204.52-354.23,204.52c0,0-38.75,22.37,0,44.74,38.75,22.37,470.47,271.63,470.47,271.63,0,0,38.75,22.37,0,44.74-38.75,22.37-274.9,158.71-274.9,158.71"/></g><ellipse class="cls-16" cx="1054.58" cy="114.6" rx="34.31" ry="59.43" transform="translate(934.26 1168.54) rotate(-89.69)"/><line class="cls-4" x1="1331.76" y1="365.71" x2="1331.76" y2="206.77"/><path class="cls-18" d="M1429.54,293.04c-88.22-11.81-105.6-14.86-195.56,0,51.28-77.87,90.28-168.05,90.28-168.05,3.21-5.98,11.78-5.98,14.99,0,0,0,43.78,114.95,90.28,168.05Z"/><path class="cls-15" d="M1403.54,224.31c-64.76-8.67-77.52-10.9-143.56,0,37.64-57.16,66.27-123.36,66.27-123.36,2.36-4.39,8.65-4.39,11.01,0,0,0,32.14,84.39,66.27,123.36Z"/><path class="cls-17" d="M1381.76,160.99c-48.22-15.15-53.78-15.37-100,0,35.55-40.48,46.17-85.93,46.17-85.93,1.64-3.06,6.02-3.06,7.67,0,0,0,8.17,47.89,46.17,85.93Z"/><ellipse class="cls-17" cx="1121.65" cy="245.72" rx="23.7" ry="46.25" transform="translate(-25.83 287.62) rotate(-14.45)"/><ellipse class="cls-20" cx="1171.59" cy="275.91" rx="23.7" ry="46.25" transform="translate(-31.79 301.04) rotate(-14.45)"/><ellipse class="cls-20" cx="1271.47" cy="334.94" rx="23.7" ry="46.25" transform="translate(-43.36 327.82) rotate(-14.45)"/><ellipse class="cls-17" cx="1321.42" cy="363.77" rx="23.7" ry="46.25" transform="translate(-48.97 341.2) rotate(-14.45)"/><ellipse class="cls-17" cx="1221.53" cy="303.38" rx="23.7" ry="46.25" transform="translate(-37.06 314.36) rotate(-14.45)"/><ellipse class="cls-17" cx="924.58" cy="132.5" rx="23.7" ry="46.25" transform="translate(-3.82 234.87) rotate(-14.45)"/><ellipse class="cls-20" cx="974.52" cy="162.7" rx="23.7" ry="46.25" transform="translate(-9.77 248.29) rotate(-14.45)"/><ellipse class="cls-20" cx="1074.4" cy="221.73" rx="23.7" ry="46.25" transform="translate(-21.34 275.07) rotate(-14.45)"/><ellipse class="cls-17" cx="1124.35" cy="250.56" rx="23.7" ry="46.25" transform="translate(-26.96 288.45) rotate(-14.45)"/><ellipse class="cls-17" cx="1024.46" cy="190.17" rx="23.7" ry="46.25" transform="translate(-15.05 261.62) rotate(-14.45)"/><line class="cls-6" x1="1048.56" y1="124.21" x2="1048.56" y2="-21.17"/><path class="cls-6" d="M1014.41,19.31s2.17,45.61,34.15,68.41c0,0,37.68-25,38.82-80.34"/><path class="cls-17" d="M1071.48,57.94l-5.41-3.06c-10.87-6.15-24.17-6.15-35.04,0l-5.41,3.06c-14.83,8.39-33.72,5.24-44.59-7.88-5.94-7.17-9.51-16.38-9.51-26.42V-11.93c0-42.54,34.48-77.02,77.02-77.02h0c42.54,0,77.02,34.48,77.02,77.02V23.64c0,10.04-3.57,19.25-9.51,26.42-10.87,13.13-29.76,16.27-44.59,7.88Z"/><path class="cls-19" d="M1211.37-12.97h0c21.08,0,38.2,17.12,38.2,38.2v115.85h-76.4V25.23c0-21.08,17.12-38.2,38.2-38.2Z"/><path class="cls-10" d="M1216.27,216.32v-34.77s21.53-19.95,22.67-47.32"/><line class="cls-10" x1="1216.27" y1="181.55" x2="1216.27" y2="119.98"/><path class="cls-10" d="M1216.27,157.04s-25.22-11.4-24.65-37.05"/><line class="cls-1" x1="1505.58" y1="78.04" x2="1722.39" y2="78.04"/><line class="cls-7" x1="1852.69" y1="98.02" x2="2014.14" y2="98.02"/></g></g></svg>