<?xml version="1.0" encoding="UTF-8"?><svg id="Layer_2" xmlns="http://www.w3.org/2000/svg" width="873.41" height="598.42" xmlns:xlink="http://www.w3.org/1999/xlink" viewBox="0 0 873.41 598.42"><defs><style>.cls-1{stroke-width:7.47px;}.cls-1,.cls-2,.cls-3,.cls-4,.cls-5,.cls-6,.cls-7,.cls-8,.cls-9,.cls-10,.cls-11,.cls-12,.cls-13,.cls-14,.cls-15,.cls-16,.cls-17,.cls-18,.cls-19,.cls-20,.cls-21,.cls-22{stroke-miterlimit:10;}.cls-1,.cls-2,.cls-23,.cls-4,.cls-9,.cls-13,.cls-14,.cls-18,.cls-19,.cls-21{fill:none;}.cls-1,.cls-2,.cls-7,.cls-19{stroke:#513e36;}.cls-2{stroke-width:22.88px;}.cls-3{stroke-width:2.93px;}.cls-3,.cls-6,.cls-10,.cls-17,.cls-24,.cls-20{fill:#fcfaf2;}.cls-3,.cls-6,.cls-10,.cls-17,.cls-20{stroke:#ffd2d2;}.cls-25{clip-path:url(#clippath);}.cls-23,.cls-26,.cls-27,.cls-28,.cls-29,.cls-30,.cls-31,.cls-32,.cls-33,.cls-34,.cls-35,.cls-36,.cls-37,.cls-38,.cls-39,.cls-40,.cls-41,.cls-42,.cls-43,.cls-44,.cls-45,.cls-46,.cls-47,.cls-48,.cls-49,.cls-24,.cls-50,.cls-51,.cls-52,.cls-53,.cls-54,.cls-55,.cls-56,.cls-57,.cls-58,.cls-59{stroke-width:0px;}.cls-4{stroke:#83bf80;stroke-width:1.64px;}.cls-5,.cls-6,.cls-7,.cls-8,.cls-13,.cls-14{stroke-width:2.64px;}.cls-5,.cls-11{stroke:#c0d3b8;}.cls-5,.cls-11,.cls-51{fill:#ffd483;}.cls-7,.cls-28{fill:#513e36;}.cls-8{fill:#f9ed7d;stroke:#eda126;}.cls-9{stroke:#da494a;stroke-width:2.49px;}.cls-10{stroke-width:2.75px;}.cls-11{stroke-width:2.45px;}.cls-60{clip-path:url(#clippath-1);}.cls-61{clip-path:url(#clippath-4);}.cls-62{clip-path:url(#clippath-3);}.cls-63{clip-path:url(#clippath-2);}.cls-64{clip-path:url(#clippath-7);}.cls-65{clip-path:url(#clippath-6);}.cls-66{clip-path:url(#clippath-5);}.cls-12,.cls-15{stroke:#fff;stroke-width:4.45px;}.cls-12,.cls-50{fill:#fef5a4;}.cls-13{stroke:#2a72ff;}.cls-14{stroke:#7f530d;}.cls-15,.cls-42{fill:#abd6f2;}.cls-16{stroke:#ffd483;}.cls-16,.cls-30{fill:#89272e;}.cls-16,.cls-22{stroke-width:2.97px;}.cls-17{stroke-width:3.32px;}.cls-18{stroke-width:1.32px;}.cls-18,.cls-21{stroke:#4c3f2c;}.cls-19{stroke-width:1.91px;}.cls-26{fill:#f8feff;}.cls-27{fill:#f9f0dc;}.cls-29{fill:#478e4b;}.cls-31{fill:#724144;}.cls-32{fill:#7fbcbf;}.cls-33{fill:#56a55c;}.cls-34{fill:#3f2c00;}.cls-35{fill:#0f2a00;}.cls-36{fill:#0f0015;}.cls-37{fill:#407f4c;}.cls-38{fill:#df4738;}.cls-39{fill:#ddefda;}.cls-40{fill:#cbe2ef;}.cls-41{fill:#da494a;}.cls-43{fill:#c6a96f;}.cls-44{fill:#9ece97;}.cls-45{fill:#83bf80;}.cls-46{fill:#64bc69;}.cls-47{fill:#7f0020;}.cls-48{fill:#fff9bd;}.cls-49{fill:#e2eee1;}.cls-52{fill:#ffce8d;}.cls-53{fill:#f27c52;}.cls-54{fill:#fcfcfc;}.cls-55{fill:#002f55;}.cls-56{fill:#00553c;}.cls-57{fill:#00467f;}.cls-58{fill:#00142a;}.cls-59{fill:#68b0e4;}.cls-20{stroke-width:3.11px;}.cls-21{stroke-width:1.98px;}.cls-22{fill:url(#linear-gradient);stroke:#f27c52;}</style><clipPath id="clippath"><rect class="cls-23" width="873.41" height="598.42"/></clipPath><linearGradient id="linear-gradient" x1="725.54" y1="336.95" x2="725.54" y2="105.44" gradientTransform="translate(1451.07 442.4) rotate(180)" gradientUnits="userSpaceOnUse"><stop offset="0" stop-color="#ffd483"/><stop offset="1" stop-color="#fef5a4"/></linearGradient><clipPath id="clippath-1"><circle class="cls-23" cx="55.58" cy="194.64" r="18.83"/></clipPath><clipPath id="clippath-2"><rect class="cls-23" x="261.43" y="311.15" width="25.11" height="26.61" rx="6.31" ry="6.31" transform="translate(547.96 648.91) rotate(-180)"/></clipPath><clipPath id="clippath-3"><rect class="cls-23" x="130.69" y="311.15" width="25.11" height="26.61" rx="6.31" ry="6.31"/></clipPath><clipPath id="clippath-4"><rect class="cls-23" x="261.26" y="362.71" width="25.11" height="26.61" rx="6.31" ry="6.31" transform="translate(547.62 752.02) rotate(-180)"/></clipPath><clipPath id="clippath-5"><rect class="cls-23" x="130.52" y="362.71" width="25.11" height="26.61" rx="6.31" ry="6.31"/></clipPath><clipPath id="clippath-6"><rect class="cls-23" x="36.35" y="311.53" width="25.11" height="26.61" rx="6.31" ry="6.31" transform="translate(97.8 649.66) rotate(-180)"/></clipPath><clipPath id="clippath-7"><rect class="cls-23" x="32.55" y="364.87" width="25.11" height="26.61" rx="6.31" ry="6.31" transform="translate(90.21 756.35) rotate(-180)"/></clipPath></defs><g id="city"><g class="cls-25"><g id="Town"><line class="cls-2" x1="456.92" y1="332.2" x2="456.92" y2="173.26"/><path class="cls-37" d="M524.4,240.41c-60.89-11.81-72.88-14.86-134.97,0,35.39-77.87,62.31-168.05,62.31-168.05,2.22-5.98,8.13-5.98,10.35,0,0,0,30.22,114.95,62.31,168.05Z"/><path class="cls-29" d="M506.46,171.69c-44.7-8.67-53.5-10.9-99.08,0,25.98-57.16,45.74-123.36,45.74-123.36,1.63-4.39,5.97-4.39,7.6,0,0,0,22.18,84.39,45.74,123.36Z"/><path class="cls-33" d="M491.43,108.36c-33.28-15.15-37.12-15.37-69.02,0,24.54-40.48,31.86-85.93,31.86-85.93,1.13-3.06,4.16-3.06,5.29,0,0,0,5.64,47.89,31.86,85.93Z"/><path class="cls-9" d="M743.8,105.44s-59.88,80.63-122.67,0c0,0-64.25,81.58-125.58,0,0,0-59.88,80.63-122.67,0,0,0-66.98,81.58-126.95,0"/><line class="cls-1" x1="621.57" y1="70.14" x2="621.57" y2="266.42"/><line class="cls-1" x1="497" y1="70.14" x2="497" y2="266.42"/><line class="cls-1" x1="373.91" y1="70.14" x2="373.91" y2="266.42"/><line class="cls-1" x1="246.13" y1="70.14" x2="246.13" y2="266.42"/><path class="cls-22" d="M666.88,105.44h117.31v191.11c0,22.29-18.1,40.4-40.4,40.4h-36.52c-22.29,0-40.4-18.1-40.4-40.4V105.44h0Z" transform="translate(1451.07 442.4) rotate(-180)"/><rect class="cls-41" x="756.81" y="162.79" width="13.36" height="32.13" rx="2.63" ry="2.63" transform="translate(1526.98 357.71) rotate(-180)"/><rect class="cls-41" x="718.92" y="162.79" width="13.36" height="32.13" rx="2.63" ry="2.63" transform="translate(1451.2 357.71) rotate(-180)"/><rect class="cls-41" x="681.03" y="162.79" width="13.36" height="32.13" rx="2.63" ry="2.63" transform="translate(1375.42 357.71) rotate(-180)"/><rect class="cls-41" x="681.03" y="223.07" width="13.36" height="32.13" rx="2.63" ry="2.63" transform="translate(1375.42 478.26) rotate(-180)"/><rect class="cls-41" x="718.92" y="223.07" width="13.36" height="32.13" rx="2.63" ry="2.63" transform="translate(1451.2 478.26) rotate(-180)"/><rect class="cls-41" x="756.81" y="223.07" width="13.36" height="32.13" rx="2.63" ry="2.63" transform="translate(1526.98 478.26) rotate(-180)"/><rect class="cls-41" x="756.81" y="283.34" width="13.36" height="32.13" rx="2.63" ry="2.63" transform="translate(1526.98 598.81) rotate(-180)"/><rect class="cls-41" x="718.92" y="283.34" width="13.36" height="32.13" rx="2.63" ry="2.63" transform="translate(1451.2 598.81) rotate(-180)"/><rect class="cls-41" x="681.03" y="283.34" width="13.36" height="32.13" rx="2.63" ry="2.63" transform="translate(1375.42 598.81) rotate(-180)"/><g id="lägenhet"><rect class="cls-32" x="-5.34" y="53.6" width="188.8" height="163.1" transform="translate(178.13 270.31) rotate(-180)"/><rect class="cls-55" x="151.57" y="67.13" width="20.05" height="20.05" rx="2.86" ry="2.86" transform="translate(323.2 154.31) rotate(-180)"/><rect class="cls-55" x="101.68" y="67.13" width="20.05" height="20.05" rx="2.86" ry="2.86" transform="translate(223.41 154.31) rotate(-180)"/><rect class="cls-55" x="51.78" y="67.13" width="20.05" height="20.05" rx="2.86" ry="2.86" transform="translate(123.62 154.31) rotate(-180)"/><rect class="cls-55" x="1.89" y="67.13" width="20.05" height="20.05" rx="2.86" ry="2.86" transform="translate(23.83 154.31) rotate(-180)"/><rect class="cls-55" x="151.57" y="106.29" width="20.05" height="20.05" rx="2.86" ry="2.86" transform="translate(323.2 232.64) rotate(-180)"/><rect class="cls-55" x="101.68" y="106.29" width="20.05" height="20.05" rx="2.86" ry="2.86" transform="translate(223.41 232.64) rotate(-180)"/><rect class="cls-55" x="51.78" y="106.29" width="20.05" height="20.05" rx="2.86" ry="2.86" transform="translate(123.62 232.64) rotate(-180)"/><rect class="cls-55" x="1.89" y="106.29" width="20.05" height="20.05" rx="2.86" ry="2.86" transform="translate(23.83 232.64) rotate(-180)"/><rect class="cls-55" x="151.57" y="145.45" width="20.05" height="20.05" rx="2.86" ry="2.86" transform="translate(323.2 310.96) rotate(-180)"/><rect class="cls-55" x="101.68" y="145.45" width="20.05" height="20.05" rx="2.86" ry="2.86" transform="translate(223.41 310.96) rotate(-180)"/><rect class="cls-55" x="51.78" y="145.45" width="20.05" height="20.05" rx="2.86" ry="2.86" transform="translate(123.62 310.96) rotate(-180)"/><rect class="cls-55" x="1.89" y="145.45" width="20.05" height="20.05" rx="2.86" ry="2.86" transform="translate(23.83 310.96) rotate(-180)"/><rect class="cls-55" x="151.57" y="184.62" width="20.05" height="20.05" rx="2.86" ry="2.86" transform="translate(323.2 389.29) rotate(-180)"/><rect class="cls-55" x="101.68" y="184.62" width="20.05" height="20.05" rx="2.86" ry="2.86" transform="translate(223.41 389.29) rotate(-180)"/><rect class="cls-55" x="51.78" y="184.62" width="20.05" height="20.05" rx="2.86" ry="2.86" transform="translate(123.62 389.29) rotate(-180)"/><rect class="cls-55" x="1.89" y="184.62" width="20.05" height="20.05" rx="2.86" ry="2.86" transform="translate(23.83 389.29) rotate(-180)"/></g><g id="building"><polygon class="cls-41" points="466.83 149.22 465.11 129.16 389.99 85.79 137.38 85.79 169.74 148.99 466.83 149.22"/><polygon class="cls-31" points="96.98 148.91 169.74 148.99 169 130.88 137.38 85.79 97.66 131.97 96.98 148.91"/><rect class="cls-27" x="360.92" y="108.85" width="36.63" height="33.16" rx="2.97" ry="2.97" transform="translate(758.47 250.86) rotate(-180)"/><rect class="cls-27" x="220.93" y="110.49" width="36.63" height="33.16" rx="2.97" ry="2.97" transform="translate(478.48 254.14) rotate(-180)"/><rect class="cls-48" x="169.74" y="148.99" width="290.48" height="112.78" transform="translate(629.96 410.76) rotate(-180)"/><rect class="cls-43" x="96.98" y="148.91" width="72.76" height="112.85" transform="translate(266.72 410.68) rotate(-180)"/><rect class="cls-31" x="427.39" y="162.87" width="14.33" height="10.78" rx="1.17" ry="1.17" transform="translate(869.12 336.51) rotate(-180)"/><rect class="cls-31" x="427.42" y="175.79" width="14.33" height="10.78" rx="1.17" ry="1.17" transform="translate(869.17 362.35) rotate(-180)"/><rect class="cls-31" x="411.4" y="162.89" width="14.33" height="10.78" rx="1.17" ry="1.17" transform="translate(837.13 336.56) rotate(-180)"/><rect class="cls-31" x="411.42" y="175.81" width="14.33" height="10.78" rx="1.17" ry="1.17" transform="translate(837.17 362.4) rotate(-180)"/><rect class="cls-31" x="380.56" y="162.87" width="14.33" height="10.78" rx="1.17" ry="1.17" transform="translate(775.45 336.51) rotate(-180)"/><rect class="cls-31" x="380.58" y="175.79" width="14.33" height="10.78" rx="1.17" ry="1.17" transform="translate(775.5 362.35) rotate(-180)"/><rect class="cls-31" x="364.56" y="162.89" width="14.33" height="10.78" rx="1.17" ry="1.17" transform="translate(743.46 336.56) rotate(-180)"/><rect class="cls-31" x="364.59" y="175.81" width="14.33" height="10.78" rx="1.17" ry="1.17" transform="translate(743.5 362.4) rotate(-180)"/><rect class="cls-31" x="334.85" y="162.87" width="14.33" height="10.78" rx="1.17" ry="1.17" transform="translate(684.03 336.51) rotate(-180)"/><rect class="cls-31" x="334.87" y="175.79" width="14.33" height="10.78" rx="1.17" ry="1.17" transform="translate(684.08 362.35) rotate(-180)"/><rect class="cls-31" x="318.85" y="162.89" width="14.33" height="10.78" rx="1.17" ry="1.17" transform="translate(652.04 336.56) rotate(-180)"/><rect class="cls-31" x="318.88" y="175.81" width="14.33" height="10.78" rx="1.17" ry="1.17" transform="translate(652.09 362.4) rotate(-180)"/><rect class="cls-31" x="288.01" y="162.87" width="14.33" height="10.78" rx="1.17" ry="1.17" transform="translate(590.36 336.51) rotate(-180)"/><rect class="cls-31" x="288.04" y="175.79" width="14.33" height="10.78" rx="1.17" ry="1.17" transform="translate(590.41 362.35) rotate(-180)"/><rect class="cls-31" x="272.02" y="162.89" width="14.33" height="10.78" rx="1.17" ry="1.17" transform="translate(558.37 336.56) rotate(-180)"/><rect class="cls-31" x="272.04" y="175.81" width="14.33" height="10.78" rx="1.17" ry="1.17" transform="translate(558.42 362.4) rotate(-180)"/><rect class="cls-31" x="239.96" y="162.87" width="14.33" height="10.78" rx="1.17" ry="1.17" transform="translate(494.25 336.51) rotate(-180)"/><rect class="cls-31" x="239.98" y="175.79" width="14.33" height="10.78" rx="1.17" ry="1.17" transform="translate(494.29 362.35) rotate(-180)"/><rect class="cls-31" x="223.96" y="162.89" width="14.33" height="10.78" rx="1.17" ry="1.17" transform="translate(462.25 336.56) rotate(-180)"/><rect class="cls-31" x="223.98" y="175.81" width="14.33" height="10.78" rx="1.17" ry="1.17" transform="translate(462.3 362.4) rotate(-180)"/><rect class="cls-31" x="193.12" y="162.87" width="14.33" height="10.78" rx="1.17" ry="1.17" transform="translate(400.58 336.51) rotate(-180)"/><rect class="cls-31" x="193.15" y="175.79" width="14.33" height="10.78" rx="1.17" ry="1.17" transform="translate(400.62 362.35) rotate(-180)"/><rect class="cls-31" x="177.13" y="162.89" width="14.33" height="10.78" rx="1.17" ry="1.17" transform="translate(368.58 336.56) rotate(-180)"/><rect class="cls-31" x="177.15" y="175.81" width="14.33" height="10.78" rx="1.17" ry="1.17" transform="translate(368.63 362.4) rotate(-180)"/><rect class="cls-31" x="427.39" y="203.79" width="14.33" height="10.78" rx="1.17" ry="1.17" transform="translate(869.12 418.35) rotate(-180)"/><rect class="cls-31" x="427.42" y="216.71" width="14.33" height="10.78" rx="1.17" ry="1.17" transform="translate(869.17 444.19) rotate(-180)"/><rect class="cls-31" x="411.4" y="203.81" width="14.33" height="10.78" rx="1.17" ry="1.17" transform="translate(837.13 418.4) rotate(-180)"/><rect class="cls-31" x="411.42" y="216.73" width="14.33" height="10.78" rx="1.17" ry="1.17" transform="translate(837.17 444.24) rotate(-180)"/><rect class="cls-31" x="380.56" y="203.79" width="14.33" height="10.78" rx="1.17" ry="1.17" transform="translate(775.45 418.35) rotate(-180)"/><rect class="cls-31" x="380.58" y="216.71" width="14.33" height="10.78" rx="1.17" ry="1.17" transform="translate(775.5 444.19) rotate(-180)"/><rect class="cls-31" x="364.56" y="203.81" width="14.33" height="10.78" rx="1.17" ry="1.17" transform="translate(743.46 418.4) rotate(-180)"/><rect class="cls-31" x="364.59" y="216.73" width="14.33" height="10.78" rx="1.17" ry="1.17" transform="translate(743.5 444.24) rotate(-180)"/><rect class="cls-31" x="334.85" y="203.79" width="14.33" height="10.78" rx="1.17" ry="1.17" transform="translate(684.03 418.35) rotate(-180)"/><rect class="cls-31" x="334.87" y="216.71" width="14.33" height="10.78" rx="1.17" ry="1.17" transform="translate(684.08 444.19) rotate(-180)"/><rect class="cls-31" x="318.85" y="203.81" width="14.33" height="10.78" rx="1.17" ry="1.17" transform="translate(652.04 418.4) rotate(-180)"/><rect class="cls-31" x="318.88" y="216.73" width="14.33" height="10.78" rx="1.17" ry="1.17" transform="translate(652.09 444.24) rotate(-180)"/><rect class="cls-31" x="288.01" y="203.79" width="14.33" height="10.78" rx="1.17" ry="1.17" transform="translate(590.36 418.35) rotate(-180)"/><rect class="cls-31" x="288.04" y="216.71" width="14.33" height="10.78" rx="1.17" ry="1.17" transform="translate(590.41 444.19) rotate(-180)"/><rect class="cls-31" x="272.02" y="203.81" width="14.33" height="10.78" rx="1.17" ry="1.17" transform="translate(558.37 418.4) rotate(-180)"/><rect class="cls-31" x="272.04" y="216.73" width="14.33" height="10.78" rx="1.17" ry="1.17" transform="translate(558.42 444.24) rotate(-180)"/><rect class="cls-31" x="239.96" y="203.79" width="14.33" height="10.78" rx="1.17" ry="1.17" transform="translate(494.25 418.35) rotate(-180)"/><rect class="cls-31" x="239.98" y="216.71" width="14.33" height="10.78" rx="1.17" ry="1.17" transform="translate(494.29 444.19) rotate(-180)"/><rect class="cls-31" x="223.96" y="203.81" width="14.33" height="10.78" rx="1.17" ry="1.17" transform="translate(462.25 418.4) rotate(-180)"/><rect class="cls-31" x="223.98" y="216.73" width="14.33" height="10.78" rx="1.17" ry="1.17" transform="translate(462.3 444.24) rotate(-180)"/><rect class="cls-31" x="193.12" y="203.79" width="14.33" height="10.78" rx="1.17" ry="1.17" transform="translate(400.58 418.35) rotate(-180)"/><rect class="cls-31" x="193.15" y="216.71" width="14.33" height="10.78" rx="1.17" ry="1.17" transform="translate(400.62 444.19) rotate(-180)"/><rect class="cls-31" x="177.13" y="203.81" width="14.33" height="10.78" rx="1.17" ry="1.17" transform="translate(368.58 418.4) rotate(-180)"/><rect class="cls-31" x="177.15" y="216.73" width="14.33" height="10.78" rx="1.17" ry="1.17" transform="translate(368.63 444.24) rotate(-180)"/><rect class="cls-31" x="427.39" y="244.18" width="14.33" height="10.78" rx="1.17" ry="1.17" transform="translate(869.12 499.14) rotate(-180)"/><rect class="cls-31" x="427.42" y="257.1" width="14.33" height="10.78" rx="1.17" ry="1.17" transform="translate(869.17 524.98) rotate(-180)"/><rect class="cls-31" x="411.4" y="244.21" width="14.33" height="10.78" rx="1.17" ry="1.17" transform="translate(837.13 499.2) rotate(-180)"/><rect class="cls-31" x="411.42" y="257.13" width="14.33" height="10.78" rx="1.17" ry="1.17" transform="translate(837.17 525.04) rotate(-180)"/><rect class="cls-31" x="380.56" y="244.18" width="14.33" height="10.78" rx="1.17" ry="1.17" transform="translate(775.45 499.14) rotate(-180)"/><rect class="cls-31" x="380.58" y="257.1" width="14.33" height="10.78" rx="1.17" ry="1.17" transform="translate(775.5 524.98) rotate(-180)"/><rect class="cls-31" x="364.56" y="244.21" width="14.33" height="10.78" rx="1.17" ry="1.17" transform="translate(743.46 499.2) rotate(-180)"/><rect class="cls-31" x="364.59" y="257.13" width="14.33" height="10.78" rx="1.17" ry="1.17" transform="translate(743.5 525.04) rotate(-180)"/><rect class="cls-31" x="334.85" y="244.18" width="14.33" height="10.78" rx="1.17" ry="1.17" transform="translate(684.03 499.14) rotate(-180)"/><rect class="cls-31" x="334.87" y="257.1" width="14.33" height="10.78" rx="1.17" ry="1.17" transform="translate(684.08 524.98) rotate(-180)"/><rect class="cls-31" x="318.85" y="244.21" width="14.33" height="10.78" rx="1.17" ry="1.17" transform="translate(652.04 499.2) rotate(-180)"/><rect class="cls-31" x="318.88" y="257.13" width="14.33" height="10.78" rx="1.17" ry="1.17" transform="translate(652.09 525.04) rotate(-180)"/><rect class="cls-31" x="288.01" y="244.18" width="14.33" height="10.78" rx="1.17" ry="1.17" transform="translate(590.36 499.14) rotate(-180)"/><rect class="cls-31" x="288.04" y="257.1" width="14.33" height="10.78" rx="1.17" ry="1.17" transform="translate(590.41 524.98) rotate(-180)"/><rect class="cls-31" x="272.02" y="244.21" width="14.33" height="10.78" rx="1.17" ry="1.17" transform="translate(558.37 499.2) rotate(-180)"/><rect class="cls-31" x="272.04" y="257.13" width="14.33" height="10.78" rx="1.17" ry="1.17" transform="translate(558.42 525.04) rotate(-180)"/><rect class="cls-31" x="239.96" y="244.18" width="14.33" height="10.78" rx="1.17" ry="1.17" transform="translate(494.25 499.14) rotate(-180)"/><rect class="cls-31" x="239.98" y="257.1" width="14.33" height="10.78" rx="1.17" ry="1.17" transform="translate(494.29 524.98) rotate(-180)"/><rect class="cls-31" x="223.96" y="244.21" width="14.33" height="10.78" rx="1.17" ry="1.17" transform="translate(462.25 499.2) rotate(-180)"/><rect class="cls-31" x="223.98" y="257.13" width="14.33" height="10.78" rx="1.17" ry="1.17" transform="translate(462.3 525.04) rotate(-180)"/><rect class="cls-31" x="193.12" y="244.18" width="14.33" height="10.78" rx="1.17" ry="1.17" transform="translate(400.58 499.14) rotate(-180)"/><rect class="cls-31" x="193.15" y="257.1" width="14.33" height="10.78" rx="1.17" ry="1.17" transform="translate(400.62 524.98) rotate(-180)"/><rect class="cls-31" x="177.13" y="244.21" width="14.33" height="10.78" rx="1.17" ry="1.17" transform="translate(368.58 499.2) rotate(-180)"/><rect class="cls-31" x="177.15" y="257.13" width="14.33" height="10.78" rx="1.17" ry="1.17" transform="translate(368.63 525.04) rotate(-180)"/><path class="cls-30" d="M333.87,133.97l22.06,7.22c.87.28,1.9-1.05,1.87-2.4l-.85-30.35c-.04-1.27-1.01-1.68-1.83-.78l-21.21,23.13c-.94,1.02-.96,2.88-.03,3.18Z"/><path class="cls-30" d="M193.57,136.31l22.01,7.39c.87.29,1.91-1.04,1.89-2.39l-.62-30.36c-.03-1.27-.99-1.69-1.83-.79l-21.39,22.96c-.94,1.01-.98,2.87-.06,3.18Z"/></g><g id="stairs"><polygon class="cls-16" points="-.17 111.12 -.17 129.11 2 257.53 173.7 254.92 173.7 218.95 148.85 218.95 148.85 200.97 123.98 200.97 123.98 183 99.27 183 99.27 165.08 74.39 165.08 74.39 147.09 49.55 147.09 49.55 129.11 24.68 129.11 24.68 111.12 -.17 111.12"/><g class="cls-60"><path class="cls-50" d="M55.58,212.52c-9.86,0-17.88-8.02-17.88-17.88s8.02-17.88,17.88-17.88,17.87,8.02,17.87,17.88-8.02,17.88-17.87,17.88Z"/><path class="cls-34" d="M55.58,177.72c9.33,0,16.92,7.59,16.92,16.92s-7.59,16.92-16.92,16.92-16.92-7.59-16.92-16.92,7.59-16.92,16.92-16.92M55.58,175.81c-10.4,0-18.83,8.43-18.83,18.83s8.43,18.83,18.83,18.83,18.83-8.43,18.83-18.83-8.43-18.83-18.83-18.83h0Z"/><line class="cls-19" x1="55.28" y1="224.01" x2="55.28" y2="165.27"/><line class="cls-19" x1="84.95" y1="194.64" x2="26.21" y2="194.64"/></g></g><rect class="cls-53" x="3.84" y="271.6" width="324.09" height="121.15" transform="translate(331.76 664.35) rotate(-180)"/><path class="cls-58" d="M1.92,226.02l265.15-1.17,75.29,45.75c5.11,3.11,2.86,10.83-3.15,10.83H1.92v-55.41Z"/><rect class="cls-49" x="225.08" y="298.36" width="26.43" height="21.2" transform="translate(476.59 617.92) rotate(-180)"/><rect class="cls-49" x="288.41" y="298.36" width="17.76" height="17.76" transform="translate(594.57 614.48) rotate(-180)"/><rect class="cls-49" x="265.1" y="298.36" width="17.76" height="36.85" transform="translate(547.96 633.57) rotate(-180)"/><g class="cls-63"><path class="cls-45" d="M280.01,312.7c2.57,0,4.67,2.09,4.67,4.67v13.98c0,2.57-2.09,4.67-4.67,4.67h-12.49c-2.57,0-4.67-2.09-4.67-4.67v-13.98c0-2.57,2.09-4.67,4.67-4.67h12.49M280.01,311.06h-12.49c-3.49,0-6.31,2.83-6.31,6.31v13.98c0,3.48,2.83,6.31,6.31,6.31h12.49c3.49,0,6.31-2.83,6.31-6.31v-13.98c0-3.48-2.83-6.31-6.31-6.31h0Z"/><line class="cls-4" x1="283.46" y1="302.4" x2="283.46" y2="351.49"/><line class="cls-4" x1="279.58" y1="304.09" x2="279.58" y2="353.19"/><line class="cls-4" x1="275.69" y1="302.97" x2="275.69" y2="346.1"/><line class="cls-4" x1="287.7" y1="318.39" x2="259.84" y2="318.39"/><line class="cls-4" x1="271.81" y1="303.76" x2="271.81" y2="345.3"/><line class="cls-4" x1="264.04" y1="305.49" x2="264.04" y2="347.96"/><line class="cls-4" x1="267.92" y1="305.71" x2="267.92" y2="348.18"/></g><rect class="cls-49" x="165.72" y="298.36" width="26.43" height="21.2"/><rect class="cls-49" x="111.06" y="298.36" width="17.76" height="17.76"/><rect class="cls-49" x="134.37" y="298.36" width="17.76" height="36.85"/><g class="cls-62"><path class="cls-45" d="M149.7,312.7c2.57,0,4.67,2.09,4.67,4.67v13.98c0,2.57-2.09,4.67-4.67,4.67h-12.49c-2.57,0-4.67-2.09-4.67-4.67v-13.98c0-2.57,2.09-4.67,4.67-4.67h12.49M149.7,311.06h-12.49c-3.49,0-6.31,2.83-6.31,6.31v13.98c0,3.48,2.83,6.31,6.31,6.31h12.49c3.49,0,6.31-2.83,6.31-6.31v-13.98c0-3.48-2.83-6.31-6.31-6.31h0Z"/><line class="cls-4" x1="133.76" y1="302.4" x2="133.76" y2="351.49"/><line class="cls-4" x1="137.65" y1="304.09" x2="137.65" y2="353.19"/><line class="cls-4" x1="141.53" y1="302.97" x2="141.53" y2="346.1"/><line class="cls-4" x1="129.53" y1="318.39" x2="157.39" y2="318.39"/><line class="cls-4" x1="145.42" y1="303.76" x2="145.42" y2="345.3"/><line class="cls-4" x1="153.19" y1="305.49" x2="153.19" y2="347.96"/><line class="cls-4" x1="149.3" y1="305.71" x2="149.3" y2="348.18"/></g><rect class="cls-49" x="224.91" y="349.91" width="26.43" height="21.2" transform="translate(476.25 721.02) rotate(-180)"/><rect class="cls-49" x="288.23" y="349.91" width="17.76" height="17.76" transform="translate(594.23 717.59) rotate(-180)"/><rect class="cls-49" x="264.93" y="349.91" width="17.76" height="36.85" transform="translate(547.62 736.68) rotate(-180)"/><g class="cls-61"><path class="cls-45" d="M279.84,364.26c2.57,0,4.67,2.09,4.67,4.67v13.98c0,2.57-2.09,4.67-4.67,4.67h-12.49c-2.57,0-4.67-2.09-4.67-4.67v-13.98c0-2.57,2.09-4.67,4.67-4.67h12.49M279.84,362.62h-12.49c-3.49,0-6.31,2.83-6.31,6.31v13.98c0,3.48,2.83,6.31,6.31,6.31h12.49c3.49,0,6.31-2.83,6.31-6.31v-13.98c0-3.49-2.83-6.31-6.31-6.31h0Z"/><line class="cls-4" x1="283.29" y1="353.95" x2="283.29" y2="403.05"/><line class="cls-4" x1="279.41" y1="355.65" x2="279.41" y2="404.74"/><line class="cls-4" x1="275.52" y1="354.52" x2="275.52" y2="397.65"/><line class="cls-4" x1="287.53" y1="369.94" x2="259.67" y2="369.94"/><line class="cls-4" x1="271.64" y1="355.32" x2="271.64" y2="396.86"/><line class="cls-4" x1="263.87" y1="357.04" x2="263.87" y2="399.52"/><line class="cls-4" x1="267.75" y1="357.26" x2="267.75" y2="399.73"/></g><rect class="cls-49" x="165.55" y="349.91" width="26.43" height="21.2"/><rect class="cls-49" x="110.89" y="349.91" width="17.76" height="17.76"/><rect class="cls-49" x="134.2" y="349.91" width="17.76" height="36.85"/><g class="cls-66"><path class="cls-45" d="M149.53,364.26c2.57,0,4.67,2.09,4.67,4.67v13.98c0,2.57-2.09,4.67-4.67,4.67h-12.49c-2.57,0-4.67-2.09-4.67-4.67v-13.98c0-2.57,2.09-4.67,4.67-4.67h12.49M149.53,362.62h-12.49c-3.49,0-6.31,2.83-6.31,6.31v13.98c0,3.48,2.83,6.31,6.31,6.31h12.49c3.49,0,6.31-2.83,6.31-6.31v-13.98c0-3.49-2.83-6.31-6.31-6.31h0Z"/><line class="cls-4" x1="133.59" y1="353.95" x2="133.59" y2="403.05"/><line class="cls-4" x1="137.48" y1="355.65" x2="137.48" y2="404.74"/><line class="cls-4" x1="141.36" y1="354.52" x2="141.36" y2="397.65"/><line class="cls-4" x1="129.36" y1="369.94" x2="157.22" y2="369.94"/><line class="cls-4" x1="145.25" y1="355.32" x2="145.25" y2="396.86"/><line class="cls-4" x1="153.02" y1="357.04" x2="153.02" y2="399.52"/><line class="cls-4" x1="149.13" y1="357.26" x2="149.13" y2="399.73"/></g><rect class="cls-49" x="0" y="298.73" width="26.43" height="21.2" transform="translate(26.43 618.66) rotate(-180)"/><rect class="cls-49" x="63.32" y="298.73" width="17.76" height="17.76" transform="translate(144.41 615.22) rotate(-180)"/><rect class="cls-49" x="40.02" y="298.73" width="17.76" height="36.85" transform="translate(97.8 634.31) rotate(-180)"/><g class="cls-65"><path class="cls-45" d="M54.93,313.08c2.57,0,4.67,2.09,4.67,4.67v13.98c0,2.57-2.09,4.67-4.67,4.67h-12.49c-2.57,0-4.67-2.09-4.67-4.67v-13.98c0-2.57,2.09-4.67,4.67-4.67h12.49M54.93,311.43h-12.49c-3.48,0-6.31,2.83-6.31,6.31v13.98c0,3.49,2.83,6.31,6.31,6.31h12.49c3.49,0,6.31-2.83,6.31-6.31v-13.98c0-3.49-2.83-6.31-6.31-6.31h0Z"/><line class="cls-4" x1="58.38" y1="302.77" x2="58.38" y2="351.86"/><line class="cls-4" x1="54.5" y1="304.47" x2="54.5" y2="353.56"/><line class="cls-4" x1="50.61" y1="303.34" x2="50.61" y2="346.47"/><line class="cls-4" x1="62.62" y1="318.76" x2="34.76" y2="318.76"/><line class="cls-4" x1="46.73" y1="304.13" x2="46.73" y2="345.67"/><line class="cls-4" x1="38.96" y1="305.86" x2="38.96" y2="348.33"/><line class="cls-4" x1="42.84" y1="306.08" x2="42.84" y2="348.55"/></g><rect class="cls-49" x="-3.79" y="352.08" width="26.43" height="21.2" transform="translate(18.84 725.35) rotate(-180)"/><rect class="cls-49" x="59.53" y="352.08" width="17.76" height="17.76" transform="translate(136.82 721.91) rotate(-180)"/><rect class="cls-49" x="36.22" y="352.08" width="17.76" height="36.85" transform="translate(90.21 741) rotate(-180)"/><g class="cls-64"><path class="cls-45" d="M51.14,366.42c2.57,0,4.67,2.09,4.67,4.67v13.98c0,2.57-2.09,4.67-4.67,4.67h-12.49c-2.57,0-4.67-2.09-4.67-4.67v-13.98c0-2.57,2.09-4.67,4.67-4.67h12.49M51.14,364.78h-12.49c-3.49,0-6.31,2.83-6.31,6.31v13.98c0,3.49,2.83,6.31,6.31,6.31h12.49c3.49,0,6.31-2.83,6.31-6.31v-13.98c0-3.48-2.83-6.31-6.31-6.31h0Z"/><line class="cls-4" x1="54.59" y1="356.11" x2="54.59" y2="405.21"/><line class="cls-4" x1="50.7" y1="357.81" x2="50.7" y2="406.91"/><line class="cls-4" x1="46.82" y1="356.68" x2="46.82" y2="399.82"/><line class="cls-4" x1="58.82" y1="372.11" x2="30.96" y2="372.11"/><line class="cls-4" x1="42.93" y1="357.48" x2="42.93" y2="399.02"/><line class="cls-4" x1="35.16" y1="359.21" x2="35.16" y2="401.68"/><line class="cls-4" x1="39.05" y1="359.43" x2="39.05" y2="401.9"/></g><g id="apartment"><rect class="cls-54" x="623.57" y="291.03" width="226.3" height="184.05" transform="translate(1473.44 766.1) rotate(-180)"/><path class="cls-47" d="M616.86,275.54h247.65v34.13h-213.52c-18.84,0-34.13-15.29-34.13-34.13h0Z" transform="translate(1481.36 585.22) rotate(-180)"/><path class="cls-28" d="M786.64,318.26h22.71v22.14c0,4.24-3.45,7.69-7.69,7.69h-7.34c-4.24,0-7.69-3.45-7.69-7.69v-22.14h0Z" transform="translate(1595.99 666.35) rotate(-180)"/><path class="cls-45" d="M781.87,338.93h54.26v21.73c0,4.43-3.6,8.02-8.02,8.02h-38.21c-4.43,0-8.02-3.6-8.02-8.02v-21.73h0Z" transform="translate(1618 707.6) rotate(-180)"/><path class="cls-28" d="M700.9,318.26h22.71v22.14c0,4.24-3.45,7.69-7.69,7.69h-7.34c-4.24,0-7.69-3.45-7.69-7.69v-22.14h0Z" transform="translate(1424.51 666.35) rotate(-180)"/><path class="cls-45" d="M696.13,338.93h54.26v21.73c0,4.43-3.6,8.02-8.02,8.02h-38.21c-4.43,0-8.02-3.6-8.02-8.02v-21.73h0Z" transform="translate(1446.52 707.6) rotate(-180)"/><path class="cls-28" d="M615.16,318.26h22.71v22.14c0,4.24-3.45,7.69-7.69,7.69h-7.34c-4.24,0-7.69-3.45-7.69-7.69v-22.14h0Z" transform="translate(1253.04 666.35) rotate(-180)"/><path class="cls-45" d="M610.4,338.93h54.26v21.73c0,4.43-3.6,8.02-8.02,8.02h-38.21c-4.43,0-8.02-3.6-8.02-8.02v-21.73h0Z" transform="translate(1275.05 707.6) rotate(-180)"/><path class="cls-28" d="M786.64,374.21h22.71v22.14c0,4.24-3.45,7.69-7.69,7.69h-7.34c-4.24,0-7.69-3.45-7.69-7.69v-22.14h0Z" transform="translate(1595.99 778.25) rotate(-180)"/><path class="cls-45" d="M781.87,394.88h54.26v21.73c0,4.43-3.6,8.02-8.02,8.02h-38.21c-4.43,0-8.02-3.6-8.02-8.02v-21.73h0Z" transform="translate(1618 819.5) rotate(-180)"/><path class="cls-28" d="M700.9,374.21h22.71v22.14c0,4.24-3.45,7.69-7.69,7.69h-7.34c-4.24,0-7.69-3.45-7.69-7.69v-22.14h0Z" transform="translate(1424.51 778.25) rotate(-180)"/><path class="cls-45" d="M696.13,394.88h54.26v21.73c0,4.43-3.6,8.02-8.02,8.02h-38.21c-4.43,0-8.02-3.6-8.02-8.02v-21.73h0Z" transform="translate(1446.52 819.5) rotate(-180)"/><path class="cls-28" d="M615.16,374.21h22.71v22.14c0,4.24-3.45,7.69-7.69,7.69h-7.34c-4.24,0-7.69-3.45-7.69-7.69v-22.14h0Z" transform="translate(1253.04 778.25) rotate(-180)"/><path class="cls-45" d="M610.4,394.88h54.26v21.73c0,4.43-3.6,8.02-8.02,8.02h-38.21c-4.43,0-8.02-3.6-8.02-8.02v-21.73h0Z" transform="translate(1275.05 819.5) rotate(-180)"/><rect class="cls-51" x="610.4" y="432.55" width="239.47" height="42.52" transform="translate(1460.26 907.62) rotate(-180)"/><path class="cls-28" d="M734.83,432.55h47.04v19.79c0,12.55-10.19,22.73-22.73,22.73h-1.57c-12.55,0-22.73-10.19-22.73-22.73v-19.79h0Z" transform="translate(1516.7 907.62) rotate(-180)"/><path class="cls-36" d="M738.6,437.06h39.5v18.31c0,10.87-8.83,19.7-19.7,19.7h-.11c-10.87,0-19.7-8.83-19.7-19.7v-18.31h0Z" transform="translate(1516.7 912.14) rotate(-180)"/></g><g id="church"><g id="church-2"><rect class="cls-49" x="517.88" y="380.34" width="19.64" height="12.76" rx="4.95" ry="4.95" transform="translate(1055.41 773.44) rotate(180)"/><rect class="cls-49" x="520.39" y="314.76" width="19.64" height="12.76" rx="4.95" ry="4.95" transform="translate(1060.43 642.29) rotate(-180)"/><rect class="cls-40" x="370.24" y="298.33" width="192.24" height="105.87" transform="translate(932.71 702.54) rotate(-180)"/><rect class="cls-49" x="461.98" y="390.05" width="19.64" height="12.76" rx="4.95" ry="4.95" transform="translate(943.59 792.86) rotate(180)"/><rect class="cls-49" x="456.53" y="323.23" width="19.64" height="12.76" rx="4.95" ry="4.95" transform="translate(932.71 659.22) rotate(-180)"/><rect class="cls-49" x="493.33" y="349.55" width="19.64" height="12.76" rx="4.95" ry="4.95" transform="translate(1006.3 711.86) rotate(-180)"/><polygon class="cls-59" points="370.1 296.72 315.85 267.05 313.51 402.59 370.1 402.59 370.1 296.72"/><rect class="cls-49" x="424.44" y="360.65" width="19.64" height="12.76" rx="4.95" ry="4.95" transform="translate(868.52 734.07) rotate(180)"/><rect class="cls-49" x="382.96" y="386.66" width="19.64" height="12.76" rx="4.95" ry="4.95" transform="translate(785.56 786.09) rotate(180)"/><rect class="cls-49" x="375.86" y="312.98" width="19.64" height="12.76" rx="4.95" ry="4.95" transform="translate(771.36 638.72) rotate(-180)"/><rect class="cls-59" x="370.03" y="298.33" width="188.86" height="8.56" transform="translate(928.93 605.22) rotate(-180)"/><path class="cls-57" d="M390.65,313.77h23.19v25.34c0,6.4-5.19,11.59-11.59,11.59h0c-6.4,0-11.59-5.19-11.59-11.59v-25.34h0Z" transform="translate(804.49 664.47) rotate(180)"/><path class="cls-58" d="M390.65,313.77h19.8v24.42c0,5.46-4.44,9.9-9.9,9.9h0c-5.46,0-9.9-4.44-9.9-9.9v-24.42h0Z" transform="translate(801.1 661.85) rotate(-180)"/><path class="cls-57" d="M438.1,313.77h23.19v25.34c0,6.4-5.19,11.59-11.59,11.59h0c-6.4,0-11.59-5.19-11.59-11.59v-25.34h0Z" transform="translate(899.39 664.47) rotate(-180)"/><path class="cls-58" d="M438.1,313.77h19.8v24.42c0,5.46-4.44,9.9-9.9,9.9h0c-5.46,0-9.9-4.44-9.9-9.9v-24.42h0Z" transform="translate(896 661.85) rotate(-180)"/><path class="cls-57" d="M487.14,313.77h23.19v25.34c0,6.4-5.19,11.59-11.59,11.59h0c-6.4,0-11.59-5.19-11.59-11.59v-25.34h0Z" transform="translate(997.47 664.47) rotate(180)"/><path class="cls-58" d="M487.14,313.77h19.8v24.42c0,5.46-4.44,9.9-9.9,9.9h0c-5.46,0-9.9-4.44-9.9-9.9v-24.42h0Z" transform="translate(994.08 661.85) rotate(-180)"/><polygon class="cls-56" points="315.85 267.05 373.44 300.3 342.04 246.64 315.85 267.05"/><path class="cls-44" d="M612.42,300.3h-236.21c-8.57,0-16.45-4.69-20.54-12.22l-17.81-32.81c-2.11-3.89.71-8.62,5.13-8.61l232.74.3,36.68,53.34Z"/><path class="cls-42" d="M330.32,326.95l9.06,5.23c2.19,1.26,3.97-.09,3.97-3v-2.09c0-2.91-1.79-6.33-3.97-7.59l-9.06-5.23c-2.19-1.26-3.97.09-3.97,3v2.09c0,2.91,1.79,6.33,3.97,7.59Z"/><path class="cls-42" d="M351.55,306.69l9.06,5.23c2.19,1.26,3.97-.09,3.97-3v-2.09c0-2.91-1.79-6.33-3.97-7.59l-9.06-5.23c-2.19-1.26-3.97.09-3.97,3v2.09c0,2.91,1.79,6.33,3.97,7.59Z"/><path class="cls-42" d="M348.45,393.77l9.06,5.23c2.19,1.26,3.97-.09,3.97-3v-2.09c0-2.91-1.79-6.33-3.97-7.59l-9.06-5.23c-2.19-1.26-3.97.09-3.97,3v2.09c0,2.91,1.79,6.33,3.97,7.59Z"/><path class="cls-57" d="M327.45,295.88l-.94-.55c-3.35-1.93-6.06.12-6.06,4.58v67.58s13.06,7.54,13.06,7.54v-67.58c0-4.46-2.71-9.65-6.06-11.58Z"/><path class="cls-58" d="M328.33,296.39l-.81-.47c-2.86-1.65-5.17.1-5.17,3.91v63.39s11.15,6.44,11.15,6.44v-63.39c0-3.81-2.32-8.24-5.17-9.89Z"/><path class="cls-57" d="M349.68,307.26l-.94-.55c-3.35-1.93-6.06.12-6.06,4.58v67.58s13.06,7.54,13.06,7.54v-67.58c0-4.46-2.71-9.65-6.06-11.58Z"/><path class="cls-58" d="M350.56,307.77l-.81-.47c-2.86-1.65-5.17.1-5.17,3.91v63.39s11.15,6.44,11.15,6.44v-63.39c0-3.81-2.32-8.24-5.17-9.89Z"/><line class="cls-13" x1="370.24" y1="300.3" x2="370.1" y2="402.59"/><g id="Church"><path class="cls-26" d="M546.88,121.87h14.26c2.39,0,4.33,1.94,4.33,4.33v24.09s8.25,0,8.25,0v-24.09c0-2.39,1.94-4.33,4.33-4.33h14.26c2.39,0,4.33,1.94,4.33,4.33v24.09s8.25,0,8.25,0v-24.09c0-2.39,1.94-4.33,4.33-4.33h14.26c2.39,0,4.33,1.94,4.33,4.33v24.09s0,.4,0,.4v262.64h-85.28V150.69s0-.4,0-.4v-24.09c0-2.39,1.94-4.33,4.33-4.33Z"/><g id="clock"><circle class="cls-8" cx="586.52" cy="204.49" r="23.87"/><line class="cls-14" x1="586.52" y1="183.59" x2="586.52" y2="189.66"/><line class="cls-14" x1="596.97" y1="186.39" x2="593.94" y2="191.65"/><line class="cls-14" x1="604.62" y1="194.04" x2="599.36" y2="197.07"/><line class="cls-14" x1="607.42" y1="204.49" x2="601.35" y2="204.49"/><line class="cls-14" x1="604.62" y1="214.94" x2="599.36" y2="211.9"/><line class="cls-14" x1="596.97" y1="222.58" x2="593.94" y2="217.33"/><line class="cls-14" x1="586.52" y1="225.38" x2="586.52" y2="219.31"/><line class="cls-14" x1="576.07" y1="222.58" x2="579.11" y2="217.33"/><line class="cls-14" x1="568.43" y1="214.94" x2="573.68" y2="211.9"/><line class="cls-14" x1="565.63" y1="204.49" x2="571.7" y2="204.49"/><line class="cls-14" x1="568.43" y1="194.04" x2="573.68" y2="197.07"/><line class="cls-14" x1="576.07" y1="186.39" x2="579.11" y2="191.65"/></g><rect class="cls-39" x="579.72" y="249.71" width="32.7" height="19.98" rx="9.99" ry="9.99" transform="translate(1192.14 519.39) rotate(-180)"/><rect class="cls-39" x="544.21" y="157.63" width="32.7" height="19.98" rx="9.99" ry="9.99" transform="translate(1121.12 335.24) rotate(180)"/><rect class="cls-39" x="542.55" y="287.82" width="32.7" height="19.98" rx="9.99" ry="9.99" transform="translate(1117.79 595.61) rotate(180)"/><rect class="cls-39" x="594.05" y="319.62" width="32.7" height="19.98" rx="9.99" ry="9.99" transform="translate(1220.79 659.22) rotate(-180)"/></g></g><line class="cls-21" x1="586.52" y1="204.49" x2="577.59" y2="204.49"/><line class="cls-18" x1="586.52" y1="205.4" x2="586.52" y2="192.15"/></g><g id="building-2"><rect class="cls-52" x="402.93" y="458.16" width="303.52" height="78.41" transform="translate(1109.39 994.74) rotate(-180)"/><path class="cls-15" d="M500.19,465.43h54.27c1.93,0,3.67.78,4.93,2.04s2.04,3.01,2.04,4.93v39.8c0,3.85-3.12,6.97-6.97,6.97h-54.27c-3.85,0-6.97-3.12-6.97-6.97v-39.8c0-3.85,3.12-6.97,6.97-6.97Z"/><polyline class="cls-12" points="559.39 467.47 533.69 487.45 536.96 492.3 500.19 519.18"/><polyline class="cls-12" points="550.87 465.43 525.17 485.4 528.44 490.26 494.86 514.8"/><g id="b"><path class="cls-15" d="M627.88,465.43h54.27c1.93,0,3.67.78,4.93,2.04,1.26,1.26,2.04,3.01,2.04,4.93v39.8c0,3.85-3.12,6.97-6.97,6.97h-54.27c-3.85,0-6.97-3.12-6.97-6.97v-39.8c0-3.85,3.12-6.97,6.97-6.97Z"/><polyline class="cls-12" points="687.08 467.47 661.38 487.45 664.65 492.3 627.88 519.18"/><polyline class="cls-12" points="678.57 465.43 652.87 485.4 656.13 490.26 622.55 514.8"/><rect class="cls-35" x="400.55" y="475.07" width="54.96" height="61.5" transform="translate(856.06 1011.65) rotate(-180)"/><path class="cls-38" d="M368.18,393.79h325.7c3.67,0,7.09,1.83,9.13,4.88l44.54,66.55c4.88,7.3-.35,17.1-9.13,17.1h-325.7c-3.67,0-7.09-1.83-9.13-4.88l-44.54-66.55c-4.88-7.3.35-17.1,9.13-17.1Z"/></g></g><g id="school"><polygon class="cls-28" points="-9.6 366.37 -9.6 416.93 409.39 416.16 409.39 407.18 338.73 366.37 -9.6 366.37"/><polygon class="cls-24" points="-9.6 416.93 -9.6 567.49 409.39 568.44 409.39 416.16 -9.6 416.93"/><path class="cls-6" d="M50.76,346.64v221.7s124.04,0,124.04,0v-221.7s-52.91-36.77-52.91-36.77c-3.91-2.69-9.03-2.8-13.02-.26l-58.11,37.03Z"/><path class="cls-7" d="M50.76,348.19v-1.56s58.11-37.03,58.11-37.03c3.99-2.54,9.11-2.43,13.02.26l52.91,36.77v1.95s3.8-18.86,3.8-18.86c.13-3.54-1.66-6.89-4.7-8.66l-49.47-29.03c-5.57-3.28-12.47-3.28-18.04.03l-54.02,31.88c-2.91,1.72-4.68,4.83-4.7,8.21l3.09,16.03Z"/><path class="cls-11" d="M73.47,491.47c0-3.15,1.41-6.15,3.91-8.44,5.98-5.49,18.71-14.68,37.35-15.24,16.15-.48,29.18,9.76,35.19,15.52,2.34,2.24,3.6,5.14,3.6,8.15v59.5h-80.05v-59.49Z"/><path class="cls-5" d="M123.96,375.04s0-.02,0-.03v-.63h.03c.35-8.89,7.66-15.99,16.66-15.99s16.31,7.1,16.66,15.99h.03v.59s0,.05,0,.07c0,.02,0,.05,0,.07v45.84h-33.38v-45.88s0-.02,0-.03Z"/><path class="cls-5" d="M66.18,374.62s0-.02,0-.03v-.63h.03c.35-8.89,7.66-15.99,16.66-15.99,9,0,16.31,7.1,16.66,15.99h.03v.59s0,.05,0,.07,0,.05,0,.07v45.84h-33.38v-45.88s0-.02,0-.03Z"/><path class="cls-28" d="M104.42,299.99h22.12s0-35.4,0-35.4l-5.66-17.65c-1.57-4.9-8.46-5-10.18-.15l-6.28,17.79v35.4Z"/><path class="cls-53" d="M365.52,432.74h15.98v17.43c0,4.41-3.58,7.99-7.99,7.99h0c-4.41,0-7.99-3.58-7.99-7.99v-17.43h0Z" transform="translate(747.03 890.9) rotate(-180)"/><path class="cls-53" d="M306.17,432.74h15.98v17.43c0,4.41-3.58,7.99-7.99,7.99h0c-4.41,0-7.99-3.58-7.99-7.99v-17.43h0Z" transform="translate(628.31 890.9) rotate(180)"/><path class="cls-53" d="M246.81,432.74h15.98v17.43c0,4.41-3.58,7.99-7.99,7.99h0c-4.41,0-7.99-3.58-7.99-7.99v-17.43h0Z" transform="translate(509.59 890.9) rotate(180)"/><path class="cls-53" d="M187.45,432.74h15.98v17.43c0,4.41-3.58,7.99-7.99,7.99h0c-4.41,0-7.99-3.58-7.99-7.99v-17.43h0Z" transform="translate(390.87 890.9) rotate(-180)"/><path class="cls-53" d="M364.95,498.51h15.98v17.43c0,4.41-3.58,7.99-7.99,7.99h0c-4.41,0-7.99-3.58-7.99-7.99v-17.43h0Z" transform="translate(745.88 1022.45) rotate(-180)"/><path class="cls-53" d="M305.59,498.51h15.98v17.43c0,4.41-3.58,7.99-7.99,7.99h0c-4.41,0-7.99-3.58-7.99-7.99v-17.43h0Z" transform="translate(627.16 1022.45) rotate(-180)"/><path class="cls-53" d="M246.23,498.51h15.98v17.43c0,4.41-3.58,7.99-7.99,7.99h0c-4.41,0-7.99-3.58-7.99-7.99v-17.43h0Z" transform="translate(508.45 1022.45) rotate(-180)"/><path class="cls-53" d="M186.88,498.51h15.98v17.43c0,4.41-3.58,7.99-7.99,7.99h0c-4.41,0-7.99-3.58-7.99-7.99v-17.43h0Z" transform="translate(389.73 1022.45) rotate(-180)"/><path class="cls-53" d="M9.4,498.51h15.98v17.43c0,4.41-3.58,7.99-7.99,7.99h0c-4.41,0-7.99-3.58-7.99-7.99v-17.43h0Z" transform="translate(34.78 1022.45) rotate(180)"/><path class="cls-53" d="M9.2,433.02h15.98v17.43c0,4.41-3.58,7.99-7.99,7.99h0c-4.41,0-7.99-3.58-7.99-7.99v-17.43h0Z" transform="translate(34.38 891.46) rotate(-180)"/><rect class="cls-6" x="44.28" y="428.96" width="137.78" height="8.65" transform="translate(226.34 866.57) rotate(-180)"/><rect class="cls-10" x="49.79" y="550.04" width="124.08" height="8.47" transform="translate(223.65 1108.55) rotate(-180)"/><rect class="cls-3" x="41.31" y="558.85" width="140.98" height="8.47" transform="translate(223.6 1126.16) rotate(-180)"/><rect class="cls-20" x="32.26" y="567.65" width="159.18" height="8.47" transform="translate(223.7 1143.78) rotate(-180)"/><rect class="cls-17" x="21.24" y="576.46" width="181.08" height="8.47" transform="translate(223.55 1161.39) rotate(-180)"/></g><rect class="cls-41" x="4.97" y="162.99" width="18.77" height="10.54" rx="3.6" ry="3.6"/><rect class="cls-41" x="94.09" y="187.98" width="18.77" height="10.54" rx="3.6" ry="3.6"/><rect class="cls-41" x="26.96" y="137.17" width="18.77" height="10.54" rx="3.6" ry="3.6"/><rect class="cls-41" x="23.74" y="213.47" width="18.77" height="10.54" rx="3.6" ry="3.6"/><rect class="cls-41" x="126.54" y="204.67" width="18.77" height="10.54" rx="3.6" ry="3.6"/></g><ellipse class="cls-33" cx="219.12" cy="562.36" rx="15.69" ry="22.71"/><ellipse class="cls-46" cx="249.62" cy="563.08" rx="15.69" ry="22.71"/><ellipse class="cls-46" cx="310.63" cy="563.81" rx="15.69" ry="22.71"/><ellipse class="cls-33" cx="341.13" cy="563.81" rx="15.69" ry="22.71"/><ellipse class="cls-33" cx="280.12" cy="562.36" rx="15.69" ry="22.71"/><ellipse class="cls-33" cx="280.79" cy="563.08" rx="15.69" ry="22.71"/><ellipse class="cls-46" cx="311.3" cy="563.81" rx="15.69" ry="22.71"/><ellipse class="cls-46" cx="372.31" cy="564.53" rx="15.69" ry="22.71"/><ellipse class="cls-33" cx="402.81" cy="564.53" rx="15.69" ry="22.71"/><ellipse class="cls-33" cx="341.8" cy="563.08" rx="15.69" ry="22.71"/><ellipse class="cls-33" cx="10.73" cy="559.24" rx="15.69" ry="22.71"/></g></g></svg>