<svg width="150" height="150" viewBox="0 0 150 150" fill="none" xmlns="http://www.w3.org/2000/svg">
<path fill-rule="evenodd" clip-rule="evenodd" d="M10 0C4.47715 0 0 4.47715 0 10V140C0 145.523 4.47715 150 10 150H78.7785V104.397H68V77.3972H78.7785V65C78.7785 48.1553 92.4338 34.5 109.278 34.5H114H127.5V61.5H114H109.278C107.345 61.5 105.778 63.067 105.778 65V77.3972H109.557H123.057V104.397H109.557H105.778V150H140C145.523 150 150 145.523 150 140V10C150 4.47715 145.523 0 140 0H10Z" fill="#040303"/>
</svg>
