<?xml version="1.0" encoding="UTF-8"?><svg id="Layer_2" xmlns="http://www.w3.org/2000/svg" width="1919.92" height="1083.34" xmlns:xlink="http://www.w3.org/1999/xlink" viewBox="0 0 1919.92 1083.34"><defs><style>.cls-1{stroke-width:115.49px;}.cls-1,.cls-2,.cls-3,.cls-4,.cls-5,.cls-6,.cls-7,.cls-8,.cls-9,.cls-10,.cls-11,.cls-12,.cls-13,.cls-14,.cls-15,.cls-16,.cls-17,.cls-18,.cls-19,.cls-20,.cls-21,.cls-22,.cls-23,.cls-24,.cls-25,.cls-26,.cls-27,.cls-28,.cls-29,.cls-30,.cls-31,.cls-32,.cls-33,.cls-34,.cls-35,.cls-36,.cls-37,.cls-38,.cls-39,.cls-40,.cls-41,.cls-42,.cls-43,.cls-44,.cls-45,.cls-46,.cls-47,.cls-48{stroke-miterlimit:10;}.cls-1,.cls-3,.cls-4,.cls-5,.cls-6,.cls-49,.cls-8,.cls-50,.cls-10,.cls-11,.cls-16,.cls-17,.cls-19,.cls-20,.cls-25,.cls-27,.cls-28,.cls-30,.cls-31,.cls-32,.cls-33,.cls-39,.cls-42,.cls-43,.cls-44,.cls-46,.cls-47{fill:none;}.cls-1,.cls-3,.cls-5,.cls-6,.cls-17,.cls-30,.cls-32{stroke-linecap:round;}.cls-1,.cls-30{stroke:#ffffd4;}.cls-2{fill:url(#linear-gradient-7);}.cls-2,.cls-22,.cls-46{stroke:#1d261c;stroke-width:5.38px;}.cls-3{stroke-dasharray:0 0 35.59 35.59;}.cls-3,.cls-5,.cls-6,.cls-35,.cls-38{stroke-width:2.97px;}.cls-3,.cls-38{stroke:#ffd483;}.cls-4{stroke-width:7.47px;}.cls-4,.cls-8,.cls-11,.cls-14,.cls-20,.cls-25,.cls-37,.cls-43,.cls-48{stroke:#513e36;}.cls-5{stroke:#e99d00;}.cls-6,.cls-7,.cls-35{stroke:#f27c52;}.cls-7{stroke-width:2.55px;}.cls-7,.cls-18,.cls-36{fill:#d4fffd;}.cls-49{stroke-linejoin:round;}.cls-49,.cls-31,.cls-39{stroke:#fef5a4;}.cls-49,.cls-39{stroke-width:34.06px;}.cls-8{stroke-width:22.88px;}.cls-9{stroke-width:2.93px;}.cls-9,.cls-13,.cls-21,.cls-41,.cls-51,.cls-45{fill:#fcfaf2;}.cls-9,.cls-13,.cls-21,.cls-41,.cls-45{stroke:#ffd2d2;}.cls-52{clip-path:url(#clippath);}.cls-50,.cls-53,.cls-54,.cls-55,.cls-56,.cls-57,.cls-58,.cls-59,.cls-60,.cls-61,.cls-62,.cls-63,.cls-64,.cls-65,.cls-66,.cls-67,.cls-68,.cls-69,.cls-70,.cls-71,.cls-72,.cls-73,.cls-74,.cls-75,.cls-76,.cls-77,.cls-78,.cls-79,.cls-80,.cls-81,.cls-82,.cls-83,.cls-84,.cls-85,.cls-86,.cls-87,.cls-88,.cls-89,.cls-90,.cls-91,.cls-92,.cls-93,.cls-94,.cls-95,.cls-96,.cls-97,.cls-98,.cls-99,.cls-100,.cls-101,.cls-102,.cls-103,.cls-104,.cls-105,.cls-106,.cls-107,.cls-108,.cls-109,.cls-110,.cls-111,.cls-112,.cls-113,.cls-114,.cls-115,.cls-116,.cls-117,.cls-118,.cls-119,.cls-51,.cls-120,.cls-121,.cls-122,.cls-123,.cls-124,.cls-125,.cls-126,.cls-127,.cls-128,.cls-129,.cls-130,.cls-131,.cls-132,.cls-133,.cls-134,.cls-135,.cls-136{stroke-width:0px;}.cls-10{stroke:#83bf80;stroke-width:1.64px;}.cls-11{stroke-width:15.85px;}.cls-12,.cls-13,.cls-14,.cls-15,.cls-27,.cls-28{stroke-width:2.64px;}.cls-12,.cls-23{stroke:#c0d3b8;}.cls-12,.cls-23,.cls-121{fill:#ffd483;}.cls-53{fill:url(#linear-gradient);}.cls-137,.cls-22,.cls-126{fill:#00b169;}.cls-138,.cls-99{fill:#da494a;}.cls-14,.cls-37,.cls-68,.cls-48{fill:#513e36;}.cls-15{fill:#f9ed7d;stroke:#eda126;}.cls-54{fill:url(#linear-gradient-11);}.cls-55{fill:url(#linear-gradient-12);}.cls-56{fill:url(#linear-gradient-10);}.cls-16{stroke:#6d2815;stroke-width:2.47px;}.cls-17{stroke:#261109;stroke-width:7px;}.cls-18{stroke-width:1.58px;}.cls-18,.cls-36{stroke:#600e0e;}.cls-19{stroke:#da494a;stroke-width:2.49px;}.cls-20{stroke-width:19.16px;}.cls-21{stroke-width:2.75px;}.cls-23{stroke-width:2.45px;}.cls-139{clip-path:url(#clippath-1);}.cls-140{clip-path:url(#clippath-4);}.cls-141{clip-path:url(#clippath-3);}.cls-142{clip-path:url(#clippath-2);}.cls-143{clip-path:url(#clippath-7);}.cls-144{clip-path:url(#clippath-8);}.cls-145{clip-path:url(#clippath-6);}.cls-146{clip-path:url(#clippath-5);}.cls-147{clip-path:url(#clippath-9);}.cls-24{fill:#94cfff;stroke:#aa5600;stroke-width:2.75px;}.cls-25{stroke-width:6.73px;}.cls-26,.cls-29{stroke:#fff;stroke-width:4.45px;}.cls-26,.cls-120{fill:#fef5a4;}.cls-148{clip-path:url(#clippath-14);}.cls-149{clip-path:url(#clippath-13);}.cls-150{clip-path:url(#clippath-12);}.cls-151{clip-path:url(#clippath-10);}.cls-152{clip-path:url(#clippath-15);}.cls-153{clip-path:url(#clippath-17);}.cls-154{clip-path:url(#clippath-16);}.cls-155{clip-path:url(#clippath-11);}.cls-27{stroke:#2a72ff;}.cls-28{stroke:#7f530d;}.cls-29,.cls-100{fill:#abd6f2;}.cls-30{stroke-width:67.54px;}.cls-31{stroke-width:35.15px;}.cls-32{stroke:#1c0c04;stroke-width:5.93px;}.cls-33{stroke:#d15534;stroke-width:2.91px;}.cls-34{stroke-width:2.26px;}.cls-34,.cls-40{fill:#317a36;stroke:#ffebca;}.cls-35{fill:url(#linear-gradient-4);}.cls-36{stroke-width:2.26px;}.cls-37{stroke-width:4.71px;}.cls-57{fill:url(#linear-gradient-2);}.cls-58{fill:url(#linear-gradient-3);}.cls-59{fill:url(#linear-gradient-8);}.cls-60{fill:url(#linear-gradient-9);}.cls-61{fill:url(#linear-gradient-5);}.cls-62{fill:url(#linear-gradient-6);}.cls-38,.cls-76{fill:#89272e;}.cls-40{stroke-width:3.02px;}.cls-41{stroke-width:3.32px;}.cls-42{stroke-width:1.32px;}.cls-42,.cls-47{stroke:#4c3f2c;}.cls-43{stroke-width:1.91px;}.cls-44{stroke:#280000;stroke-width:1.92px;}.cls-63{fill:#f8feff;}.cls-64{fill:#f9f0dc;}.cls-65{fill:#5bc476;}.cls-66{fill:#5ebf5e;}.cls-67{fill:#79c973;}.cls-69{fill:#280000;}.cls-70{fill:#4c934c;}.cls-71{fill:#492519;}.cls-72{fill:#492522;}.cls-73{fill:#478e4b;}.cls-74{fill:#54ba7d;}.cls-75{fill:#63935f;}.cls-77{fill:#94ff98;}.cls-78{fill:#724144;}.cls-79{fill:#7fbcbf;}.cls-80{fill:#3a0d0b;}.cls-81{fill:#56a55c;}.cls-82{fill:#3f0d00;}.cls-83{fill:#3f1400;}.cls-84{fill:#1a8124;}.cls-85{fill:#3f2c00;}.cls-86{fill:#42ea75;}.cls-87{fill:#0f2a00;}.cls-88{fill:#0f0015;}.cls-89{fill:#407f4c;}.cls-90{fill:#427f3d;}.cls-91{fill:#417243;}.cls-92{fill:#082b24;}.cls-93{fill:#190e0d;}.cls-94{fill:#24601f;}.cls-95{fill:#cce5a8;}.cls-96{fill:#df4738;}.cls-97{fill:#ddefda;}.cls-98{fill:#cbe2ef;}.cls-101{fill:#c6a96f;}.cls-102{fill:#d4ffed;}.cls-103{fill:#bc9f26;}.cls-104{fill:#c1512f;}.cls-105{fill:#a86127;}.cls-106{fill:#aa6000;}.cls-107{fill:#a40;}.cls-108{fill:#8ed186;}.cls-109{fill:#b6ddda;}.cls-110{fill:#9ece97;}.cls-111{fill:#83bf80;}.cls-112{fill:#872d2d;}.cls-113{fill:#ff8946;}.cls-114{fill:#82262a;}.cls-115{fill:#64bc69;}.cls-116{fill:#7f0020;}.cls-117{fill:#fff9bd;}.cls-118{fill:#ffef38;}.cls-119{fill:#e2eee1;}.cls-122{fill:#ffce8d;}.cls-123{fill:#f27c52;}.cls-124{fill:#fcfcfc;}.cls-125{fill:#002f55;}.cls-127{fill:#69a563;}.cls-128{fill:#041105;}.cls-129{fill:#032a00;}.cls-130{fill:#005546;}.cls-131{fill:#00553c;}.cls-132{fill:#00467f;}.cls-133{fill:#00707f;}.cls-134{fill:#00142a;}.cls-135{fill:#68b0e4;}.cls-136{fill:#007f65;}.cls-45{stroke-width:3.11px;}.cls-47{stroke-width:1.98px;}.cls-48{stroke-width:3.12px;}</style><clipPath id="clippath"><rect class="cls-50" width="1919.92" height="1083.34"/></clipPath><linearGradient id="linear-gradient" x1="902.08" y1="445.75" x2="924.05" y2="-131.96" gradientUnits="userSpaceOnUse"><stop offset="0" stop-color="#e2eee1"/><stop offset=".17" stop-color="#ddebe1"/><stop offset=".34" stop-color="#d0e5e1"/><stop offset=".52" stop-color="#bbdae1"/><stop offset=".7" stop-color="#9dcbe2"/><stop offset=".89" stop-color="#78b8e3"/><stop offset=".96" stop-color="#68b0e4"/><stop offset="1" stop-color="#63abb3"/></linearGradient><linearGradient id="linear-gradient-2" x1="929.67" y1="1126.83" x2="977.79" y2="-138.57" gradientUnits="userSpaceOnUse"><stop offset="0" stop-color="#83bf80"/><stop offset=".19" stop-color="#87c180"/><stop offset=".38" stop-color="#94c983"/><stop offset=".59" stop-color="#a9d687"/><stop offset=".79" stop-color="#c6e88c"/><stop offset="1" stop-color="#ecff94"/></linearGradient><linearGradient id="linear-gradient-3" x1="939.57" y1="1193.9" x2="978.66" y2="165.9" gradientUnits="userSpaceOnUse"><stop offset="0" stop-color="#da494a"/><stop offset=".15" stop-color="#dc4d4a"/><stop offset=".3" stop-color="#e25a4c"/><stop offset=".46" stop-color="#eb6f4f"/><stop offset=".54" stop-color="#f27c52"/><stop offset="1" stop-color="#da494a"/></linearGradient><clipPath id="clippath-1"><polygon class="cls-50" points="1780.21 382.46 1922.06 301.86 1870.29 194.29 1727.18 273.46 1780.21 382.46"/></clipPath><clipPath id="clippath-2"><polygon class="cls-50" points="1775.64 571.65 1749.6 548.66 1722.62 598.84 1722.39 721.85 1776.58 692.39 1775.64 571.65"/></clipPath><clipPath id="clippath-3"><path class="cls-99" d="M1336.04,689.69l-29.79-17.2v-43.33s0,0,0,0c7.36-4.5,22.43,4.21,29.79,17.2h0v43.33Z"/></clipPath><clipPath id="clippath-4"><path class="cls-50" d="M1505.58,579.96c18.88,0,34.4-15.11,34.66-33.99.01-1,.02-2,.02-3.01,0-47.5-15.53-86.01-34.68-86.01s-34.68,38.51-34.68,86.01c0,1.01,0,2.01.02,3.01.26,18.88,15.78,33.99,34.66,33.99h0Z"/></clipPath><linearGradient id="linear-gradient-4" x1="724.16" y1="309.55" x2="724.16" y2="78.04" gradientTransform="translate(1448.33 387.59) rotate(180)" gradientUnits="userSpaceOnUse"><stop offset="0" stop-color="#ffd483"/><stop offset="1" stop-color="#fef5a4"/></linearGradient><clipPath id="clippath-5"><circle class="cls-50" cx="54.21" cy="167.24" r="18.83"/></clipPath><clipPath id="clippath-6"><rect class="cls-50" x="260.05" y="283.75" width="25.11" height="26.61" rx="6.31" ry="6.31" transform="translate(545.22 594.1) rotate(-180)"/></clipPath><clipPath id="clippath-7"><rect class="cls-50" x="129.32" y="283.75" width="25.11" height="26.61" rx="6.31" ry="6.31"/></clipPath><clipPath id="clippath-8"><rect class="cls-50" x="259.88" y="335.3" width="25.11" height="26.61" rx="6.31" ry="6.31" transform="translate(544.88 697.21) rotate(-180)"/></clipPath><clipPath id="clippath-9"><rect class="cls-50" x="129.15" y="335.3" width="25.11" height="26.61" rx="6.31" ry="6.31"/></clipPath><clipPath id="clippath-10"><rect class="cls-50" x="34.97" y="284.12" width="25.11" height="26.61" rx="6.31" ry="6.31" transform="translate(95.05 594.85) rotate(-180)"/></clipPath><clipPath id="clippath-11"><rect class="cls-50" x="31.18" y="337.47" width="25.11" height="26.61" rx="6.31" ry="6.31" transform="translate(87.46 701.54) rotate(-180)"/></clipPath><clipPath id="clippath-12"><path class="cls-126" d="M561.28,903.29c18.88,0,34.4-15.11,34.66-33.99.01-1,.02-2,.02-3.01,0-47.5-15.53-86.01-34.68-86.01s-34.68,38.51-34.68,86.01c0,1.01,0,2.01.02,3.01.26,18.88,15.78,33.99,34.66,33.99h0Z"/></clipPath><clipPath id="clippath-13"><path class="cls-50" d="M1064.36,644.38c10.21,0,18.85-7.57,20.16-17.7,1.75-13.59,2.7-28.07,2.7-43.1,0-78.08-25.52-141.38-57.01-141.38s-57.01,63.3-57.01,141.38c0,15.03.95,29.52,2.7,43.1,1.31,10.13,9.94,17.7,20.16,17.7h68.3Z"/></clipPath><linearGradient id="linear-gradient-5" x1="799.33" y1="662.09" x2="805.23" y2="506.79" gradientUnits="userSpaceOnUse"><stop offset="0" stop-color="#00b667"/><stop offset=".12" stop-color="#04b767"/><stop offset=".25" stop-color="#11bb6a"/><stop offset=".38" stop-color="#26c16e"/><stop offset=".52" stop-color="#44cb73"/><stop offset=".66" stop-color="#6ad67b"/><stop offset=".8" stop-color="#99e584"/><stop offset=".94" stop-color="#d0f68e"/><stop offset="1" stop-color="#ecff94"/></linearGradient><linearGradient id="linear-gradient-6" x1="1004.63" y1="790.32" x2="1004.63" y2="636.27" xlink:href="#linear-gradient-2"/><linearGradient id="linear-gradient-7" x1="1009.53" y1="830.79" x2="1009.53" y2="769.23" xlink:href="#linear-gradient-2"/><linearGradient id="linear-gradient-8" x1="446.63" y1="729.74" x2="446.63" y2="578.19" gradientUnits="userSpaceOnUse"><stop offset="0" stop-color="#00ad8d"/><stop offset=".22" stop-color="#3bbc90"/><stop offset=".76" stop-color="#c7e298"/><stop offset="1" stop-color="#fff19c"/></linearGradient><linearGradient id="linear-gradient-9" x1="902.06" y1="747.16" x2="902.06" y2="593.11" xlink:href="#linear-gradient-2"/><clipPath id="clippath-14"><path class="cls-126" d="M636.5,976.75c18.88,0,34.4-15.11,34.66-33.99.01-1,.02-2,.02-3.01,0-47.5-15.53-86.01-34.68-86.01s-34.68,38.51-34.68,86.01c0,1.01,0,2.01.02,3.01.26,18.88,15.78,33.99,34.66,33.99h0Z"/></clipPath><linearGradient id="linear-gradient-10" x1="-11914.08" y1="928.79" x2="-11914.08" y2="726.6" gradientTransform="translate(-11538.23) rotate(-180) scale(1 -1)" gradientUnits="userSpaceOnUse"><stop offset="0" stop-color="#007f48"/><stop offset="1" stop-color="#15ffa0"/></linearGradient><linearGradient id="linear-gradient-11" x1="-11850.61" y1="862.22" x2="-11850.61" y2="767.02" gradientTransform="translate(-11538.23) rotate(-180) scale(1 -1)" gradientUnits="userSpaceOnUse"><stop offset="0" stop-color="#007f6b"/><stop offset="1" stop-color="#94ffa1"/></linearGradient><linearGradient id="linear-gradient-12" x1="-11954.84" y1="942.92" x2="-11954.84" y2="819.91" gradientTransform="translate(-11538.23) rotate(-180) scale(1 -1)" gradientUnits="userSpaceOnUse"><stop offset="0" stop-color="#006a30"/><stop offset="1" stop-color="#b1ff94"/></linearGradient><clipPath id="clippath-15"><path class="cls-126" d="M781.02,971.48c18.88,0,34.4-15.11,34.66-33.99.01-1,.02-2,.02-3.01,0-47.5-15.53-86.01-34.68-86.01s-34.68,38.51-34.68,86.01c0,1.01,0,2.01.02,3.01.26,18.88,15.78,33.99,34.66,33.99h0Z"/></clipPath><clipPath id="clippath-16"><path class="cls-126" d="M854.81,937.44c18.88,0,34.4-15.11,34.66-33.99.01-1,.02-2,.02-3.01,0-47.5-15.53-86.01-34.68-86.01s-34.68,38.51-34.68,86.01c0,1.01,0,2.01.02,3.01.26,18.88,15.78,33.99,34.66,33.99h0Z"/></clipPath><clipPath id="clippath-17"><path class="cls-126" d="M948.82,876.49c18.88,0,34.4-15.11,34.66-33.99.01-1,.02-2,.02-3.01,0-47.5-15.53-86.01-34.68-86.01s-34.68,38.51-34.68,86.01c0,1.01,0,2.01.02,3.01.26,18.88,15.78,33.99,34.66,33.99h0Z"/></clipPath></defs><g id="city"><g class="cls-52"><rect class="cls-53" x="-220.36" y="-26.39" width="2268.8" height="315.22"/><path class="cls-57" d="M-101.75,96.17S120.96-149.93,272.61-162.61c240.28-20.1,283.75,193.12,390.67,205.35,106.93,12.23,247.7-53.76,429.92-42.15,182.22,11.61,412.5,268.7,603.5,278.9,191,10.2,228.32-82.03,340.18-114.74l-54.49,918.6-2021.32,6.66L-101.75,96.17Z"/><g id="stig"><g id="stig-2"><path class="cls-39" d="M391.41,509.17s297.69,130.57,176.16,256.8c-174.43,181.19,55.11,349.43,288.88,239.6,85.2-40.03,239.31-171.98,351.99-190.83,27.7-4.63,52.82-2.58,73.66,9.08,122.19,68.36,169.44,155.77,218.44,144.53,49-11.24,396.37-209.67,396.37-209.67,0,0,32.39-22.7-1.84-42.46-34.23-19.76-421.45-242.8-421.45-242.8,0,0-35.1-9.19-66.79,7.18-31.69,16.37-338.47,196.95-338.47,196.95,0,0-36.19,15.55-2.43,37.46,33.76,21.91,91.86,55.46,102.22,61.43,34.23,19.76,1.83,34.72-25.03,58.74"/><path class="cls-39" d="M110.4,573.97c5.82.13-75.64,251.81,121.86,258.36,203.84,6.76,181.78-42.18,272.82,73.69"/><path class="cls-31" d="M192.31,1118.2s-92.15-207.3,155.77-287.35"/><path class="cls-39" d="M-51.87,826.75s114.69,109.76,200.83-17.7"/><path class="cls-39" d="M442.6,838.06s32.99.49,124.97-72.09"/><path class="cls-39" d="M480.1,832.02c11.84,17.07,15.35,31.59,15.35,31.59"/><path class="cls-49" d="M99.79,704.56s-1.2-88.86,94.27-135.2c-46.65,4.61-163.18,0-163.18,0,0,0,62.27,63.74,68.91,135.2Z"/><line class="cls-39" x1="110.94" y1="622.79" x2="147.41" y2="573.97"/><line class="cls-49" x1="68.88" y1="584.06" x2="92.18" y2="613.08"/><line class="cls-39" x1="1272.42" y1="819.35" x2="1168.14" y2="776.44"/></g><path class="cls-39" d="M402.37,827.75s62.58,3.1,137.96-38.52"/><path class="cls-39" d="M286.45,856.73s173.48-79.67,226.43,75.99"/></g><g id="road"><path id="road-2" class="cls-58" d="M1020.06,1154.18l236.16-136.34s38.75-22.37,0-44.74c-38.75-22.37-431.73-249.26-431.73-249.26,0,0-79.33-43.68,0-89.48,79.33-45.8,313.65-181.08,313.65-181.08,0,0,38.75-24.5,0-46.87-38.75-22.37-273.06-157.65-273.06-157.65,0,0-42.43-22.37-81.17,0-38.75,22.37-195.57,112.91-195.57,112.91l-77.49-44.74,236.16-136.34s75.65-45.8,154.98,0c79.33,45.8,354.23,204.52,354.23,204.52,0,0,79.33,43.68,0,89.48s-313.65,181.08-313.65,181.08c0,0-42.43,22.37-1.84,45.8,40.59,23.43,392.98,226.89,392.98,226.89l38.75,22.37s81.17,44.74,1.84,90.54c-79.33,45.8-274.9,158.71-274.9,158.71l-79.33-45.8Z"/><path class="cls-3" d="M549.28,337.96l236.16-136.34s31.88-26.31,77.49,0c45.61,26.31,354.23,204.52,354.23,204.52,0,0,40.59,21.31,0,44.74-40.59,23.43-354.23,204.52-354.23,204.52,0,0-38.75,22.37,0,44.74,38.75,22.37,470.47,271.63,470.47,271.63,0,0,38.75,22.37,0,44.74-38.75,22.37-274.9,158.71-274.9,158.71"/></g><ellipse class="cls-77" cx="1054.58" cy="114.6" rx="34.31" ry="59.43" transform="translate(934.26 1168.54) rotate(-89.69)"/><line class="cls-8" x1="1331.76" y1="365.71" x2="1331.76" y2="206.77"/><path class="cls-89" d="M1429.54,293.04c-88.22-11.81-105.6-14.86-195.56,0,51.28-77.87,90.28-168.05,90.28-168.05,3.21-5.98,11.78-5.98,14.99,0,0,0,43.78,114.95,90.28,168.05Z"/><path class="cls-73" d="M1403.54,224.31c-64.76-8.67-77.52-10.9-143.56,0,37.64-57.16,66.27-123.36,66.27-123.36,2.36-4.39,8.65-4.39,11.01,0,0,0,32.14,84.39,66.27,123.36Z"/><path class="cls-81" d="M1381.76,160.99c-48.22-15.15-53.78-15.37-100,0,35.55-40.48,46.17-85.93,46.17-85.93,1.64-3.06,6.02-3.06,7.67,0,0,0,8.17,47.89,46.17,85.93Z"/><ellipse class="cls-81" cx="1121.65" cy="245.72" rx="23.7" ry="46.25" transform="translate(-25.83 287.62) rotate(-14.45)"/><ellipse class="cls-115" cx="1171.59" cy="275.91" rx="23.7" ry="46.25" transform="translate(-31.79 301.04) rotate(-14.45)"/><ellipse class="cls-115" cx="1271.47" cy="334.94" rx="23.7" ry="46.25" transform="translate(-43.36 327.82) rotate(-14.45)"/><ellipse class="cls-81" cx="1321.42" cy="363.77" rx="23.7" ry="46.25" transform="translate(-48.97 341.2) rotate(-14.45)"/><ellipse class="cls-81" cx="1221.53" cy="303.38" rx="23.7" ry="46.25" transform="translate(-37.06 314.36) rotate(-14.45)"/><ellipse class="cls-81" cx="924.58" cy="132.5" rx="23.7" ry="46.25" transform="translate(-3.82 234.87) rotate(-14.45)"/><ellipse class="cls-115" cx="974.52" cy="162.7" rx="23.7" ry="46.25" transform="translate(-9.77 248.29) rotate(-14.45)"/><ellipse class="cls-115" cx="1074.4" cy="221.73" rx="23.7" ry="46.25" transform="translate(-21.34 275.07) rotate(-14.45)"/><ellipse class="cls-81" cx="1124.35" cy="250.56" rx="23.7" ry="46.25" transform="translate(-26.96 288.45) rotate(-14.45)"/><ellipse class="cls-81" cx="1024.46" cy="190.17" rx="23.7" ry="46.25" transform="translate(-15.05 261.62) rotate(-14.45)"/><line class="cls-25" x1="1048.56" y1="124.21" x2="1048.56" y2="-21.17"/><path class="cls-25" d="M1014.41,19.31s2.17,45.61,34.15,68.41c0,0,37.68-25,38.82-80.34"/><path class="cls-81" d="M1071.48,57.94l-5.41-3.06c-10.87-6.15-24.17-6.15-35.04,0l-5.41,3.06c-14.83,8.39-33.72,5.24-44.59-7.88-5.94-7.17-9.51-16.38-9.51-26.42V-11.93c0-42.54,34.48-77.02,77.02-77.02h0c42.54,0,77.02,34.48,77.02,77.02V23.64c0,10.04-3.57,19.25-9.51,26.42-10.87,13.13-29.76,16.27-44.59,7.88Z"/><g id="suburban"><path class="cls-95" d="M1285.92,757.46l-111.29-64.25c-18.63-10.75-16.81-28.65,4.07-39.97l42.62-23.11c20.87-11.32,52.9-11.78,71.53-1.02l111.29,64.25c18.63,10.75,16.81,28.65-4.07,39.97l-42.62,23.11c-20.87,11.32-52.9,11.78-71.53,1.02Z"/><path class="cls-95" d="M1501.06,651.83l-111.29-64.25c-18.63-10.75-16.81-28.65,4.07-39.97l42.62-23.11c20.87-11.32,52.9-11.78,71.53-1.02l111.29,64.25c18.63,10.75,16.81,28.65-4.07,39.97l-42.62,23.11c-20.87,11.32-52.9,11.78-71.53,1.02Z"/><g id="suburban-2"><path class="cls-95" d="M1945.4,1074.04l-111.29-64.25c-18.63-10.75-17.44-27.55,2.66-37.52l41.03-20.35c20.09-9.97,51.48-9.33,70.11,1.43l111.29,64.25c18.63,10.75,17.44,27.55-2.66,37.52l-41.03,20.35c-20.09,9.97-51.48,9.33-70.11-1.43Z"/><ellipse class="cls-81" cx="1123.59" cy="663.14" rx="23.7" ry="46.25" transform="translate(-129.92 301.3) rotate(-14.45)"/><ellipse class="cls-115" cx="1173.53" cy="693.34" rx="23.7" ry="46.25" transform="translate(-135.87 314.72) rotate(-14.45)"/><ellipse class="cls-115" cx="1273.41" cy="752.37" rx="23.7" ry="46.25" transform="translate(-147.44 341.51) rotate(-14.45)"/><ellipse class="cls-81" cx="1323.35" cy="781.2" rx="23.7" ry="46.25" transform="translate(-153.06 354.88) rotate(-14.45)"/><ellipse class="cls-81" cx="1223.47" cy="720.81" rx="23.7" ry="46.25" transform="translate(-141.15 328.05) rotate(-14.45)"/><g id="suburban-3"><g id="house"><polygon class="cls-121" points="1777.83 492.89 1911.37 415.79 1907.49 299.76 1777.83 372.91 1777.83 492.89"/><polygon class="cls-121" points="1820.9 235.92 1834.3 228.18 1834.3 185.95 1820.9 193.69 1820.9 235.92"/><polygon class="cls-112" points="1807.38 228.18 1820.78 235.92 1820.78 193.69 1807.38 185.95 1807.38 228.18"/><polygon class="cls-121" points="1801.35 178.83 1820.21 167.95 1820.18 173.7 1801.33 184.58 1801.35 178.83"/><polygon class="cls-112" points="1820.21 167.9 1838.85 178.67 1838.73 184.62 1820.08 173.86 1820.21 167.9"/><polygon class="cls-107" points="1804.19 181.93 1820.08 172.76 1835.86 181.87 1819.98 191.04 1804.19 181.93"/><ellipse class="cls-82" cx="1820.21" cy="182.61" rx="5.72" ry="9.92" transform="translate(1627.73 2001.8) rotate(-89.69)"/><polygon class="cls-121" points="1820.05 190.25 1838.9 179.37 1838.88 185.12 1820.03 196 1820.05 190.25"/><polygon class="cls-112" points="1801.51 179.28 1820.15 190.05 1820.03 196 1801.38 185.24 1801.51 179.28"/><polygon class="cls-112" points="1683.53 438.45 1777.83 492.89 1777.83 372.91 1730.25 272.47 1683.53 318.46 1683.53 438.45"/><polygon class="cls-18" points="1744.37 359.97 1744.37 334.73 1716.99 318.92 1716.99 344.16 1744.37 359.97"/><polygon class="cls-36" points="1752.21 443.49 1752.21 410.49 1709.15 385.63 1709.15 418.63 1752.21 443.49"/><g class="cls-139"><polygon class="cls-136" points="1755.63 398.23 1947.74 287.32 1868.74 191.04 1707.46 284.98 1755.63 398.23"/><polygon class="cls-111" points="1779.1 389.31 1884.51 330.99 1815.85 221.11 1723.4 274.49 1779.1 389.31"/></g><polygon class="cls-7" points="1857.5 301.86 1886.44 285.31 1863.53 235.94 1834.59 252.49 1857.5 301.86"/><polygon class="cls-7" points="1794.87 337.26 1823.81 320.71 1800.89 271.34 1771.95 287.89 1794.87 337.26"/><polyline class="cls-6" points="1870.29 194.29 1727.18 273.46 1678.2 323.96"/></g><g id="house-2"><path class="cls-83" d="M1450.95,331.83s-8.44,64.92-31.31,101.27l-53.95-27.42s32.68-12.48,42.29-84.91c0,0,18.08,12.73,42.96,11.06Z"/><path class="cls-121" d="M1438.04,429.99s-18.02-53.3-25.13-93.4c-8.23,32.54-25.52,66.64-25.52,66.64v136.25s50.65,26.76,50.65,26.76v-136.25Z"/><path class="cls-129" d="M1421.96,395.02l-.98-1.43c-4.54-6.62-11.98-10.55-16.52-8.73l-.98.39c-.74.3-1.17,1.06-1.17,2.11v17.11c0,2.01,1.55,4.45,3.46,5.46l13.9,7.34c1.91,1.01,3.46.2,3.46-1.81v-17.11c0-1.04-.43-2.26-1.17-3.34Z"/><path class="cls-129" d="M1403.71,436.88h0c-3.18-6.23-8.37-8.98-11.55-6.1h0c-.62.56-.97,1.65-.97,2.98v15.61c0,4.67,1.29,5.35,2.88,6.19l7.73,4.09c1.59.84,2.88,1.52,2.88-3.15v-15.61c0-1.34-.35-2.8-.97-4.01Z"/><path class="cls-129" d="M1432.53,452.11h0c-3.18-6.23-8.37-8.98-11.55-6.1h0c-.62.56-.97,1.65-.97,2.98v15.61c0,4.67,1.29,5.35,2.88,6.19l7.73,4.09c1.59.84,2.88,1.52,2.88-3.15v-15.61c0-1.34-.35-2.8-.97-4.01Z"/><path class="cls-129" d="M1425.89,514.17h0c-7.24-14.7-19.1-20.97-26.34-13.92h0c-1.41,1.37-2.22,3.99-2.22,7.18v37.3s30.77,16.26,30.77,16.26v-37.3c0-3.19-.81-6.66-2.22-9.52Z"/><polygon class="cls-133" points="1437.61 428.29 1484.76 401.06 1485.2 539.01 1438.04 566.24 1437.61 428.29"/><path class="cls-113" d="M1410.57,324.52s8.44,75.44,31.31,117.67l53.95-31.86s-32.68-14.5-42.29-98.66c0,0-18.08,14.8-42.96,12.85Z"/><path class="cls-129" d="M1446.72,452.13h0c3.18-6.23,8.37-8.98,11.55-6.1h0c.62.56.97,1.65.97,2.98v15.61c0,4.67-1.29,5.35-2.88,6.19l-7.73,4.09c-1.59.84-2.88,1.52-2.88-3.15v-15.61c0-1.34.35-2.8.97-4.01Z"/><path class="cls-129" d="M1468.69,440.68h0c3.18-6.23,8.37-8.98,11.55-6.1h0c.62.56.97,1.65.97,2.98v15.61c0,4.67-1.29,5.35-2.88,6.19l-7.73,4.09c-1.59.84-2.88,1.52-2.88-3.15v-15.61c0-1.34.35-2.8.97-4.01Z"/><path class="cls-129" d="M1468.38,494.5h0c3.18-6.23,8.37-8.98,11.55-6.1h0c.62.56.97,1.65.97,2.98v15.61c0,4.67-1.29,5.35-2.88,6.19l-7.73,4.09c-1.59.84-2.88,1.52-2.88-3.15v-15.61c0-1.34.35-2.8.97-4.01Z"/><path class="cls-129" d="M1446.72,506.84h0c3.18-6.23,8.37-8.98,11.55-6.1h0c.62.56.97,1.65.97,2.98v15.61c0,4.67-1.29,5.35-2.88,6.19l-7.73,4.09c-1.59.84-2.88,1.52-2.88-3.15v-15.61c0-1.34.35-2.8.97-4.01Z"/></g><polygon class="cls-135" points="1755.06 561.21 1982.38 692.45 1982.38 594.18 1755.06 462.94 1755.06 561.21"/><polygon class="cls-123" points="1755.06 462.94 1868.72 528.56 1868.72 626.83 1755.06 561.21 1755.06 462.94"/><path class="cls-69" d="M1873.1,629.68l26.11,15.08v-42.39c0-7.31-4.45-15.81-9.93-18.98l-16.18-9.34v55.64Z"/><path class="cls-114" d="M1776.19,544.87l29.47,17.01c3.36,1.94,6.08-.12,6.08-4.6v-19.71c0-4.48-2.72-9.68-6.08-11.62l-29.47-17.01c-3.36-1.94-6.08.12-6.08,4.6v19.71c0,4.48,2.72,9.68,6.08,11.62Z"/><path class="cls-69" d="M1838.65,609.79l26.11,15.08v-55.64s-16.04-9.26-16.04-9.26c-5.56-3.21-10.07.2-10.07,7.62v42.21Z"/><ellipse class="cls-123" cx="1893.53" cy="611.1" rx="1.61" ry="2.83" transform="translate(-84.68 824.59) rotate(-24.05)"/><ellipse class="cls-123" cx="1843.56" cy="582.25" rx="1.61" ry="2.83" transform="translate(-77.26 801.72) rotate(-24.05)"/><polyline class="cls-44" points="1868.72 528.56 1868.72 606.51 1868.72 626.83"/><polygon class="cls-72" points="1736.51 464.9 2012.76 624.39 2086.23 520.79 1809.98 361.29 1736.51 464.9"/><g id="house-3"><polygon class="cls-121" points="1722.39 587.2 1661.25 551.9 1661.25 686.87 1722.39 722.17 1722.39 587.2"/><polygon class="cls-24" points="1708.56 623.45 1675.08 604.12 1675.08 579.2 1708.56 598.53 1708.56 623.45"/><polygon class="cls-24" points="1688.98 669.54 1672.53 660.04 1672.53 637.74 1688.98 647.24 1688.98 669.54"/><polygon class="cls-24" points="1713.15 683.49 1696.7 673.99 1696.7 651.69 1713.15 661.19 1713.15 683.49"/><polygon class="cls-128" points="1672.28 602.26 1663.54 607.31 1663.75 592.96 1672.53 587.65 1672.28 602.26"/><polygon class="cls-128" points="1710.61 624.53 1701.87 629.58 1702.08 615.23 1710.87 609.92 1710.61 624.53"/><polygon class="cls-84" points="1702.08 615.23 1663.75 592.96 1663.51 607.3 1701.87 629.45 1702.08 615.23"/><line class="cls-32" x1="1776.82" y1="569.38" x2="1750.71" y2="551.9"/><line class="cls-32" x1="1776.82" y1="569.38" x2="1760.04" y2="551.9"/><g class="cls-142"><polygon class="cls-106" points="1775.64 569.91 1756.35 553.43 1721.45 599.38 1721.21 722.39 1775.41 692.92 1775.64 569.91"/><line class="cls-16" x1="1721.85" y1="608.19" x2="1775.63" y2="577.22"/></g><path class="cls-68" d="M1724.74,603.61l-72.55-41.89c-2.14-1.23-2.71-4.06-1.22-6.03l32.94-43.44c1.21-1.6,3.4-2.09,5.18-1.15l71.32,37.48c2.15,1.13,2.85,3.87,1.51,5.9l-31.71,47.86c-1.2,1.81-3.59,2.37-5.47,1.29Z"/><polygon class="cls-121" points="1802.75 752.18 1735 713.06 1735 649.16 1802.75 688.27 1802.75 752.18"/><polygon class="cls-105" points="1854.81 722.12 1802.75 752.18 1802.62 688.07 1828.6 648.96 1854.68 658.01 1854.81 722.12"/><path class="cls-80" d="M1841.95,688.79l-16.94,9.78c-.89.51-1.6,1.88-1.6,3.06v38.7s20.15-11.63,20.15-11.63v-38.7c0-1.18-.72-1.72-1.6-1.21Z"/><path class="cls-94" d="M1840.91,692.07l-14.88,8.59c-.16.1-.3.35-.3.57v37.76s15.47-8.93,15.47-8.93v-37.76c0-.22-.13-.32-.3-.23Z"/><ellipse class="cls-103" cx="1837.77" cy="713.83" rx="1.07" ry=".62" transform="translate(294.02 1940.12) rotate(-59.69)"/><polyline class="cls-17" points="1763.75 606.29 1834.74 647.28 1857.53 655.74"/><polygon class="cls-68" points="1800.35 696.59 1726.48 653.94 1760.87 604.63 1834.74 647.28 1800.35 696.59"/><polygon class="cls-24" points="1771.98 716.57 1755.53 707.07 1755.53 684.77 1771.98 694.27 1771.98 716.57"/></g><g id="house-4"><path class="cls-93" d="M1504.6,787.7l-79.75-3.5c-2.37-.1-3.27-3.15-1.33-4.53l38.17-27.05c.07-.05.14-.09.22-.14l179.58-101.43c1.07-.61,2.43-.34,3.19.63l7.03,8.96c.83,1.05.67,2.58-.35,3.44l-145.03,123.01c-.48.41-1.09.62-1.72.59Z"/><polygon class="cls-121" points="1504.48 912.43 1430.76 869.87 1430.81 780.3 1464.98 757.94 1504.53 822.86 1504.48 912.43"/><polygon class="cls-123" points="1686.36 808.06 1505.58 912.43 1505.58 824.31 1686.36 719.93 1686.36 808.06"/><polygon class="cls-40" points="1570.82 851.55 1525.14 877.93 1525.14 834.29 1570.82 807.92 1570.82 851.55"/><polygon class="cls-40" points="1668.46 794.22 1622.77 820.59 1622.77 776.96 1668.46 750.58 1668.46 794.22"/><path class="cls-33" d="M1504.53,912.43v-92.94,92.94Z"/><path class="cls-72" d="M1645.62,652.63l-185.65,103.71,47.55,74.09c1.71,2.66,5.2,3.52,7.95,1.96l181.22-103.23c2.72-1.55,3.44-5.13,1.55-7.62l-52.62-68.91Z"/><polygon class="cls-34" points="1484.72 845.3 1450.56 825.57 1450.56 858.2 1484.72 877.93 1484.72 845.3"/></g><g id="house-5"><path class="cls-92" d="M1877.46,749.24l-171.44,92.96-10.08,25.88c-2.06,5.29,2.78,10.67,8.26,9.17l162.38-44.43,10.89-83.59Z"/><polygon class="cls-99" points="1707.39 983.64 1773.33 1021.71 1772.01 877.48 1708.06 843.86 1707.39 983.64"/><polygon class="cls-120" points="1773.43 997.89 1965.02 887.28 1963.92 795.41 1772.01 879.9 1773.43 997.89"/><polygon class="cls-111" points="1917.39 885.21 1949.23 866.83 1948.86 835.77 1917.02 854.16 1917.39 885.21"/><polygon class="cls-111" points="1814.69 949.9 1847.04 931.23 1846.66 900.17 1814.32 918.85 1814.69 949.9"/><polygon class="cls-104" points="1869.15 943.06 1895.64 927.76 1894.96 870.51 1868.46 885.8 1869.15 943.06"/><ellipse class="cls-71" cx="1874.74" cy="913.7" rx="2.25" ry="1.01" transform="translate(-157.14 1383.79) rotate(-39.01)"/><path class="cls-130" d="M1795.75,905.12l180.97-105.06c3.58-2.08,4.48-6.87,1.9-10.15l-13-21.18s-11.96-6.46-14.89-4.73l-179.34,105.41c-3.48,2.04-4.42,6.66-2.02,9.94l17.45,23.87c2.07,2.83,5.92,3.65,8.93,1.9Z"/><polygon class="cls-100" points="1770.6 881.33 1965.61 768.74 1898.69 731.28 1706.52 842.23 1770.6 881.33"/></g><g id="house-6"><polygon class="cls-109" points="1406.11 730.14 1223.47 624.69 1223.47 544.38 1406.11 649.83 1406.11 730.14"/><path class="cls-99" d="M1290.58,643.86l-14.84-8.57v-26.45s0,0,0,0c3.78-3.33,11.06.88,14.84,8.57h0v26.45Z"/><path class="cls-99" d="M1257.26,622.95l-23.73-13.7v-26.45s0,0,0,0c6.53-2.18,17.2,3.99,23.73,13.7h0v26.45Z"/><path class="cls-99" d="M1374.93,690.88l-14.84-8.57v-26.45s0,0,0,0c3.66-3.22,11.18,1.11,14.84,8.57h0v26.45Z"/><path class="cls-99" d="M1391.96,700.72l-14.84-8.57v-26.45s0,0,0,0c3.66-3.22,11.18,1.11,14.84,8.57h0v26.45Z"/><path class="cls-138" d="M1336.04,689.69l-29.79-17.2v-43.33s0,0,0,0c7.36-4.5,22.43,4.21,29.79,17.2h0v43.33Z"/><g class="cls-141"><path class="cls-123" d="M1336.04,689.69l-29.79-17.2v-43.33s0,0,0,0c7.36-4.5,22.43,4.21,29.79,17.2h0v43.33Z"/><polygon class="cls-121" points="1297.19 671.13 1321.15 684.96 1321.15 627.33 1297.19 613.49 1297.19 671.13"/></g><polygon class="cls-135" points="1472.28 625.35 1406.11 663.18 1406.11 730.14 1472.07 692.39 1472.28 625.35"/><polygon class="cls-111" points="1472.28 625.35 1406.74 663.18 1441.02 602.41 1472.28 625.35"/><path class="cls-68" d="M1408.91,665.73l-194.1-112.06c-1.28-.74-1.67-2.42-.84-3.65l37.13-55.15c.62-.92,1.84-1.2,2.8-.65l196.08,113.21-38.92,57.8c-.47.7-1.41.92-2.15.5Z"/><polyline class="cls-5" points="1253.9 494.23 1449.98 607.43 1472.28 625.35"/></g></g><line class="cls-37" x1="1653.87" y1="284.83" x2="1650.73" y2="479.79"/><line class="cls-37" x1="1651.5" y1="431.9" x2="1680.11" y2="398.27"/><line class="cls-37" x1="1605.98" y1="387.44" x2="1650.73" y2="443.31"/><path class="cls-99" d="M1650.73,223.98h0c29.57,0,53.59,24.01,53.59,53.59v55.95c0,14.26-11.58,25.84-25.84,25.84h-55.48c-14.26,0-25.84-11.58-25.84-25.84v-55.95c0-29.57,24.01-53.59,53.59-53.59Z"/><path class="cls-123" d="M1602.56,338.32h0c13.74,0,24.89,11.16,24.89,24.89v25.99c0,6.63-5.38,12.01-12.01,12.01h-25.78c-6.63,0-12.01-5.38-12.01-12.01v-25.99c0-13.74,11.16-24.89,24.89-24.89Z"/><path class="cls-121" d="M1680.11,380.61h0c8.37,0,15.16,6.79,15.16,15.16v6.62c0,4.71-3.83,8.54-8.54,8.54h-13.25c-4.71,0-8.54-3.83-8.54-8.54v-6.62c0-8.37,6.79-15.16,15.16-15.16Z"/><path class="cls-90" d="M1589.14,524.62c3.8-17.54,5.97-37.76,5.97-59.29,0-67.17-21.1-121.61-47.13-121.61s-47.13,54.45-47.13,121.61c0,21.53,2.17,41.75,5.97,59.29h82.3Z"/><line class="cls-46" x1="1547.98" y1="597.97" x2="1547.98" y2="405.1"/><polyline class="cls-46" points="1522.9 508.85 1547.98 556.73 1576.49 508.85"/><ellipse class="cls-81" cx="1333.62" cy="776.24" rx="46.25" ry="23.7" transform="translate(249.2 1874.01) rotate(-75.55)"/><ellipse class="cls-115" cx="1383.56" cy="748.77" rx="46.25" ry="23.7" transform="translate(313.28 1901.76) rotate(-75.55)"/><ellipse class="cls-115" cx="1483.45" cy="692.46" rx="46.25" ry="23.7" transform="translate(442.77 1956.23) rotate(-75.55)"/><ellipse class="cls-81" cx="1533.39" cy="663.63" rx="46.25" ry="23.7" transform="translate(508.17 1982.95) rotate(-75.55)"/><ellipse class="cls-81" cx="1433.51" cy="718.57" rx="46.25" ry="23.7" transform="translate(380 1927.46) rotate(-75.55)"/><ellipse class="cls-81" cx="1527.15" cy="895.45" rx="46.25" ry="23.7" transform="translate(279 2150.89) rotate(-75.55)"/><ellipse class="cls-115" cx="1577.09" cy="867.98" rx="46.25" ry="23.7" transform="translate(343.08 2178.64) rotate(-75.55)"/><ellipse class="cls-115" cx="1676.97" cy="811.67" rx="46.25" ry="23.7" transform="translate(472.57 2233.1) rotate(-75.55)"/><ellipse class="cls-81" cx="1726.92" cy="782.84" rx="46.25" ry="23.7" transform="translate(537.97 2259.82) rotate(-75.55)"/><ellipse class="cls-81" cx="1627.03" cy="837.78" rx="46.25" ry="23.7" transform="translate(409.8 2204.34) rotate(-75.55)"/><line class="cls-8" x1="1727.18" y1="1219.93" x2="1727.18" y2="1060.99"/><path class="cls-89" d="M1794.66,1128.14c-60.89-11.81-72.88-14.86-134.97,0,35.39-77.87,62.31-168.05,62.31-168.05,2.22-5.98,8.13-5.98,10.35,0,0,0,30.22,114.95,62.31,168.05Z"/><path class="cls-73" d="M1776.72,1059.42c-44.7-8.67-53.5-10.9-99.08,0,25.98-57.16,45.74-123.36,45.74-123.36,1.63-4.39,5.97-4.39,7.6,0,0,0,22.18,84.39,45.74,123.36Z"/><path class="cls-81" d="M1761.69,996.09c-33.28-15.15-37.12-15.37-69.02,0,24.54-40.48,31.86-85.93,31.86-85.93,1.13-3.06,4.16-3.06,5.29,0,0,0,5.64,47.89,31.86,85.93Z"/><line class="cls-8" x1="1661.31" y1="1171.72" x2="1661.31" y2="1012.78"/><path class="cls-89" d="M1728.79,1079.94c-60.89-11.81-72.88-14.86-134.97,0,35.39-77.87,62.31-168.05,62.31-168.05,2.22-5.98,8.13-5.98,10.35,0,0,0,30.22,114.95,62.31,168.05Z"/><path class="cls-73" d="M1710.85,1011.21c-44.7-8.67-53.5-10.9-99.08,0,25.98-57.16,45.74-123.36,45.74-123.36,1.63-4.39,5.97-4.39,7.6,0,0,0,22.18,84.39,45.74,123.36Z"/><path class="cls-81" d="M1695.81,947.88c-33.28-15.15-37.12-15.37-69.02,0,24.54-40.48,31.86-85.93,31.86-85.93,1.13-3.06,4.16-3.06,5.29,0,0,0,5.64,47.89,31.86,85.93Z"/><path class="cls-89" d="M1871.68,1156.5c-60.89-11.81-72.88-14.86-134.97,0,35.39-77.87,62.31-168.05,62.31-168.05,2.22-5.98,8.13-5.98,10.35,0,0,0,30.22,114.95,62.31,168.05Z"/><path class="cls-73" d="M1853.73,1087.77c-44.7-8.67-53.5-10.9-99.08,0,25.98-57.16,45.74-123.36,45.74-123.36,1.63-4.39,5.97-4.39,7.6,0,0,0,22.18,84.39,45.74,123.36Z"/><path class="cls-81" d="M1838.7,1024.45c-33.28-15.15-37.12-15.37-69.02,0,24.54-40.48,31.86-85.93,31.86-85.93,1.13-3.06,4.16-3.06,5.29,0,0,0,5.64,47.89,31.86,85.93Z"/><line class="cls-8" x1="1606.48" y1="1236.61" x2="1606.48" y2="1077.67"/><path class="cls-89" d="M1673.96,1144.82c-60.89-11.81-72.88-14.86-134.97,0,35.39-77.87,62.31-168.05,62.31-168.05,2.22-5.98,8.13-5.98,10.35,0,0,0,30.22,114.95,62.31,168.05Z"/><path class="cls-73" d="M1656.02,1076.1c-44.7-8.67-53.5-10.9-99.08,0,25.98-57.16,45.74-123.36,45.74-123.36,1.63-4.39,5.97-4.39,7.6,0,0,0,22.18,84.39,45.74,123.36Z"/><path class="cls-81" d="M1640.99,1012.77c-33.28-15.15-37.12-15.37-69.02,0,24.54-40.48,31.86-85.93,31.86-85.93,1.13-3.06,4.16-3.06,5.29,0,0,0,5.64,47.89,31.86,85.93Z"/><g class="cls-140"><path class="cls-75" d="M1505.58,579.96c18.88,0,34.4-15.11,34.66-33.99.01-1,.02-2,.02-3.01,0-47.5-15.53-86.01-34.68-86.01s-34.68,38.51-34.68,86.01c0,1.01,0,2.01.02,3.01.26,18.88,15.78,33.99,34.66,33.99h0Z"/><polyline class="cls-46" points="1553.17 475.26 1505.58 508.26 1505.58 613.22"/><line class="cls-46" x1="1470.9" y1="478.11" x2="1505.58" y2="508.26"/><line class="cls-46" x1="1452.27" y1="544.24" x2="1505.58" y2="557.92"/><line class="cls-46" x1="1553.17" y1="526.57" x2="1505.58" y2="544.24"/></g><line class="cls-46" x1="1505.58" y1="505.44" x2="1505.58" y2="610.4"/><path class="cls-89" d="M1946.09,1209.07c-60.89-11.81-72.88-14.86-134.97,0,35.39-77.87,62.31-168.05,62.31-168.05,2.22-5.98,8.13-5.98,10.35,0,0,0,30.22,114.95,62.31,168.05Z"/><path class="cls-73" d="M1928.14,1140.34c-44.7-8.67-53.5-10.9-99.08,0,25.98-57.16,45.74-123.36,45.74-123.36,1.63-4.39,5.97-4.39,7.6,0,0,0,22.18,84.39,45.74,123.36Z"/><path class="cls-81" d="M1913.11,1077.02c-33.28-15.15-37.12-15.37-69.02,0,24.54-40.48,31.86-85.93,31.86-85.93,1.13-3.06,4.16-3.06,5.29,0,0,0,5.64,47.89,31.86,85.93Z"/></g></g><g id="city-2"><g id="Town"><line class="cls-8" x1="455.55" y1="304.79" x2="455.55" y2="145.85"/><path class="cls-89" d="M523.03,213.01c-60.89-11.81-72.88-14.86-134.97,0,35.39-77.87,62.31-168.05,62.31-168.05,2.22-5.98,8.13-5.98,10.35,0,0,0,30.22,114.95,62.31,168.05Z"/><path class="cls-73" d="M505.09,144.28c-44.7-8.67-53.5-10.9-99.08,0,25.98-57.16,45.74-123.36,45.74-123.36,1.63-4.39,5.97-4.39,7.6,0,0,0,22.18,84.39,45.74,123.36Z"/><path class="cls-81" d="M490.06,80.95c-33.28-15.15-37.12-15.37-69.02,0,24.54-40.48,31.86-85.93,31.86-85.93,1.13-3.06,4.16-3.06,5.29,0,0,0,5.64,47.89,31.86,85.93Z"/><path class="cls-19" d="M742.42,78.04s-59.88,80.63-122.67,0c0,0-64.25,81.58-125.58,0,0,0-59.88,80.63-122.67,0,0,0-66.98,81.58-126.95,0"/><line class="cls-4" x1="620.19" y1="42.74" x2="620.19" y2="239.02"/><line class="cls-4" x1="495.63" y1="42.74" x2="495.63" y2="239.02"/><line class="cls-4" x1="372.54" y1="42.74" x2="372.54" y2="239.02"/><line class="cls-4" x1="244.76" y1="42.74" x2="244.76" y2="239.02"/><path class="cls-35" d="M665.51,78.04h117.31v191.11c0,22.29-18.1,40.4-40.4,40.4h-36.52c-22.29,0-40.4-18.1-40.4-40.4V78.04h0Z" transform="translate(1448.33 387.59) rotate(-180)"/><rect class="cls-99" x="755.44" y="135.39" width="13.36" height="32.13" rx="2.63" ry="2.63" transform="translate(1524.24 302.9) rotate(-180)"/><rect class="cls-99" x="717.55" y="135.39" width="13.36" height="32.13" rx="2.63" ry="2.63" transform="translate(1448.46 302.9) rotate(-180)"/><rect class="cls-99" x="679.66" y="135.39" width="13.36" height="32.13" rx="2.63" ry="2.63" transform="translate(1372.68 302.9) rotate(-180)"/><rect class="cls-99" x="679.66" y="195.66" width="13.36" height="32.13" rx="2.63" ry="2.63" transform="translate(1372.68 423.45) rotate(-180)"/><rect class="cls-99" x="717.55" y="195.66" width="13.36" height="32.13" rx="2.63" ry="2.63" transform="translate(1448.46 423.45) rotate(-180)"/><rect class="cls-99" x="755.44" y="195.66" width="13.36" height="32.13" rx="2.63" ry="2.63" transform="translate(1524.24 423.45) rotate(-180)"/><rect class="cls-99" x="755.44" y="255.94" width="13.36" height="32.13" rx="2.63" ry="2.63" transform="translate(1524.24 544) rotate(-180)"/><rect class="cls-99" x="717.55" y="255.94" width="13.36" height="32.13" rx="2.63" ry="2.63" transform="translate(1448.46 544) rotate(-180)"/><rect class="cls-99" x="679.66" y="255.94" width="13.36" height="32.13" rx="2.63" ry="2.63" transform="translate(1372.68 544) rotate(-180)"/><g id="lägenhet"><rect class="cls-79" x="-6.71" y="26.2" width="188.8" height="163.1" transform="translate(175.38 215.5) rotate(-180)"/><rect class="cls-125" x="150.2" y="39.72" width="20.05" height="20.05" rx="2.86" ry="2.86" transform="translate(320.46 99.5) rotate(-180)"/><rect class="cls-125" x="100.31" y="39.72" width="20.05" height="20.05" rx="2.86" ry="2.86" transform="translate(220.67 99.5) rotate(-180)"/><rect class="cls-125" x="50.41" y="39.72" width="20.05" height="20.05" rx="2.86" ry="2.86" transform="translate(120.88 99.5) rotate(-180)"/><rect class="cls-125" x=".52" y="39.72" width="20.05" height="20.05" rx="2.86" ry="2.86" transform="translate(21.09 99.5) rotate(-180)"/><rect class="cls-125" x="150.2" y="78.89" width="20.05" height="20.05" rx="2.86" ry="2.86" transform="translate(320.46 177.83) rotate(-180)"/><rect class="cls-125" x="100.31" y="78.89" width="20.05" height="20.05" rx="2.86" ry="2.86" transform="translate(220.67 177.83) rotate(-180)"/><rect class="cls-125" x="50.41" y="78.89" width="20.05" height="20.05" rx="2.86" ry="2.86" transform="translate(120.88 177.83) rotate(-180)"/><rect class="cls-125" x=".52" y="78.89" width="20.05" height="20.05" rx="2.86" ry="2.86" transform="translate(21.09 177.83) rotate(-180)"/><rect class="cls-125" x="150.2" y="118.05" width="20.05" height="20.05" rx="2.86" ry="2.86" transform="translate(320.46 256.15) rotate(-180)"/><rect class="cls-125" x="100.31" y="118.05" width="20.05" height="20.05" rx="2.86" ry="2.86" transform="translate(220.67 256.15) rotate(-180)"/><rect class="cls-125" x="50.41" y="118.05" width="20.05" height="20.05" rx="2.86" ry="2.86" transform="translate(120.88 256.15) rotate(-180)"/><rect class="cls-125" x=".52" y="118.05" width="20.05" height="20.05" rx="2.86" ry="2.86" transform="translate(21.09 256.15) rotate(-180)"/><rect class="cls-125" x="150.2" y="157.21" width="20.05" height="20.05" rx="2.86" ry="2.86" transform="translate(320.46 334.48) rotate(-180)"/><rect class="cls-125" x="100.31" y="157.21" width="20.05" height="20.05" rx="2.86" ry="2.86" transform="translate(220.67 334.48) rotate(-180)"/><rect class="cls-125" x="50.41" y="157.21" width="20.05" height="20.05" rx="2.86" ry="2.86" transform="translate(120.88 334.48) rotate(-180)"/><rect class="cls-125" x=".52" y="157.21" width="20.05" height="20.05" rx="2.86" ry="2.86" transform="translate(21.09 334.48) rotate(-180)"/></g><g id="building"><polygon class="cls-99" points="465.46 121.81 463.74 101.76 388.61 58.38 136 58.38 168.37 121.58 465.46 121.81"/><polygon class="cls-78" points="95.61 121.51 168.37 121.58 167.63 103.48 136 58.38 96.29 104.57 95.61 121.51"/><rect class="cls-64" x="359.55" y="81.44" width="36.63" height="33.16" rx="2.97" ry="2.97" transform="translate(755.73 196.05) rotate(-180)"/><rect class="cls-64" x="219.55" y="83.08" width="36.63" height="33.16" rx="2.97" ry="2.97" transform="translate(475.74 199.33) rotate(-180)"/><rect class="cls-117" x="168.37" y="121.58" width="290.48" height="112.78" transform="translate(627.22 355.95) rotate(-180)"/><rect class="cls-101" x="95.61" y="121.51" width="72.76" height="112.85" transform="translate(263.97 355.87) rotate(-180)"/><rect class="cls-78" x="426.02" y="135.46" width="14.33" height="10.78" rx="1.17" ry="1.17" transform="translate(866.37 281.7) rotate(-180)"/><rect class="cls-78" x="426.04" y="148.38" width="14.33" height="10.78" rx="1.17" ry="1.17" transform="translate(866.42 307.54) rotate(-180)"/><rect class="cls-78" x="410.02" y="135.49" width="14.33" height="10.78" rx="1.17" ry="1.17" transform="translate(834.38 281.75) rotate(-180)"/><rect class="cls-78" x="410.05" y="148.41" width="14.33" height="10.78" rx="1.17" ry="1.17" transform="translate(834.43 307.59) rotate(-180)"/><rect class="cls-78" x="379.18" y="135.46" width="14.33" height="10.78" rx="1.17" ry="1.17" transform="translate(772.7 281.7) rotate(-180)"/><rect class="cls-78" x="379.21" y="148.38" width="14.33" height="10.78" rx="1.17" ry="1.17" transform="translate(772.75 307.54) rotate(-180)"/><rect class="cls-78" x="363.19" y="135.49" width="14.33" height="10.78" rx="1.17" ry="1.17" transform="translate(740.71 281.75) rotate(-180)"/><rect class="cls-78" x="363.21" y="148.41" width="14.33" height="10.78" rx="1.17" ry="1.17" transform="translate(740.76 307.59) rotate(-180)"/><rect class="cls-78" x="333.48" y="135.46" width="14.33" height="10.78" rx="1.17" ry="1.17" transform="translate(681.28 281.7) rotate(-180)"/><rect class="cls-78" x="333.5" y="148.38" width="14.33" height="10.78" rx="1.17" ry="1.17" transform="translate(681.33 307.54) rotate(-180)"/><rect class="cls-78" x="317.48" y="135.49" width="14.33" height="10.78" rx="1.17" ry="1.17" transform="translate(649.29 281.75) rotate(-180)"/><rect class="cls-78" x="317.5" y="148.41" width="14.33" height="10.78" rx="1.17" ry="1.17" transform="translate(649.34 307.59) rotate(-180)"/><rect class="cls-78" x="286.64" y="135.46" width="14.33" height="10.78" rx="1.17" ry="1.17" transform="translate(587.61 281.7) rotate(-180)"/><rect class="cls-78" x="286.66" y="148.38" width="14.33" height="10.78" rx="1.17" ry="1.17" transform="translate(587.66 307.54) rotate(-180)"/><rect class="cls-78" x="270.64" y="135.49" width="14.33" height="10.78" rx="1.17" ry="1.17" transform="translate(555.62 281.75) rotate(-180)"/><rect class="cls-78" x="270.67" y="148.41" width="14.33" height="10.78" rx="1.17" ry="1.17" transform="translate(555.67 307.59) rotate(-180)"/><rect class="cls-78" x="238.58" y="135.46" width="14.33" height="10.78" rx="1.17" ry="1.17" transform="translate(491.5 281.7) rotate(-180)"/><rect class="cls-78" x="238.61" y="148.38" width="14.33" height="10.78" rx="1.17" ry="1.17" transform="translate(491.55 307.54) rotate(-180)"/><rect class="cls-78" x="222.59" y="135.49" width="14.33" height="10.78" rx="1.17" ry="1.17" transform="translate(459.51 281.75) rotate(-180)"/><rect class="cls-78" x="222.61" y="148.41" width="14.33" height="10.78" rx="1.17" ry="1.17" transform="translate(459.56 307.59) rotate(-180)"/><rect class="cls-78" x="191.75" y="135.46" width="14.33" height="10.78" rx="1.17" ry="1.17" transform="translate(397.83 281.7) rotate(-180)"/><rect class="cls-78" x="191.77" y="148.38" width="14.33" height="10.78" rx="1.17" ry="1.17" transform="translate(397.88 307.54) rotate(-180)"/><rect class="cls-78" x="175.75" y="135.49" width="14.33" height="10.78" rx="1.17" ry="1.17" transform="translate(365.84 281.75) rotate(-180)"/><rect class="cls-78" x="175.78" y="148.41" width="14.33" height="10.78" rx="1.17" ry="1.17" transform="translate(365.89 307.59) rotate(-180)"/><rect class="cls-78" x="426.02" y="176.38" width="14.33" height="10.78" rx="1.17" ry="1.17" transform="translate(866.37 363.54) rotate(-180)"/><rect class="cls-78" x="426.04" y="189.3" width="14.33" height="10.78" rx="1.17" ry="1.17" transform="translate(866.42 389.38) rotate(-180)"/><rect class="cls-78" x="410.02" y="176.41" width="14.33" height="10.78" rx="1.17" ry="1.17" transform="translate(834.38 363.59) rotate(-180)"/><rect class="cls-78" x="410.05" y="189.33" width="14.33" height="10.78" rx="1.17" ry="1.17" transform="translate(834.43 389.43) rotate(-180)"/><rect class="cls-78" x="379.18" y="176.38" width="14.33" height="10.78" rx="1.17" ry="1.17" transform="translate(772.7 363.54) rotate(-180)"/><rect class="cls-78" x="379.21" y="189.3" width="14.33" height="10.78" rx="1.17" ry="1.17" transform="translate(772.75 389.38) rotate(-180)"/><rect class="cls-78" x="363.19" y="176.41" width="14.33" height="10.78" rx="1.17" ry="1.17" transform="translate(740.71 363.59) rotate(-180)"/><rect class="cls-78" x="363.21" y="189.33" width="14.33" height="10.78" rx="1.17" ry="1.17" transform="translate(740.76 389.43) rotate(-180)"/><rect class="cls-78" x="333.48" y="176.38" width="14.33" height="10.78" rx="1.17" ry="1.17" transform="translate(681.28 363.54) rotate(-180)"/><rect class="cls-78" x="333.5" y="189.3" width="14.33" height="10.78" rx="1.17" ry="1.17" transform="translate(681.33 389.38) rotate(-180)"/><rect class="cls-78" x="317.48" y="176.41" width="14.33" height="10.78" rx="1.17" ry="1.17" transform="translate(649.29 363.59) rotate(-180)"/><rect class="cls-78" x="317.5" y="189.33" width="14.33" height="10.78" rx="1.17" ry="1.17" transform="translate(649.34 389.43) rotate(-180)"/><rect class="cls-78" x="286.64" y="176.38" width="14.33" height="10.78" rx="1.17" ry="1.17" transform="translate(587.61 363.54) rotate(-180)"/><rect class="cls-78" x="286.66" y="189.3" width="14.33" height="10.78" rx="1.17" ry="1.17" transform="translate(587.66 389.38) rotate(-180)"/><rect class="cls-78" x="270.64" y="176.41" width="14.33" height="10.78" rx="1.17" ry="1.17" transform="translate(555.62 363.59) rotate(-180)"/><rect class="cls-78" x="270.67" y="189.33" width="14.33" height="10.78" rx="1.17" ry="1.17" transform="translate(555.67 389.43) rotate(-180)"/><rect class="cls-78" x="238.58" y="176.38" width="14.33" height="10.78" rx="1.17" ry="1.17" transform="translate(491.5 363.54) rotate(-180)"/><rect class="cls-78" x="238.61" y="189.3" width="14.33" height="10.78" rx="1.17" ry="1.17" transform="translate(491.55 389.38) rotate(-180)"/><rect class="cls-78" x="222.59" y="176.41" width="14.33" height="10.78" rx="1.17" ry="1.17" transform="translate(459.51 363.59) rotate(-180)"/><rect class="cls-78" x="222.61" y="189.33" width="14.33" height="10.78" rx="1.17" ry="1.17" transform="translate(459.56 389.43) rotate(-180)"/><rect class="cls-78" x="191.75" y="176.38" width="14.33" height="10.78" rx="1.17" ry="1.17" transform="translate(397.83 363.54) rotate(-180)"/><rect class="cls-78" x="191.77" y="189.3" width="14.33" height="10.78" rx="1.17" ry="1.17" transform="translate(397.88 389.38) rotate(-180)"/><rect class="cls-78" x="175.75" y="176.41" width="14.33" height="10.78" rx="1.17" ry="1.17" transform="translate(365.84 363.59) rotate(-180)"/><rect class="cls-78" x="175.78" y="189.33" width="14.33" height="10.78" rx="1.17" ry="1.17" transform="translate(365.89 389.43) rotate(-180)"/><rect class="cls-78" x="426.02" y="216.78" width="14.33" height="10.78" rx="1.17" ry="1.17" transform="translate(866.37 444.33) rotate(-180)"/><rect class="cls-78" x="426.04" y="229.7" width="14.33" height="10.78" rx="1.17" ry="1.17" transform="translate(866.42 470.17) rotate(-180)"/><rect class="cls-78" x="410.02" y="216.8" width="14.33" height="10.78" rx="1.17" ry="1.17" transform="translate(834.38 444.39) rotate(-180)"/><rect class="cls-78" x="410.05" y="229.72" width="14.33" height="10.78" rx="1.17" ry="1.17" transform="translate(834.43 470.23) rotate(-180)"/><rect class="cls-78" x="379.18" y="216.78" width="14.33" height="10.78" rx="1.17" ry="1.17" transform="translate(772.7 444.33) rotate(-180)"/><rect class="cls-78" x="379.21" y="229.7" width="14.33" height="10.78" rx="1.17" ry="1.17" transform="translate(772.75 470.17) rotate(-180)"/><rect class="cls-78" x="363.19" y="216.8" width="14.33" height="10.78" rx="1.17" ry="1.17" transform="translate(740.71 444.39) rotate(-180)"/><rect class="cls-78" x="363.21" y="229.72" width="14.33" height="10.78" rx="1.17" ry="1.17" transform="translate(740.76 470.23) rotate(-180)"/><rect class="cls-78" x="333.48" y="216.78" width="14.33" height="10.78" rx="1.17" ry="1.17" transform="translate(681.28 444.33) rotate(-180)"/><rect class="cls-78" x="333.5" y="229.7" width="14.33" height="10.78" rx="1.17" ry="1.17" transform="translate(681.33 470.17) rotate(-180)"/><rect class="cls-78" x="317.48" y="216.8" width="14.33" height="10.78" rx="1.17" ry="1.17" transform="translate(649.29 444.39) rotate(-180)"/><rect class="cls-78" x="317.5" y="229.72" width="14.33" height="10.78" rx="1.17" ry="1.17" transform="translate(649.34 470.23) rotate(-180)"/><rect class="cls-78" x="286.64" y="216.78" width="14.33" height="10.78" rx="1.17" ry="1.17" transform="translate(587.61 444.33) rotate(-180)"/><rect class="cls-78" x="286.66" y="229.7" width="14.33" height="10.78" rx="1.17" ry="1.17" transform="translate(587.66 470.17) rotate(-180)"/><rect class="cls-78" x="270.64" y="216.8" width="14.33" height="10.78" rx="1.17" ry="1.17" transform="translate(555.62 444.39) rotate(-180)"/><rect class="cls-78" x="270.67" y="229.72" width="14.33" height="10.78" rx="1.17" ry="1.17" transform="translate(555.67 470.23) rotate(-180)"/><rect class="cls-78" x="238.58" y="216.78" width="14.33" height="10.78" rx="1.17" ry="1.17" transform="translate(491.5 444.33) rotate(-180)"/><rect class="cls-78" x="238.61" y="229.7" width="14.33" height="10.78" rx="1.17" ry="1.17" transform="translate(491.55 470.17) rotate(-180)"/><rect class="cls-78" x="222.59" y="216.8" width="14.33" height="10.78" rx="1.17" ry="1.17" transform="translate(459.51 444.39) rotate(-180)"/><rect class="cls-78" x="222.61" y="229.72" width="14.33" height="10.78" rx="1.17" ry="1.17" transform="translate(459.56 470.23) rotate(-180)"/><rect class="cls-78" x="191.75" y="216.78" width="14.33" height="10.78" rx="1.17" ry="1.17" transform="translate(397.83 444.33) rotate(-180)"/><rect class="cls-78" x="191.77" y="229.7" width="14.33" height="10.78" rx="1.17" ry="1.17" transform="translate(397.88 470.17) rotate(-180)"/><rect class="cls-78" x="175.75" y="216.8" width="14.33" height="10.78" rx="1.17" ry="1.17" transform="translate(365.84 444.39) rotate(-180)"/><rect class="cls-78" x="175.78" y="229.72" width="14.33" height="10.78" rx="1.17" ry="1.17" transform="translate(365.89 470.23) rotate(-180)"/><path class="cls-76" d="M332.5,106.56l22.06,7.22c.87.28,1.9-1.05,1.87-2.4l-.85-30.35c-.04-1.27-1.01-1.68-1.83-.78l-21.21,23.13c-.94,1.02-.96,2.88-.03,3.18Z"/><path class="cls-76" d="M192.19,108.9l22.01,7.39c.87.29,1.91-1.04,1.89-2.39l-.62-30.36c-.03-1.27-.99-1.69-1.83-.79l-21.39,22.96c-.94,1.01-.98,2.87-.06,3.18Z"/></g><g id="stairs"><polygon class="cls-38" points="-1.54 83.71 -1.54 101.71 .62 230.12 172.33 227.51 172.33 191.54 147.48 191.54 147.48 173.57 122.61 173.57 122.61 155.59 97.89 155.59 97.89 137.67 73.02 137.67 73.02 119.68 48.17 119.68 48.17 101.71 23.3 101.71 23.3 83.71 -1.54 83.71"/><g class="cls-146"><path class="cls-120" d="M54.21,185.11c-9.86,0-17.87-8.02-17.87-17.88s8.02-17.88,17.87-17.88,17.88,8.02,17.88,17.88-8.02,17.88-17.88,17.88Z"/><path class="cls-85" d="M54.21,150.32c9.33,0,16.92,7.59,16.92,16.92s-7.59,16.92-16.92,16.92-16.92-7.59-16.92-16.92,7.59-16.92,16.92-16.92M54.21,148.41c-10.4,0-18.83,8.43-18.83,18.83s8.43,18.83,18.83,18.83,18.83-8.43,18.83-18.83-8.43-18.83-18.83-18.83h0Z"/><line class="cls-43" x1="53.91" y1="196.61" x2="53.91" y2="137.87"/><line class="cls-43" x1="83.58" y1="167.24" x2="24.84" y2="167.24"/></g></g><rect class="cls-123" x="2.46" y="244.19" width="324.09" height="121.15" transform="translate(329.02 609.54) rotate(-180)"/><path class="cls-134" d="M.55,198.61l265.15-1.17,75.29,45.75c5.11,3.11,2.86,10.83-3.15,10.83H.55v-55.41Z"/><rect class="cls-119" x="223.71" y="270.95" width="26.43" height="21.2" transform="translate(473.84 563.11) rotate(-180)"/><rect class="cls-119" x="287.03" y="270.95" width="17.76" height="17.76" transform="translate(591.83 559.67) rotate(-180)"/><rect class="cls-119" x="263.73" y="270.95" width="17.76" height="36.85" transform="translate(545.22 578.76) rotate(-180)"/><g class="cls-145"><path class="cls-111" d="M278.64,285.3c2.57,0,4.67,2.09,4.67,4.67v13.98c0,2.57-2.09,4.67-4.67,4.67h-12.49c-2.57,0-4.67-2.09-4.67-4.67v-13.98c0-2.57,2.09-4.67,4.67-4.67h12.49M278.64,283.66h-12.49c-3.49,0-6.31,2.83-6.31,6.31v13.98c0,3.49,2.83,6.31,6.31,6.31h12.49c3.48,0,6.31-2.83,6.31-6.31v-13.98c0-3.49-2.83-6.31-6.31-6.31h0Z"/><line class="cls-10" x1="282.09" y1="274.99" x2="282.09" y2="324.09"/><line class="cls-10" x1="278.21" y1="276.69" x2="278.21" y2="325.78"/><line class="cls-10" x1="274.32" y1="275.56" x2="274.32" y2="318.69"/><line class="cls-10" x1="286.33" y1="290.98" x2="258.46" y2="290.98"/><line class="cls-10" x1="270.44" y1="276.36" x2="270.44" y2="317.9"/><line class="cls-10" x1="262.67" y1="278.09" x2="262.67" y2="320.56"/><line class="cls-10" x1="266.55" y1="278.3" x2="266.55" y2="320.78"/></g><rect class="cls-119" x="164.35" y="270.95" width="26.43" height="21.2"/><rect class="cls-119" x="109.69" y="270.95" width="17.76" height="17.76"/><rect class="cls-119" x="132.99" y="270.95" width="17.76" height="36.85"/><g class="cls-143"><path class="cls-111" d="M148.33,285.3c2.57,0,4.67,2.09,4.67,4.67v13.98c0,2.57-2.09,4.67-4.67,4.67h-12.49c-2.57,0-4.67-2.09-4.67-4.67v-13.98c0-2.57,2.09-4.67,4.67-4.67h12.49M148.33,283.66h-12.49c-3.49,0-6.31,2.83-6.31,6.31v13.98c0,3.49,2.83,6.31,6.31,6.31h12.49c3.48,0,6.31-2.83,6.31-6.31v-13.98c0-3.49-2.83-6.31-6.31-6.31h0Z"/><line class="cls-10" x1="132.39" y1="274.99" x2="132.39" y2="324.09"/><line class="cls-10" x1="136.28" y1="276.69" x2="136.28" y2="325.78"/><line class="cls-10" x1="140.16" y1="275.56" x2="140.16" y2="318.69"/><line class="cls-10" x1="128.15" y1="290.98" x2="156.02" y2="290.98"/><line class="cls-10" x1="144.05" y1="276.36" x2="144.05" y2="317.9"/><line class="cls-10" x1="151.82" y1="278.09" x2="151.82" y2="320.56"/><line class="cls-10" x1="147.93" y1="278.3" x2="147.93" y2="320.78"/></g><rect class="cls-119" x="223.54" y="322.51" width="26.43" height="21.2" transform="translate(473.5 666.21) rotate(-180)"/><rect class="cls-119" x="286.86" y="322.51" width="17.76" height="17.76" transform="translate(591.49 662.78) rotate(-180)"/><rect class="cls-119" x="263.56" y="322.51" width="17.76" height="36.85" transform="translate(544.88 681.87) rotate(-180)"/><g class="cls-144"><path class="cls-111" d="M278.47,336.85c2.57,0,4.67,2.09,4.67,4.67v13.98c0,2.57-2.09,4.67-4.67,4.67h-12.49c-2.57,0-4.67-2.09-4.67-4.67v-13.98c0-2.57,2.09-4.67,4.67-4.67h12.49M278.47,335.21h-12.49c-3.49,0-6.31,2.83-6.31,6.31v13.98c0,3.49,2.83,6.31,6.31,6.31h12.49c3.49,0,6.31-2.83,6.31-6.31v-13.98c0-3.49-2.83-6.31-6.31-6.31h0Z"/><line class="cls-10" x1="281.92" y1="326.55" x2="281.92" y2="375.64"/><line class="cls-10" x1="278.04" y1="328.24" x2="278.04" y2="377.34"/><line class="cls-10" x1="274.15" y1="327.12" x2="274.15" y2="370.25"/><line class="cls-10" x1="286.16" y1="342.54" x2="258.29" y2="342.54"/><line class="cls-10" x1="270.27" y1="327.91" x2="270.27" y2="369.45"/><line class="cls-10" x1="262.5" y1="329.64" x2="262.5" y2="372.11"/><line class="cls-10" x1="266.38" y1="329.86" x2="266.38" y2="372.33"/></g><rect class="cls-119" x="164.18" y="322.51" width="26.43" height="21.2"/><rect class="cls-119" x="109.52" y="322.51" width="17.76" height="17.76"/><rect class="cls-119" x="132.82" y="322.51" width="17.76" height="36.85"/><g class="cls-147"><path class="cls-111" d="M148.16,336.85c2.57,0,4.67,2.09,4.67,4.67v13.98c0,2.57-2.09,4.67-4.67,4.67h-12.49c-2.57,0-4.67-2.09-4.67-4.67v-13.98c0-2.57,2.09-4.67,4.67-4.67h12.49M148.16,335.21h-12.49c-3.49,0-6.31,2.83-6.31,6.31v13.98c0,3.49,2.83,6.31,6.31,6.31h12.49c3.49,0,6.31-2.83,6.31-6.31v-13.98c0-3.49-2.83-6.31-6.31-6.31h0Z"/><line class="cls-10" x1="132.22" y1="326.55" x2="132.22" y2="375.64"/><line class="cls-10" x1="136.11" y1="328.24" x2="136.11" y2="377.34"/><line class="cls-10" x1="139.99" y1="327.12" x2="139.99" y2="370.25"/><line class="cls-10" x1="127.98" y1="342.54" x2="155.85" y2="342.54"/><line class="cls-10" x1="143.88" y1="327.91" x2="143.88" y2="369.45"/><line class="cls-10" x1="151.65" y1="329.64" x2="151.65" y2="372.11"/><line class="cls-10" x1="147.76" y1="329.86" x2="147.76" y2="372.33"/></g><rect class="cls-119" x="-1.37" y="271.33" width="26.43" height="21.2" transform="translate(23.68 563.85) rotate(-180)"/><rect class="cls-119" x="61.95" y="271.33" width="17.76" height="17.76" transform="translate(141.66 560.41) rotate(-180)"/><rect class="cls-119" x="38.65" y="271.33" width="17.76" height="36.85" transform="translate(95.05 579.5) rotate(-180)"/><g class="cls-151"><path class="cls-111" d="M53.56,285.67c2.57,0,4.67,2.09,4.67,4.67v13.98c0,2.57-2.09,4.67-4.67,4.67h-12.49c-2.57,0-4.67-2.09-4.67-4.67v-13.98c0-2.57,2.09-4.67,4.67-4.67h12.49M53.56,284.03h-12.49c-3.49,0-6.31,2.83-6.31,6.31v13.98c0,3.48,2.83,6.31,6.31,6.31h12.49c3.49,0,6.31-2.83,6.31-6.31v-13.98c0-3.48-2.83-6.31-6.31-6.31h0Z"/><line class="cls-10" x1="57.01" y1="275.36" x2="57.01" y2="324.46"/><line class="cls-10" x1="53.12" y1="277.06" x2="53.12" y2="326.16"/><line class="cls-10" x1="49.24" y1="275.93" x2="49.24" y2="319.06"/><line class="cls-10" x1="61.25" y1="291.35" x2="33.38" y2="291.35"/><line class="cls-10" x1="45.35" y1="276.73" x2="45.35" y2="318.27"/><line class="cls-10" x1="37.59" y1="278.46" x2="37.59" y2="320.93"/><line class="cls-10" x1="41.47" y1="278.68" x2="41.47" y2="321.15"/></g><rect class="cls-119" x="-5.17" y="324.67" width="26.43" height="21.2" transform="translate(16.09 670.54) rotate(-180)"/><rect class="cls-119" x="58.16" y="324.67" width="17.76" height="17.76" transform="translate(134.07 667.1) rotate(-180)"/><rect class="cls-119" x="34.85" y="324.67" width="17.76" height="36.85" transform="translate(87.46 686.19) rotate(-180)"/><g class="cls-155"><path class="cls-111" d="M49.76,339.02c2.57,0,4.67,2.09,4.67,4.67v13.98c0,2.57-2.09,4.67-4.67,4.67h-12.49c-2.57,0-4.67-2.09-4.67-4.67v-13.98c0-2.57,2.09-4.67,4.67-4.67h12.49M49.76,337.37h-12.49c-3.49,0-6.31,2.83-6.31,6.31v13.98c0,3.48,2.83,6.31,6.31,6.31h12.49c3.48,0,6.31-2.83,6.31-6.31v-13.98c0-3.49-2.83-6.31-6.31-6.31h0Z"/><line class="cls-10" x1="53.21" y1="328.71" x2="53.21" y2="377.81"/><line class="cls-10" x1="49.33" y1="330.41" x2="49.33" y2="379.5"/><line class="cls-10" x1="45.44" y1="329.28" x2="45.44" y2="372.41"/><line class="cls-10" x1="57.45" y1="344.7" x2="29.59" y2="344.7"/><line class="cls-10" x1="41.56" y1="330.08" x2="41.56" y2="371.62"/><line class="cls-10" x1="33.79" y1="331.8" x2="33.79" y2="374.28"/><line class="cls-10" x1="37.68" y1="332.02" x2="37.68" y2="374.49"/></g><g id="apartment"><rect class="cls-124" x="622.19" y="263.62" width="226.3" height="184.05" transform="translate(1470.69 711.29) rotate(-180)"/><path class="cls-116" d="M615.48,248.14h247.65v34.13h-213.52c-18.84,0-34.13-15.29-34.13-34.13h0Z" transform="translate(1478.61 530.41) rotate(-180)"/><path class="cls-68" d="M785.26,290.86h22.71v22.14c0,4.24-3.45,7.69-7.69,7.69h-7.34c-4.24,0-7.69-3.45-7.69-7.69v-22.14h0Z" transform="translate(1593.24 611.54) rotate(-180)"/><path class="cls-111" d="M780.5,311.52h54.26v21.73c0,4.43-3.6,8.02-8.02,8.02h-38.21c-4.43,0-8.02-3.6-8.02-8.02v-21.73h0Z" transform="translate(1615.25 652.79) rotate(-180)"/><path class="cls-68" d="M699.53,290.86h22.71v22.14c0,4.24-3.45,7.69-7.69,7.69h-7.34c-4.24,0-7.69-3.45-7.69-7.69v-22.14h0Z" transform="translate(1421.77 611.54) rotate(-180)"/><path class="cls-111" d="M694.76,311.52h54.26v21.73c0,4.43-3.6,8.02-8.02,8.02h-38.21c-4.43,0-8.02-3.6-8.02-8.02v-21.73h0Z" transform="translate(1443.78 652.79) rotate(-180)"/><path class="cls-68" d="M613.79,290.86h22.71v22.14c0,4.24-3.45,7.69-7.69,7.69h-7.34c-4.24,0-7.69-3.45-7.69-7.69v-22.14h0Z" transform="translate(1250.29 611.54) rotate(-180)"/><path class="cls-111" d="M609.02,311.52h54.26v21.73c0,4.43-3.6,8.02-8.02,8.02h-38.21c-4.43,0-8.02-3.6-8.02-8.02v-21.73h0Z" transform="translate(1272.3 652.79) rotate(-180)"/><path class="cls-68" d="M785.26,346.81h22.71v22.14c0,4.24-3.45,7.69-7.69,7.69h-7.34c-4.24,0-7.69-3.45-7.69-7.69v-22.14h0Z" transform="translate(1593.24 723.44) rotate(-180)"/><path class="cls-111" d="M780.5,367.47h54.26v21.73c0,4.43-3.6,8.02-8.02,8.02h-38.21c-4.43,0-8.02-3.6-8.02-8.02v-21.73h0Z" transform="translate(1615.25 764.69) rotate(-180)"/><path class="cls-68" d="M699.53,346.81h22.71v22.14c0,4.24-3.45,7.69-7.69,7.69h-7.34c-4.24,0-7.69-3.45-7.69-7.69v-22.14h0Z" transform="translate(1421.77 723.44) rotate(-180)"/><path class="cls-111" d="M694.76,367.47h54.26v21.73c0,4.43-3.6,8.02-8.02,8.02h-38.21c-4.43,0-8.02-3.6-8.02-8.02v-21.73h0Z" transform="translate(1443.78 764.69) rotate(-180)"/><path class="cls-68" d="M613.79,346.81h22.71v22.14c0,4.24-3.45,7.69-7.69,7.69h-7.34c-4.24,0-7.69-3.45-7.69-7.69v-22.14h0Z" transform="translate(1250.29 723.44) rotate(-180)"/><path class="cls-111" d="M609.02,367.47h54.26v21.73c0,4.43-3.6,8.02-8.02,8.02h-38.21c-4.43,0-8.02-3.6-8.02-8.02v-21.73h0Z" transform="translate(1272.3 764.69) rotate(-180)"/><rect class="cls-121" x="609.02" y="405.14" width="239.47" height="42.52" transform="translate(1457.52 852.81) rotate(-180)"/><path class="cls-68" d="M733.45,405.14h47.04v19.79c0,12.55-10.19,22.73-22.73,22.73h-1.57c-12.55,0-22.73-10.19-22.73-22.73v-19.79h0Z" transform="translate(1513.95 852.81) rotate(-180)"/><path class="cls-88" d="M737.22,409.66h39.5v18.31c0,10.87-8.83,19.7-19.7,19.7h-.11c-10.87,0-19.7-8.83-19.7-19.7v-18.31h0Z" transform="translate(1513.95 857.33) rotate(-180)"/></g><g id="church"><g id="church-2"><rect class="cls-119" x="516.51" y="352.93" width="19.64" height="12.76" rx="4.95" ry="4.95" transform="translate(1052.66 718.63) rotate(180)"/><rect class="cls-119" x="519.02" y="287.36" width="19.64" height="12.76" rx="4.95" ry="4.95" transform="translate(1057.68 587.48) rotate(-180)"/><rect class="cls-98" x="368.86" y="270.93" width="192.24" height="105.87" transform="translate(929.96 647.73) rotate(-180)"/><rect class="cls-119" x="460.6" y="362.64" width="19.64" height="12.76" rx="4.95" ry="4.95" transform="translate(940.85 738.05) rotate(180)"/><rect class="cls-119" x="455.16" y="295.82" width="19.64" height="12.76" rx="4.95" ry="4.95" transform="translate(929.96 604.41) rotate(-180)"/><rect class="cls-119" x="491.96" y="322.14" width="19.64" height="12.76" rx="4.95" ry="4.95" transform="translate(1003.55 657.05) rotate(-180)"/><polygon class="cls-135" points="368.73 269.31 314.48 239.64 312.13 375.19 368.73 375.19 368.73 269.31"/><rect class="cls-119" x="423.07" y="333.25" width="19.64" height="12.76" rx="4.95" ry="4.95" transform="translate(865.77 679.25) rotate(180)"/><rect class="cls-119" x="381.59" y="359.26" width="19.64" height="12.76" rx="4.95" ry="4.95" transform="translate(782.81 731.28) rotate(180)"/><rect class="cls-119" x="374.49" y="285.57" width="19.64" height="12.76" rx="4.95" ry="4.95" transform="translate(768.62 583.91) rotate(-180)"/><rect class="cls-135" x="368.66" y="270.93" width="188.86" height="8.56" transform="translate(926.19 550.41) rotate(-180)"/><path class="cls-132" d="M389.28,286.36h23.19v25.34c0,6.4-5.19,11.59-11.59,11.59h0c-6.4,0-11.59-5.19-11.59-11.59v-25.34h0Z" transform="translate(801.74 609.66) rotate(-180)"/><path class="cls-134" d="M389.28,286.36h19.8v24.42c0,5.46-4.44,9.9-9.9,9.9h0c-5.46,0-9.9-4.44-9.9-9.9v-24.42h0Z" transform="translate(798.35 607.04) rotate(180)"/><path class="cls-132" d="M436.73,286.36h23.19v25.34c0,6.4-5.19,11.59-11.59,11.59h0c-6.4,0-11.59-5.19-11.59-11.59v-25.34h0Z" transform="translate(896.65 609.66) rotate(-180)"/><path class="cls-134" d="M436.73,286.36h19.8v24.42c0,5.46-4.44,9.9-9.9,9.9h0c-5.46,0-9.9-4.44-9.9-9.9v-24.42h0Z" transform="translate(893.26 607.04) rotate(180)"/><path class="cls-132" d="M485.77,286.36h23.19v25.34c0,6.4-5.19,11.59-11.59,11.59h0c-6.4,0-11.59-5.19-11.59-11.59v-25.34h0Z" transform="translate(994.72 609.66) rotate(180)"/><path class="cls-134" d="M485.77,286.36h19.8v24.42c0,5.46-4.44,9.9-9.9,9.9h0c-5.46,0-9.9-4.44-9.9-9.9v-24.42h0Z" transform="translate(991.34 607.04) rotate(180)"/><polygon class="cls-131" points="314.48 239.64 372.07 272.89 340.67 219.24 314.48 239.64"/><path class="cls-110" d="M611.05,272.89h-236.21c-8.57,0-16.45-4.69-20.54-12.22l-17.81-32.81c-2.11-3.89.71-8.62,5.13-8.61l232.74.3,36.68,53.34Z"/><path class="cls-100" d="M328.94,299.55l9.06,5.23c2.19,1.26,3.97-.09,3.97-3v-2.09c0-2.91-1.79-6.33-3.97-7.59l-9.06-5.23c-2.19-1.26-3.97.09-3.97,3v2.09c0,2.91,1.79,6.33,3.97,7.59Z"/><path class="cls-100" d="M350.18,279.29l9.06,5.23c2.19,1.26,3.97-.09,3.97-3v-2.09c0-2.91-1.79-6.33-3.97-7.59l-9.06-5.23c-2.19-1.26-3.97.09-3.97,3v2.09c0,2.91,1.79,6.33,3.97,7.59Z"/><path class="cls-100" d="M347.08,366.37l9.06,5.23c2.19,1.26,3.97-.09,3.97-3v-2.09c0-2.91-1.79-6.33-3.97-7.59l-9.06-5.23c-2.19-1.26-3.97.09-3.97,3v2.09c0,2.91,1.79,6.33,3.97,7.59Z"/><path class="cls-132" d="M326.07,268.47l-.94-.55c-3.35-1.93-6.06.12-6.06,4.58v67.58s13.06,7.54,13.06,7.54v-67.58c0-4.46-2.71-9.65-6.06-11.58Z"/><path class="cls-134" d="M326.96,268.99l-.81-.47c-2.86-1.65-5.17.1-5.17,3.91v63.39s11.15,6.44,11.15,6.44v-63.39c0-3.81-2.32-8.24-5.17-9.89Z"/><path class="cls-132" d="M348.3,279.85l-.94-.55c-3.35-1.93-6.06.12-6.06,4.58v67.58s13.06,7.54,13.06,7.54v-67.58c0-4.46-2.71-9.65-6.06-11.58Z"/><path class="cls-134" d="M349.19,280.36l-.81-.47c-2.86-1.65-5.17.1-5.17,3.91v63.39s11.15,6.44,11.15,6.44v-63.39c0-3.81-2.32-8.24-5.17-9.89Z"/><line class="cls-27" x1="368.86" y1="272.89" x2="368.73" y2="375.19"/><g id="Church"><path class="cls-63" d="M545.51,94.46h14.26c2.39,0,4.33,1.94,4.33,4.33v24.09s8.25,0,8.25,0v-24.09c0-2.39,1.94-4.33,4.33-4.33h14.26c2.39,0,4.33,1.94,4.33,4.33v24.09s8.25,0,8.25,0v-24.09c0-2.39,1.94-4.33,4.33-4.33h14.26c2.39,0,4.33,1.94,4.33,4.33v24.09s0,.4,0,.4v262.64h-85.28V123.28s0-.4,0-.4v-24.09c0-2.39,1.94-4.33,4.33-4.33Z"/><g id="clock"><circle class="cls-15" cx="585.15" cy="177.08" r="23.87"/><line class="cls-28" x1="585.15" y1="156.19" x2="585.15" y2="162.25"/><line class="cls-28" x1="595.6" y1="158.99" x2="592.56" y2="164.24"/><line class="cls-28" x1="603.25" y1="166.63" x2="597.99" y2="169.67"/><line class="cls-28" x1="606.05" y1="177.08" x2="599.98" y2="177.08"/><line class="cls-28" x1="603.25" y1="187.53" x2="597.99" y2="184.5"/><line class="cls-28" x1="595.6" y1="195.18" x2="592.56" y2="189.92"/><line class="cls-28" x1="585.15" y1="197.98" x2="585.15" y2="191.91"/><line class="cls-28" x1="574.7" y1="195.18" x2="577.74" y2="189.92"/><line class="cls-28" x1="567.05" y1="187.53" x2="572.31" y2="184.5"/><line class="cls-28" x1="564.25" y1="177.08" x2="570.32" y2="177.08"/><line class="cls-28" x1="567.05" y1="166.63" x2="572.31" y2="169.67"/><line class="cls-28" x1="574.7" y1="158.99" x2="577.74" y2="164.24"/></g><rect class="cls-97" x="578.35" y="222.3" width="32.7" height="19.98" rx="9.99" ry="9.99" transform="translate(1189.4 464.58) rotate(-180)"/><rect class="cls-97" x="542.84" y="130.23" width="32.7" height="19.98" rx="9.99" ry="9.99" transform="translate(1118.37 280.43) rotate(180)"/><rect class="cls-97" x="541.18" y="260.41" width="32.7" height="19.98" rx="9.99" ry="9.99" transform="translate(1115.05 540.8) rotate(180)"/><rect class="cls-97" x="592.67" y="292.22" width="32.7" height="19.98" rx="9.99" ry="9.99" transform="translate(1218.05 604.41) rotate(180)"/></g></g><line class="cls-47" x1="585.15" y1="177.08" x2="576.22" y2="177.08"/><line class="cls-42" x1="585.15" y1="178" x2="585.15" y2="164.74"/></g><g id="building-2"><rect class="cls-122" x="401.56" y="430.76" width="303.52" height="78.41" transform="translate(1106.64 939.93) rotate(-180)"/><path class="cls-29" d="M498.82,438.02h54.27c1.93,0,3.67.78,4.93,2.04s2.04,3.01,2.04,4.93v39.8c0,3.85-3.12,6.97-6.97,6.97h-54.27c-3.85,0-6.97-3.12-6.97-6.97v-39.8c0-3.85,3.12-6.97,6.97-6.97Z"/><polyline class="cls-26" points="558.01 440.06 532.31 460.04 535.58 464.9 498.82 491.77"/><polyline class="cls-26" points="549.5 438.02 523.8 458 527.07 462.85 493.49 487.4"/><g id="b"><path class="cls-29" d="M626.51,438.02h54.27c1.93,0,3.67.78,4.93,2.04,1.26,1.26,2.04,3.01,2.04,4.93v39.8c0,3.85-3.12,6.97-6.97,6.97h-54.27c-3.85,0-6.97-3.12-6.97-6.97v-39.8c0-3.85,3.12-6.97,6.97-6.97Z"/><polyline class="cls-26" points="685.71 440.06 660.01 460.04 663.28 464.9 626.51 491.77"/><polyline class="cls-26" points="677.19 438.02 651.49 458 654.76 462.85 621.18 487.4"/><rect class="cls-87" x="399.18" y="447.67" width="54.96" height="61.5" transform="translate(853.31 956.84) rotate(-180)"/><path class="cls-96" d="M366.81,366.39h325.7c3.67,0,7.09,1.83,9.13,4.88l44.54,66.55c4.88,7.3-.35,17.1-9.13,17.1h-325.7c-3.67,0-7.09-1.83-9.13-4.88l-44.54-66.55c-4.88-7.3.35-17.1,9.13-17.1Z"/></g></g><g id="school"><polygon class="cls-68" points="-10.97 338.96 -10.97 389.52 408.02 388.75 408.02 379.77 337.36 338.96 -10.97 338.96"/><polygon class="cls-51" points="-10.97 389.52 -10.97 540.09 408.02 541.04 408.02 388.75 -10.97 389.52"/><path class="cls-13" d="M49.38,319.23v221.7s124.04,0,124.04,0v-221.7s-52.91-36.77-52.91-36.77c-3.91-2.69-9.03-2.8-13.02-.26l-58.11,37.03Z"/><path class="cls-14" d="M49.38,320.79v-1.56s58.11-37.03,58.11-37.03c3.99-2.54,9.11-2.43,13.02.26l52.91,36.77v1.95s3.8-18.86,3.8-18.86c.13-3.54-1.66-6.89-4.7-8.66l-49.47-29.03c-5.57-3.28-12.47-3.28-18.04.03l-54.02,31.88c-2.91,1.72-4.68,4.83-4.7,8.21l3.09,16.03Z"/><path class="cls-23" d="M72.1,464.06c0-3.15,1.41-6.15,3.91-8.44,5.98-5.49,18.71-14.68,37.35-15.24,16.15-.48,29.18,9.76,35.19,15.52,2.34,2.24,3.6,5.14,3.6,8.15v59.5h-80.05v-59.49Z"/><path class="cls-12" d="M122.59,347.63s0-.02,0-.03v-.63h.03c.35-8.89,7.66-15.99,16.66-15.99,9,0,16.31,7.1,16.66,15.99h.03v.59s0,.05,0,.07,0,.05,0,.07v45.84h-33.38v-45.88s0-.02,0-.03Z"/><path class="cls-12" d="M64.81,347.21s0-.02,0-.03v-.63h.03c.35-8.89,7.66-15.99,16.66-15.99,9,0,16.31,7.1,16.66,15.99h.03v.59s0,.05,0,.07,0,.05,0,.07v45.84h-33.38v-45.88s0-.02,0-.03Z"/><path class="cls-68" d="M103.05,272.58h22.12s0-35.4,0-35.4l-5.66-17.65c-1.57-4.9-8.46-5-10.18-.15l-6.28,17.79v35.4Z"/><path class="cls-123" d="M364.15,405.34h15.98v17.43c0,4.41-3.58,7.99-7.99,7.99h0c-4.41,0-7.99-3.58-7.99-7.99v-17.43h0Z" transform="translate(744.28 836.09) rotate(-180)"/><path class="cls-123" d="M304.79,405.34h15.98v17.43c0,4.41-3.58,7.99-7.99,7.99h0c-4.41,0-7.99-3.58-7.99-7.99v-17.43h0Z" transform="translate(625.56 836.09) rotate(-180)"/><path class="cls-123" d="M245.43,405.34h15.98v17.43c0,4.41-3.58,7.99-7.99,7.99h0c-4.41,0-7.99-3.58-7.99-7.99v-17.43h0Z" transform="translate(506.85 836.09) rotate(180)"/><path class="cls-123" d="M186.07,405.34h15.98v17.43c0,4.41-3.58,7.99-7.99,7.99h0c-4.41,0-7.99-3.58-7.99-7.99v-17.43h0Z" transform="translate(388.13 836.09) rotate(180)"/><path class="cls-123" d="M363.58,471.11h15.98v17.43c0,4.41-3.58,7.99-7.99,7.99h0c-4.41,0-7.99-3.58-7.99-7.99v-17.43h0Z" transform="translate(743.14 967.64) rotate(180)"/><path class="cls-123" d="M304.22,471.11h15.98v17.43c0,4.41-3.58,7.99-7.99,7.99h0c-4.41,0-7.99-3.58-7.99-7.99v-17.43h0Z" transform="translate(624.42 967.64) rotate(-180)"/><path class="cls-123" d="M244.86,471.11h15.98v17.43c0,4.41-3.58,7.99-7.99,7.99h0c-4.41,0-7.99-3.58-7.99-7.99v-17.43h0Z" transform="translate(505.7 967.64) rotate(-180)"/><path class="cls-123" d="M185.5,471.11h15.98v17.43c0,4.41-3.58,7.99-7.99,7.99h0c-4.41,0-7.99-3.58-7.99-7.99v-17.43h0Z" transform="translate(386.98 967.64) rotate(180)"/><path class="cls-123" d="M8.03,471.11h15.98v17.43c0,4.41-3.58,7.99-7.99,7.99h0c-4.41,0-7.99-3.58-7.99-7.99v-17.43h0Z" transform="translate(32.04 967.64) rotate(-180)"/><path class="cls-123" d="M7.83,405.61h15.98v17.43c0,4.41-3.58,7.99-7.99,7.99h0c-4.41,0-7.99-3.58-7.99-7.99v-17.43h0Z" transform="translate(31.64 836.65) rotate(180)"/><rect class="cls-13" x="42.91" y="401.56" width="137.78" height="8.65" transform="translate(223.6 811.76) rotate(-180)"/><rect class="cls-21" x="48.41" y="522.64" width="124.08" height="8.47" transform="translate(220.91 1053.74) rotate(-180)"/><rect class="cls-9" x="39.94" y="531.44" width="140.98" height="8.47" transform="translate(220.86 1071.35) rotate(-180)"/><rect class="cls-45" x="30.89" y="540.25" width="159.18" height="8.47" transform="translate(220.96 1088.96) rotate(-180)"/><rect class="cls-41" x="19.86" y="549.05" width="181.08" height="8.47" transform="translate(220.81 1106.58) rotate(-180)"/></g><rect class="cls-99" x="3.6" y="135.58" width="18.77" height="10.54" rx="3.6" ry="3.6"/><rect class="cls-99" x="92.71" y="160.57" width="18.77" height="10.54" rx="3.6" ry="3.6"/><rect class="cls-99" x="25.59" y="109.76" width="18.77" height="10.54" rx="3.6" ry="3.6"/><rect class="cls-99" x="22.36" y="186.07" width="18.77" height="10.54" rx="3.6" ry="3.6"/><rect class="cls-99" x="125.17" y="177.26" width="18.77" height="10.54" rx="3.6" ry="3.6"/></g><ellipse class="cls-81" cx="217.74" cy="534.95" rx="15.69" ry="22.71"/><ellipse class="cls-115" cx="248.25" cy="535.68" rx="15.69" ry="22.71"/><ellipse class="cls-115" cx="309.26" cy="536.4" rx="15.69" ry="22.71"/><ellipse class="cls-81" cx="339.76" cy="536.4" rx="15.69" ry="22.71"/><ellipse class="cls-81" cx="278.75" cy="534.95" rx="15.69" ry="22.71"/><ellipse class="cls-81" cx="279.42" cy="535.68" rx="15.69" ry="22.71"/><ellipse class="cls-115" cx="309.93" cy="536.4" rx="15.69" ry="22.71"/><ellipse class="cls-115" cx="370.93" cy="537.13" rx="15.69" ry="22.71"/><ellipse class="cls-81" cx="401.44" cy="537.13" rx="15.69" ry="22.71"/><ellipse class="cls-81" cx="340.43" cy="535.68" rx="15.69" ry="22.71"/><ellipse class="cls-81" cx="9.36" cy="531.83" rx="15.69" ry="22.71"/></g><path class="cls-111" d="M1211.37-12.97h0c21.08,0,38.2,17.12,38.2,38.2v115.85h-76.4V25.23c0-21.08,17.12-38.2,38.2-38.2Z"/><path class="cls-46" d="M1216.27,216.32v-34.77s21.53-19.95,22.67-47.32"/><line class="cls-46" x1="1216.27" y1="181.55" x2="1216.27" y2="119.98"/><path class="cls-46" d="M1216.27,157.04s-25.22-11.4-24.65-37.05"/><g id="park"><ellipse class="cls-95" cx="377.52" cy="699.38" rx="86.53" ry="149.88" transform="translate(-323.9 1073.11) rotate(-89.69)"/><ellipse class="cls-102" cx="406.01" cy="716.57" rx="63.48" ry="123.14" transform="translate(-312.75 1118.69) rotate(-89.69)"/><ellipse class="cls-77" cx="374.49" cy="1013.69" rx="56.4" ry="97.7" transform="translate(-641.22 1382.68) rotate(-89.69)"/><ellipse class="cls-91" cx="49.38" cy="630.79" rx="26.96" ry="43.51"/><ellipse class="cls-91" cx="155.98" cy="630.79" rx="26.96" ry="43.51"/><ellipse class="cls-70" cx="48.8" cy="682.67" rx="26.96" ry="43.51"/><ellipse class="cls-70" cx="155.39" cy="682.67" rx="26.96" ry="43.51"/><ellipse class="cls-66" cx="65.27" cy="729.99" rx="26.96" ry="43.51"/><ellipse class="cls-66" cx="171.87" cy="729.99" rx="26.96" ry="43.51"/><path class="cls-123" d="M28.25,926.21h13.21c39.77,0,72.06,32.29,72.06,72.06v68.82c0,16.63-13.5,30.13-30.13,30.13H-13.69c-16.63,0-30.13-13.5-30.13-30.13v-68.82c0-39.77,32.29-72.06,72.06-72.06Z"/><path class="cls-46" d="M10.15,1154.8s11.97-22.8,18.24-106.6"/><path class="cls-46" d="M62.61,1154.8s-11.97-22.8-18.24-106.6"/><path class="cls-46" d="M28.39,1154.8s10.08-58.72,6.46-103.75"/><path class="cls-137" d="M561.28,903.29c18.88,0,34.4-15.11,34.66-33.99.01-1,.02-2,.02-3.01,0-47.5-15.53-86.01-34.68-86.01s-34.68,38.51-34.68,86.01c0,1.01,0,2.01.02,3.01.26,18.88,15.78,33.99,34.66,33.99h0Z"/><g class="cls-150"><path class="cls-126" d="M561.28,903.29c18.88,0,34.4-15.11,34.66-33.99.01-1,.02-2,.02-3.01,0-47.5-15.53-86.01-34.68-86.01s-34.68,38.51-34.68,86.01c0,1.01,0,2.01.02,3.01.26,18.88,15.78,33.99,34.66,33.99h0Z"/><polyline class="cls-22" points="608.87 798.6 561.28 831.59 561.28 936.55"/><line class="cls-22" x1="526.6" y1="801.45" x2="561.28" y2="831.59"/><line class="cls-22" x1="507.97" y1="867.57" x2="561.28" y2="881.25"/><line class="cls-22" x1="608.87" y1="849.9" x2="561.28" y2="867.57"/></g><line class="cls-46" x1="561.28" y1="828.78" x2="561.28" y2="933.73"/><ellipse class="cls-81" cx="866.55" cy="1021.68" rx="46.25" ry="23.7" transform="translate(-339.02 1605.92) rotate(-75.55)"/><ellipse class="cls-115" cx="916.49" cy="994.21" rx="46.25" ry="23.7" transform="translate(-274.94 1633.66) rotate(-75.55)"/><ellipse class="cls-115" cx="1016.38" cy="937.9" rx="46.25" ry="23.7" transform="translate(-145.45 1688.13) rotate(-75.55)"/><ellipse class="cls-81" cx="1066.32" cy="909.07" rx="46.25" ry="23.7" transform="translate(-80.05 1714.85) rotate(-75.55)"/><ellipse class="cls-81" cx="966.43" cy="964.01" rx="46.25" ry="23.7" transform="translate(-208.22 1659.36) rotate(-75.55)"/><path class="cls-67" d="M963.15,422.09c10.21,0,18.85-7.57,20.16-17.7,1.07-8.28,1.84-16.9,2.28-25.77.28-5.68.42-11.47.42-17.34,0-78.08-25.52-141.38-57.01-141.38s-57.01,63.3-57.01,141.38c0,15.03.95,29.52,2.7,43.1,1.31,10.13,9.94,17.7,20.16,17.7h68.3Z"/><path class="cls-108" d="M992.48,355.52c14.74,0,26.65-11.89,26.83-26.62,0-.67.01-1.34.01-2.01,0-36.76-12.02-66.57-26.84-66.57s-26.84,29.8-26.84,66.57c0,.67,0,1.34.01,2.01.18,14.74,12.09,26.62,26.83,26.62h0Z"/><line class="cls-46" x1="929" y1="518.31" x2="929" y2="329.05"/><path class="cls-46" d="M929,463.01s14.11,2.28,19.82-53.59"/><path class="cls-46" d="M883.26,419.9c.83-.71,18.51,27.48,45.74,19.95"/><path class="cls-127" d="M888.25,436.23c18.88,0,34.4-15.11,34.66-33.99.01-1,.02-2,.02-3.01,0-47.5-15.53-86.01-34.68-86.01s-34.68,38.51-34.68,86.01c0,1.01,0,2.01.02,3.01.26,18.88,15.78,33.99,34.66,33.99h0Z"/><ellipse class="cls-81" cx="854.81" cy="561.15" rx="46.25" ry="23.7" transform="translate(98.14 1248.92) rotate(-75.55)"/><ellipse class="cls-115" cx="904.75" cy="533.67" rx="46.25" ry="23.7" transform="translate(162.22 1276.66) rotate(-75.55)"/><ellipse class="cls-115" cx="1004.63" cy="477.37" rx="46.25" ry="23.7" transform="translate(291.71 1331.13) rotate(-75.55)"/><ellipse class="cls-81" cx="1054.58" cy="448.54" rx="46.25" ry="23.7" transform="translate(357.11 1357.85) rotate(-75.55)"/><ellipse class="cls-81" cx="954.69" cy="503.48" rx="46.25" ry="23.7" transform="translate(228.94 1302.36) rotate(-75.55)"/><line class="cls-46" x1="1032.54" y1="750.92" x2="1030.21" y2="528.03"/><g class="cls-149"><path class="cls-86" d="M1064.36,644.38c10.21,0,18.85-7.57,20.16-17.7,1.75-13.59,2.7-28.07,2.7-43.1,0-78.08-25.52-141.38-57.01-141.38s-57.01,63.3-57.01,141.38c0,15.03.95,29.52,2.7,43.1,1.31,10.13,9.94,17.7,20.16,17.7h68.3Z"/><polyline class="cls-46" points="1032.54 750.35 1030.21 527.46 983.51 460.19"/><line class="cls-46" x1="1087.21" y1="527.46" x2="1032.54" y2="582.75"/><line class="cls-46" x1="1066.74" y1="444.8" x2="1030.21" y2="527.46"/><line class="cls-46" x1="960.71" y1="589.59" x2="1030.21" y2="618.1"/><line class="cls-46" x1="956.72" y1="522.89" x2="1030.37" y2="543.29"/></g><line class="cls-48" x1="221.98" y1="589.57" x2="224.06" y2="718.83"/><line class="cls-48" x1="223.55" y1="687.08" x2="204.58" y2="664.78"/><line class="cls-48" x1="253.73" y1="657.6" x2="224.06" y2="694.64"/><path class="cls-99" d="M205.67,549.22h36.79c9.46,0,17.14,7.68,17.14,17.14v37.09c0,19.61-15.92,35.53-35.53,35.53h0c-19.61,0-35.53-15.92-35.53-35.53v-37.09c0-9.46,7.68-17.14,17.14-17.14Z" transform="translate(448.13 1188.2) rotate(-180)"/><path class="cls-123" d="M247.45,625.03h17.09c4.39,0,7.96,3.57,7.96,7.96v17.23c0,9.11-7.4,16.51-16.51,16.51h0c-9.11,0-16.51-7.4-16.51-16.51v-17.23c0-4.39,3.57-7.96,7.96-7.96Z" transform="translate(512 1291.77) rotate(-180)"/><path class="cls-118" d="M200.19,653.08h8.78c3.12,0,5.66,2.54,5.66,5.66v4.39c0,5.55-4.5,10.05-10.05,10.05h0c-5.55,0-10.05-4.5-10.05-10.05v-4.39c0-3.12,2.54-5.66,5.66-5.66Z" transform="translate(409.16 1326.26) rotate(-180)"/><path class="cls-61" d="M801.59,506.68h0c21.08,0,38.2,17.12,38.2,38.2v115.85h-76.4v-115.85c0-21.08,17.12-38.2,38.2-38.2Z"/><path class="cls-46" d="M806.49,735.97v-34.77s21.53-19.95,22.67-47.32"/><line class="cls-46" x1="806.49" y1="701.2" x2="806.49" y2="639.63"/><path class="cls-46" d="M806.49,676.68s-25.22-11.4-24.65-37.05"/><line class="cls-8" x1="723.59" y1="800.36" x2="723.59" y2="641.42"/><path class="cls-89" d="M821.37,727.68c-88.22-11.81-105.6-14.86-195.56,0,51.28-77.87,90.28-168.05,90.28-168.05,3.21-5.98,11.78-5.98,14.99,0,0,0,43.78,114.95,90.28,168.05Z"/><path class="cls-73" d="M795.37,658.96c-64.76-8.67-77.52-10.9-143.56,0,37.64-57.16,66.27-123.36,66.27-123.36,2.36-4.39,8.65-4.39,11.01,0,0,0,32.14,84.39,66.27,123.36Z"/><path class="cls-81" d="M773.59,595.63c-48.22-15.15-53.78-15.37-100,0,35.55-40.48,46.17-85.93,46.17-85.93,1.64-3.06,6.02-3.06,7.67,0,0,0,8.17,47.89,46.17,85.93Z"/><line class="cls-8" x1="656.11" y1="895.03" x2="656.11" y2="736.09"/><path class="cls-89" d="M723.59,803.24c-60.89-11.81-72.88-14.86-134.97,0,35.39-77.87,62.31-168.05,62.31-168.05,2.22-5.98,8.13-5.98,10.35,0,0,0,30.22,114.95,62.31,168.05Z"/><path class="cls-73" d="M705.65,734.51c-44.7-8.67-53.5-10.9-99.08,0,25.98-57.16,45.74-123.36,45.74-123.36,1.63-4.39,5.97-4.39,7.6,0,0,0,22.18,84.39,45.74,123.36Z"/><path class="cls-65" d="M690.62,671.19c-33.28-15.15-37.12-15.37-69.02,0,24.54-40.48,31.86-85.93,31.86-85.93,1.13-3.06,4.16-3.06,5.29,0,0,0,5.64,47.89,31.86,85.93Z"/><line class="cls-8" x1="810.5" y1="876.92" x2="810.5" y2="717.98"/><path class="cls-89" d="M877.99,785.14c-60.89-11.81-72.88-14.86-134.97,0,35.39-77.87,62.31-168.05,62.31-168.05,2.22-5.98,8.13-5.98,10.35,0,0,0,30.22,114.95,62.31,168.05Z"/><path class="cls-73" d="M860.04,716.41c-44.7-8.67-53.5-10.9-99.08,0,25.98-57.16,45.74-123.36,45.74-123.36,1.63-4.39,5.97-4.39,7.6,0,0,0,22.18,84.39,45.74,123.36Z"/><path class="cls-81" d="M845.01,653.08c-33.28-15.15-37.12-15.37-69.02,0,24.54-40.48,31.86-85.93,31.86-85.93,1.13-3.06,4.16-3.06,5.29,0,0,0,5.64,47.89,31.86,85.93Z"/><line class="cls-20" x1="766.86" y1="900.95" x2="766.86" y2="758.02"/><path class="cls-89" d="M843.1,835.6c-68.78-10.62-82.34-13.36-152.48,0,39.98-70.02,70.39-151.12,70.39-151.12,2.5-5.37,9.19-5.37,11.69,0,0,0,34.14,103.37,70.39,151.12Z"/><path class="cls-73" d="M822.82,773.79c-50.49-7.8-60.44-9.81-111.93,0,29.35-51.4,51.68-110.94,51.68-110.94,1.84-3.95,6.74-3.95,8.58,0,0,0,25.06,75.89,51.68,110.94Z"/><path class="cls-74" d="M805.84,716.84c-37.6-13.63-41.93-13.83-77.97,0,27.72-36.4,36-77.28,36-77.28,1.28-2.75,4.7-2.75,5.98,0,0,0,6.37,43.07,36,77.28Z"/><line class="cls-8" x1="713.54" y1="988.75" x2="713.54" y2="829.81"/><path class="cls-89" d="M781.02,896.96c-60.89-11.81-72.88-14.86-134.97,0,35.39-77.87,62.31-168.05,62.31-168.05,2.22-5.98,8.13-5.98,10.35,0,0,0,30.22,114.95,62.31,168.05Z"/><path class="cls-73" d="M763.08,828.24c-44.7-8.67-53.5-10.9-99.08,0,25.98-57.16,45.74-123.36,45.74-123.36,1.63-4.39,5.97-4.39,7.6,0,0,0,22.18,84.39,45.74,123.36Z"/><path class="cls-81" d="M748.05,764.91c-33.28-15.15-37.12-15.37-69.02,0,24.54-40.48,31.86-85.93,31.86-85.93,1.13-3.06,4.16-3.06,5.29,0,0,0,5.64,47.89,31.86,85.93Z"/><path class="cls-62" d="M1004.63,636.27h0c21.08,0,38.2,17.12,38.2,38.2v115.85h-76.4v-115.85c0-21.08,17.12-38.2,38.2-38.2Z"/><path class="cls-46" d="M1009.53,865.57v-34.77s21.53-19.95,22.67-47.32"/><line class="cls-2" x1="1009.53" y1="830.79" x2="1009.53" y2="769.23"/><path class="cls-46" d="M1009.53,806.28s-25.22-11.4-24.65-37.05"/><line class="cls-25" x1="446.63" y1="791.35" x2="446.63" y2="645.97"/><path class="cls-25" d="M412.48,686.45s2.17,45.61,34.15,68.41c0,0,37.68-25,38.82-80.34"/><path class="cls-59" d="M469.56,725.08l-5.41-3.06c-10.87-6.15-24.17-6.15-35.04,0l-5.41,3.06c-14.83,8.39-33.72,5.24-44.59-7.88-5.94-7.17-9.51-16.38-9.51-26.42v-35.57c0-42.54,34.48-77.02,77.02-77.02h0c42.54,0,77.02,34.48,77.02,77.02v35.57c0,10.04-3.57,19.25-9.51,26.42-10.87,13.13-29.76,16.27-44.59,7.88Z"/><path class="cls-60" d="M902.06,593.11h0c21.08,0,38.2,17.12,38.2,38.2v115.85h-76.4v-115.85c0-21.08,17.12-38.2,38.2-38.2Z"/><path class="cls-46" d="M906.95,822.41v-34.77s21.53-19.95,22.67-47.32"/><line class="cls-46" x1="906.95" y1="787.64" x2="906.95" y2="726.07"/><path class="cls-46" d="M906.95,763.12s-25.22-11.4-24.65-37.05"/><line class="cls-8" x1="880.64" y1="922" x2="880.64" y2="763.06"/><path class="cls-89" d="M948.13,830.22c-60.89-11.81-72.88-14.86-134.97,0,35.39-77.87,62.31-168.05,62.31-168.05,2.22-5.98,8.13-5.98,10.35,0,0,0,30.22,114.95,62.31,168.05Z"/><path class="cls-73" d="M930.18,761.49c-44.7-8.67-53.5-10.9-99.08,0,25.98-57.16,45.74-123.36,45.74-123.36,1.63-4.39,5.97-4.39,7.6,0,0,0,22.18,84.39,45.74,123.36Z"/><path class="cls-81" d="M915.15,698.16c-33.28-15.15-37.12-15.37-69.02,0,24.54-40.48,31.86-85.93,31.86-85.93,1.13-3.06,4.16-3.06,5.29,0,0,0,5.64,47.89,31.86,85.93Z"/><path class="cls-137" d="M636.5,976.75c18.88,0,34.4-15.11,34.66-33.99.01-1,.02-2,.02-3.01,0-47.5-15.53-86.01-34.68-86.01s-34.68,38.51-34.68,86.01c0,1.01,0,2.01.02,3.01.26,18.88,15.78,33.99,34.66,33.99h0Z"/><g class="cls-148"><path class="cls-126" d="M636.5,976.75c18.88,0,34.4-15.11,34.66-33.99.01-1,.02-2,.02-3.01,0-47.5-15.53-86.01-34.68-86.01s-34.68,38.51-34.68,86.01c0,1.01,0,2.01.02,3.01.26,18.88,15.78,33.99,34.66,33.99h0Z"/><polyline class="cls-22" points="684.1 872.06 636.5 905.06 636.5 1010.01"/><line class="cls-22" x1="601.82" y1="874.91" x2="636.5" y2="905.06"/><line class="cls-22" x1="583.19" y1="941.04" x2="636.5" y2="954.72"/><line class="cls-22" x1="684.1" y1="923.36" x2="636.5" y2="941.04"/></g><line class="cls-46" x1="636.5" y1="902.24" x2="636.5" y2="1007.2"/><path class="cls-56" d="M341.7,928.79c-10.21,0-18.85-7.57-20.16-17.7-1.07-8.28-1.84-16.9-2.28-25.77-.28-5.68-.42-11.47-.42-17.34,0-78.08,25.52-141.38,57.01-141.38,31.48,0,57.01,63.3,57.01,141.38,0,15.03-.95,29.52-2.7,43.1-1.31,10.13-9.94,17.7-20.16,17.7h-68.3Z"/><path class="cls-54" d="M312.38,862.22c-14.74,0-26.65-11.89-26.83-26.62,0-.67-.01-1.34-.01-2.01,0-36.76,12.02-66.57,26.84-66.57,14.82,0,26.84,29.8,26.84,66.57,0,.67,0,1.34-.01,2.01-.18,14.74-12.09,26.62-26.83,26.62h0Z"/><line class="cls-46" x1="375.85" y1="1025" x2="375.85" y2="835.74"/><path class="cls-46" d="M375.85,969.71s-14.11,2.28-19.82-53.59"/><path class="cls-46" d="M421.59,926.59c-.83-.71-18.51,27.48-45.74,19.95"/><path class="cls-55" d="M416.61,942.92c-18.88,0-34.4-15.11-34.66-33.99-.01-1-.02-2-.02-3.01,0-47.5,15.53-86.01,34.68-86.01,19.15,0,34.68,38.51,34.68,86.01,0,1.01,0,2.01-.02,3.01-.26,18.88-15.78,33.99-34.66,33.99h0Z"/><path class="cls-137" d="M781.02,971.48c18.88,0,34.4-15.11,34.66-33.99.01-1,.02-2,.02-3.01,0-47.5-15.53-86.01-34.68-86.01s-34.68,38.51-34.68,86.01c0,1.01,0,2.01.02,3.01.26,18.88,15.78,33.99,34.66,33.99h0Z"/><g class="cls-152"><path class="cls-126" d="M781.02,971.48c18.88,0,34.4-15.11,34.66-33.99.01-1,.02-2,.02-3.01,0-47.5-15.53-86.01-34.68-86.01s-34.68,38.51-34.68,86.01c0,1.01,0,2.01.02,3.01.26,18.88,15.78,33.99,34.66,33.99h0Z"/><polyline class="cls-22" points="828.61 866.78 781.02 899.78 781.02 1004.74"/><line class="cls-22" x1="746.34" y1="869.63" x2="781.02" y2="899.78"/><line class="cls-22" x1="727.71" y1="935.76" x2="781.02" y2="949.44"/><line class="cls-22" x1="828.61" y1="918.09" x2="781.02" y2="935.76"/></g><line class="cls-46" x1="781.02" y1="896.96" x2="781.02" y2="1001.92"/><path class="cls-137" d="M854.81,937.44c18.88,0,34.4-15.11,34.66-33.99.01-1,.02-2,.02-3.01,0-47.5-15.53-86.01-34.68-86.01s-34.68,38.51-34.68,86.01c0,1.01,0,2.01.02,3.01.26,18.88,15.78,33.99,34.66,33.99h0Z"/><g class="cls-154"><path class="cls-126" d="M854.81,937.44c18.88,0,34.4-15.11,34.66-33.99.01-1,.02-2,.02-3.01,0-47.5-15.53-86.01-34.68-86.01s-34.68,38.51-34.68,86.01c0,1.01,0,2.01.02,3.01.26,18.88,15.78,33.99,34.66,33.99h0Z"/><polyline class="cls-22" points="902.4 832.74 854.81 865.74 854.81 970.7"/><line class="cls-22" x1="820.13" y1="835.59" x2="854.81" y2="865.74"/><line class="cls-22" x1="801.5" y1="901.72" x2="854.81" y2="915.4"/><line class="cls-22" x1="902.4" y1="884.05" x2="854.81" y2="901.72"/></g><line class="cls-46" x1="854.81" y1="862.92" x2="854.81" y2="967.88"/><line class="cls-11" x1="597.99" y1="573.99" x2="597.99" y2="463.9"/><path class="cls-89" d="M644.73,510.42c-42.17-8.18-50.48-10.29-93.48,0,24.51-53.93,43.16-116.4,43.16-116.4,1.53-4.14,5.63-4.14,7.17,0,0,0,20.93,79.62,43.16,116.4Z"/><path class="cls-73" d="M632.3,462.81c-30.96-6.01-37.06-7.55-68.63,0,18-39.59,31.68-85.45,31.68-85.45,1.13-3.04,4.13-3.04,5.26,0,0,0,15.36,58.45,31.68,85.45Z"/><path class="cls-81" d="M621.89,418.95c-23.05-10.49-25.71-10.65-47.8,0,16.99-28.04,22.07-59.52,22.07-59.52.78-2.12,2.88-2.12,3.66,0,0,0,3.9,33.17,22.07,59.52Z"/><path class="cls-137" d="M948.82,876.49c18.88,0,34.4-15.11,34.66-33.99.01-1,.02-2,.02-3.01,0-47.5-15.53-86.01-34.68-86.01s-34.68,38.51-34.68,86.01c0,1.01,0,2.01.02,3.01.26,18.88,15.78,33.99,34.66,33.99h0Z"/><g class="cls-153"><path class="cls-126" d="M948.82,876.49c18.88,0,34.4-15.11,34.66-33.99.01-1,.02-2,.02-3.01,0-47.5-15.53-86.01-34.68-86.01s-34.68,38.51-34.68,86.01c0,1.01,0,2.01.02,3.01.26,18.88,15.78,33.99,34.66,33.99h0Z"/><polyline class="cls-22" points="996.41 771.8 948.82 804.79 948.82 909.75"/><line class="cls-22" x1="914.14" y1="774.65" x2="948.82" y2="804.79"/><line class="cls-22" x1="895.51" y1="840.77" x2="948.82" y2="854.46"/><line class="cls-22" x1="996.41" y1="823.1" x2="948.82" y2="840.77"/></g><line class="cls-46" x1="948.82" y1="801.98" x2="948.82" y2="906.93"/></g><line class="cls-1" x1="1505.58" y1="78.04" x2="1722.39" y2="78.04"/><line class="cls-30" x1="1852.69" y1="98.02" x2="2014.14" y2="98.02"/></g></g></svg>