<svg width="150" height="150" viewBox="0 0 150 150" fill="black" xmlns="http://www.w3.org/2000/svg">
<path fill-rule="evenodd" clip-rule="evenodd" d="M25 0C11.1929 0 0 11.1929 0 25V125C0 138.807 11.1929 150 25 150H125C138.807 150 150 138.807 150 125V25C150 11.1929 138.807 0 125 0H25ZM49 19C32.4315 19 19 32.4315 19 49V102C19 118.569 32.4315 132 49 132H102C118.569 132 132 118.569 132 102V49C132 32.4315 118.569 19 102 19H49ZM75.5 93C85.165 93 93 85.165 93 75.5C93 65.835 85.165 58 75.5 58C65.835 58 58 65.835 58 75.5C58 85.165 65.835 93 75.5 93ZM75.5 106C92.3447 106 106 92.3447 106 75.5C106 58.6553 92.3447 45 75.5 45C58.6553 45 45 58.6553 45 75.5C45 92.3447 58.6553 106 75.5 106ZM105.5 51C109.09 51 112 48.0899 112 44.5C112 40.9101 109.09 38 105.5 38C101.91 38 99 40.9101 99 44.5C99 48.0899 101.91 51 105.5 51Z" fill="#080202"/>
</svg>
