<?xml version="1.0" encoding="UTF-8"?><svg id="Layer_2" xmlns="http://www.w3.org/2000/svg" width="1135.82" height="936.15" xmlns:xlink="http://www.w3.org/1999/xlink" viewBox="0 0 1135.82 936.15"><defs><style>.cls-1{fill:url(#linear-gradient-3);}.cls-1,.cls-2,.cls-3,.cls-4,.cls-5,.cls-6,.cls-7,.cls-8{stroke-miterlimit:10;}.cls-1,.cls-5,.cls-7{stroke:#1d261c;stroke-width:5.38px;}.cls-2{stroke-width:22.88px;}.cls-2,.cls-9,.cls-3,.cls-4,.cls-6,.cls-7{fill:none;}.cls-2,.cls-3,.cls-4,.cls-6,.cls-8{stroke:#513e36;}.cls-10{clip-path:url(#clippath);}.cls-9,.cls-11,.cls-12,.cls-13,.cls-14,.cls-15,.cls-16,.cls-17,.cls-18,.cls-19,.cls-20,.cls-21,.cls-22,.cls-23,.cls-24,.cls-25,.cls-26,.cls-27,.cls-28,.cls-29,.cls-30,.cls-31,.cls-32,.cls-33,.cls-34,.cls-35,.cls-36,.cls-37{stroke-width:0px;}.cls-3{stroke-width:15.85px;}.cls-11{fill:url(#linear-gradient);}.cls-38,.cls-5,.cls-36{fill:#00b169;}.cls-4{stroke-width:19.16px;}.cls-39{clip-path:url(#clippath-1);}.cls-40{clip-path:url(#clippath-4);}.cls-41{clip-path:url(#clippath-3);}.cls-42{clip-path:url(#clippath-2);}.cls-43{clip-path:url(#clippath-5);}.cls-6{stroke-width:6.73px;}.cls-12{fill:url(#linear-gradient-4);}.cls-13{fill:url(#linear-gradient-2);}.cls-14{fill:url(#linear-gradient-8);}.cls-15{fill:url(#linear-gradient-7);}.cls-16{fill:url(#linear-gradient-5);}.cls-17{fill:url(#linear-gradient-6);}.cls-18{fill:#5bc476;}.cls-19{fill:#5ebf5e;}.cls-20{fill:#79c973;}.cls-21{fill:#4c934c;}.cls-22{fill:#478e4b;}.cls-23{fill:#54ba7d;}.cls-24{fill:#94ff98;}.cls-25{fill:#56a55c;}.cls-26{fill:#42ea75;}.cls-27{fill:#407f4c;}.cls-28{fill:#417243;}.cls-29{fill:#cce5a8;}.cls-30{fill:#da494a;}.cls-31{fill:#d4ffed;}.cls-32{fill:#8ed186;}.cls-33{fill:#64bc69;}.cls-34{fill:#ffef38;}.cls-35{fill:#f27c52;}.cls-37{fill:#69a563;}.cls-8{fill:#513e36;stroke-width:3.12px;}</style><clipPath id="clippath"><path class="cls-36" d="M605.09,683.38c18.88,0,34.4-15.11,34.66-33.99.01-1,.02-2,.02-3.01,0-47.5-15.53-86.01-34.68-86.01s-34.68,38.51-34.68,86.01c0,1.01,0,2.01.02,3.01.26,18.88,15.78,33.99,34.66,33.99h0Z"/></clipPath><clipPath id="clippath-1"><path class="cls-9" d="M1108.17,424.47c10.21,0,18.85-7.57,20.16-17.7,1.75-13.59,2.7-28.07,2.7-43.1,0-78.08-25.52-141.38-57.01-141.38s-57.01,63.3-57.01,141.38c0,15.03.95,29.52,2.7,43.1,1.31,10.13,9.94,17.7,20.16,17.7h68.3Z"/></clipPath><linearGradient id="linear-gradient" x1="843.14" y1="442.18" x2="849.05" y2="286.88" gradientUnits="userSpaceOnUse"><stop offset="0" stop-color="#00b667"/><stop offset=".12" stop-color="#04b767"/><stop offset=".25" stop-color="#11bb6a"/><stop offset=".38" stop-color="#26c16e"/><stop offset=".52" stop-color="#44cb73"/><stop offset=".66" stop-color="#6ad67b"/><stop offset=".8" stop-color="#99e584"/><stop offset=".94" stop-color="#d0f68e"/><stop offset="1" stop-color="#ecff94"/></linearGradient><linearGradient id="linear-gradient-2" x1="1048.45" y1="570.41" x2="1048.45" y2="416.36" gradientUnits="userSpaceOnUse"><stop offset="0" stop-color="#83bf80"/><stop offset=".19" stop-color="#87c180"/><stop offset=".38" stop-color="#94c983"/><stop offset=".59" stop-color="#a9d687"/><stop offset=".79" stop-color="#c6e88c"/><stop offset="1" stop-color="#ecff94"/></linearGradient><linearGradient id="linear-gradient-3" x1="1053.34" y1="610.89" x2="1053.34" y2="549.32" xlink:href="#linear-gradient-2"/><linearGradient id="linear-gradient-4" x1="490.45" y1="509.83" x2="490.45" y2="358.28" gradientUnits="userSpaceOnUse"><stop offset="0" stop-color="#00ad8d"/><stop offset=".22" stop-color="#3bbc90"/><stop offset=".76" stop-color="#c7e298"/><stop offset="1" stop-color="#fff19c"/></linearGradient><linearGradient id="linear-gradient-5" x1="945.88" y1="527.25" x2="945.88" y2="373.21" xlink:href="#linear-gradient-2"/><clipPath id="clippath-2"><path class="cls-36" d="M680.32,756.85c18.88,0,34.4-15.11,34.66-33.99.01-1,.02-2,.02-3.01,0-47.5-15.53-86.01-34.68-86.01s-34.68,38.51-34.68,86.01c0,1.01,0,2.01.02,3.01.26,18.88,15.78,33.99,34.66,33.99h0Z"/></clipPath><linearGradient id="linear-gradient-6" x1="-4644.68" y1="708.88" x2="-4644.68" y2="506.69" gradientTransform="translate(-4225.01) rotate(-180) scale(1 -1)" gradientUnits="userSpaceOnUse"><stop offset="0" stop-color="#007f48"/><stop offset="1" stop-color="#15ffa0"/></linearGradient><linearGradient id="linear-gradient-7" x1="-4581.21" y1="642.31" x2="-4581.21" y2="547.11" gradientTransform="translate(-4225.01) rotate(-180) scale(1 -1)" gradientUnits="userSpaceOnUse"><stop offset="0" stop-color="#007f6b"/><stop offset="1" stop-color="#94ffa1"/></linearGradient><linearGradient id="linear-gradient-8" x1="-4685.44" y1="723.01" x2="-4685.44" y2="600.01" gradientTransform="translate(-4225.01) rotate(-180) scale(1 -1)" gradientUnits="userSpaceOnUse"><stop offset="0" stop-color="#006a30"/><stop offset="1" stop-color="#b1ff94"/></linearGradient><clipPath id="clippath-3"><path class="cls-36" d="M824.84,751.57c18.88,0,34.4-15.11,34.66-33.99.01-1,.02-2,.02-3.01,0-47.5-15.53-86.01-34.68-86.01s-34.68,38.51-34.68,86.01c0,1.01,0,2.01.02,3.01.26,18.88,15.78,33.99,34.66,33.99h0Z"/></clipPath><clipPath id="clippath-4"><path class="cls-36" d="M898.63,717.53c18.88,0,34.4-15.11,34.66-33.99.01-1,.02-2,.02-3.01,0-47.5-15.53-86.01-34.68-86.01s-34.68,38.51-34.68,86.01c0,1.01,0,2.01.02,3.01.26,18.88,15.78,33.99,34.66,33.99h0Z"/></clipPath><clipPath id="clippath-5"><path class="cls-36" d="M992.64,656.58c18.88,0,34.4-15.11,34.66-33.99.01-1,.02-2,.02-3.01,0-47.5-15.53-86.01-34.68-86.01s-34.68,38.51-34.68,86.01c0,1.01,0,2.01.02,3.01.26,18.88,15.78,33.99,34.66,33.99h0Z"/></clipPath></defs><g id="city"><g id="park"><ellipse class="cls-29" cx="421.34" cy="479.47" rx="86.53" ry="149.88" transform="translate(-60.41 898.21) rotate(-89.69)"/><ellipse class="cls-31" cx="449.82" cy="496.66" rx="63.48" ry="123.14" transform="translate(-49.27 943.79) rotate(-89.69)"/><ellipse class="cls-24" cx="418.3" cy="793.78" rx="56.4" ry="97.7" transform="translate(-377.73 1207.78) rotate(-89.69)"/><ellipse class="cls-28" cx="93.2" cy="410.88" rx="26.96" ry="43.51"/><ellipse class="cls-28" cx="199.8" cy="410.88" rx="26.96" ry="43.51"/><ellipse class="cls-21" cx="92.62" cy="462.76" rx="26.96" ry="43.51"/><ellipse class="cls-21" cx="199.21" cy="462.76" rx="26.96" ry="43.51"/><ellipse class="cls-19" cx="109.09" cy="510.08" rx="26.96" ry="43.51"/><ellipse class="cls-19" cx="215.68" cy="510.08" rx="26.96" ry="43.51"/><path class="cls-35" d="M72.06,706.3h13.21c39.77,0,72.06,32.29,72.06,72.06v68.82c0,16.63-13.5,30.13-30.13,30.13H30.13C13.5,877.32,0,863.82,0,847.19v-68.82C0,738.59,32.29,706.3,72.06,706.3Z"/><path class="cls-7" d="M53.96,934.9s11.97-22.8,18.24-106.6"/><path class="cls-7" d="M106.43,934.9s-11.97-22.8-18.24-106.6"/><path class="cls-7" d="M72.2,934.9s10.08-58.72,6.46-103.75"/><path class="cls-38" d="M605.09,683.38c18.88,0,34.4-15.11,34.66-33.99.01-1,.02-2,.02-3.01,0-47.5-15.53-86.01-34.68-86.01s-34.68,38.51-34.68,86.01c0,1.01,0,2.01.02,3.01.26,18.88,15.78,33.99,34.66,33.99h0Z"/><g class="cls-10"><path class="cls-36" d="M605.09,683.38c18.88,0,34.4-15.11,34.66-33.99.01-1,.02-2,.02-3.01,0-47.5-15.53-86.01-34.68-86.01s-34.68,38.51-34.68,86.01c0,1.01,0,2.01.02,3.01.26,18.88,15.78,33.99,34.66,33.99h0Z"/><polyline class="cls-5" points="652.69 578.69 605.09 611.68 605.09 716.64"/><line class="cls-5" x1="570.41" y1="581.54" x2="605.09" y2="611.68"/><line class="cls-5" x1="551.78" y1="647.66" x2="605.09" y2="661.35"/><line class="cls-5" x1="652.69" y1="629.99" x2="605.09" y2="647.66"/></g><line class="cls-7" x1="605.09" y1="608.87" x2="605.09" y2="713.82"/><ellipse class="cls-25" cx="910.37" cy="801.77" rx="46.25" ry="23.7" transform="translate(-93.18 1483.31) rotate(-75.55)"/><ellipse class="cls-33" cx="960.31" cy="774.3" rx="46.25" ry="23.7" transform="translate(-29.1 1511.05) rotate(-75.55)"/><ellipse class="cls-33" cx="1060.19" cy="717.99" rx="46.25" ry="23.7" transform="translate(100.39 1565.52) rotate(-75.55)"/><ellipse class="cls-25" cx="1110.13" cy="689.16" rx="46.25" ry="23.7" transform="translate(165.79 1592.24) rotate(-75.55)"/><ellipse class="cls-25" cx="1010.25" cy="744.1" rx="46.25" ry="23.7" transform="translate(37.62 1536.75) rotate(-75.55)"/><path class="cls-20" d="M1006.97,202.18c10.21,0,18.85-7.57,20.16-17.7,1.07-8.28,1.84-16.9,2.28-25.77.28-5.68.42-11.47.42-17.34,0-78.08-25.52-141.38-57.01-141.38s-57.01,63.3-57.01,141.38c0,15.03.95,29.52,2.7,43.1,1.31,10.13,9.94,17.7,20.16,17.7h68.3Z"/><path class="cls-32" d="M1036.29,135.61c14.74,0,26.65-11.89,26.83-26.62,0-.67.01-1.34.01-2.01,0-36.76-12.02-66.57-26.84-66.57s-26.84,29.8-26.84,66.57c0,.67,0,1.34.01,2.01.18,14.74,12.09,26.62,26.83,26.62h0Z"/><line class="cls-7" x1="972.82" y1="298.4" x2="972.82" y2="109.14"/><path class="cls-7" d="M972.82,243.1s14.11,2.28,19.82-53.59"/><path class="cls-7" d="M927.08,199.99c.83-.71,18.51,27.48,45.74,19.95"/><path class="cls-37" d="M932.06,216.32c18.88,0,34.4-15.11,34.66-33.99.01-1,.02-2,.02-3.01,0-47.5-15.53-86.01-34.68-86.01s-34.68,38.51-34.68,86.01c0,1.01,0,2.01.02,3.01.26,18.88,15.78,33.99,34.66,33.99h0Z"/><ellipse class="cls-25" cx="898.63" cy="341.24" rx="46.25" ry="23.7" transform="translate(343.98 1126.31) rotate(-75.55)"/><ellipse class="cls-33" cx="948.57" cy="313.77" rx="46.25" ry="23.7" transform="translate(408.06 1154.05) rotate(-75.55)"/><ellipse class="cls-33" cx="1048.45" cy="257.46" rx="46.25" ry="23.7" transform="translate(537.55 1208.52) rotate(-75.55)"/><ellipse class="cls-25" cx="1098.39" cy="228.63" rx="46.25" ry="23.7" transform="translate(602.95 1235.24) rotate(-75.55)"/><ellipse class="cls-25" cx="998.51" cy="283.57" rx="46.25" ry="23.7" transform="translate(474.78 1179.75) rotate(-75.55)"/><line class="cls-7" x1="1076.36" y1="531.01" x2="1074.02" y2="308.12"/><g class="cls-39"><path class="cls-26" d="M1108.17,424.47c10.21,0,18.85-7.57,20.16-17.7,1.75-13.59,2.7-28.07,2.7-43.1,0-78.08-25.52-141.38-57.01-141.38s-57.01,63.3-57.01,141.38c0,15.03.95,29.52,2.7,43.1,1.31,10.13,9.94,17.7,20.16,17.7h68.3Z"/><polyline class="cls-7" points="1076.36 530.44 1074.02 307.55 1027.33 240.28"/><line class="cls-7" x1="1131.03" y1="307.55" x2="1076.36" y2="362.84"/><line class="cls-7" x1="1110.56" y1="224.89" x2="1074.02" y2="307.55"/><line class="cls-7" x1="1004.53" y1="369.68" x2="1074.02" y2="398.19"/><line class="cls-7" x1="1000.54" y1="302.99" x2="1074.19" y2="323.38"/></g><line class="cls-8" x1="265.8" y1="369.66" x2="267.88" y2="498.92"/><line class="cls-8" x1="267.37" y1="467.17" x2="248.4" y2="444.87"/><line class="cls-8" x1="297.55" y1="437.69" x2="267.88" y2="474.73"/><path class="cls-30" d="M249.49,329.31h36.79c9.46,0,17.14,7.68,17.14,17.14v37.09c0,19.61-15.92,35.53-35.53,35.53h0c-19.61,0-35.53-15.92-35.53-35.53v-37.09c0-9.46,7.68-17.14,17.14-17.14Z" transform="translate(535.76 748.38) rotate(-180)"/><path class="cls-35" d="M291.27,405.13h17.09c4.39,0,7.96,3.57,7.96,7.96v17.23c0,9.11-7.4,16.51-16.51,16.51h0c-9.11,0-16.51-7.4-16.51-16.51v-17.23c0-4.39,3.57-7.96,7.96-7.96Z" transform="translate(599.63 851.95) rotate(-180)"/><path class="cls-34" d="M244.01,433.17h8.78c3.12,0,5.66,2.54,5.66,5.66v4.39c0,5.55-4.5,10.05-10.05,10.05h0c-5.55,0-10.05-4.5-10.05-10.05v-4.39c0-3.12,2.54-5.66,5.66-5.66Z" transform="translate(496.79 886.44) rotate(-180)"/><path class="cls-11" d="M845.41,286.77h0c21.08,0,38.2,17.12,38.2,38.2v115.85h-76.4v-115.85c0-21.08,17.12-38.2,38.2-38.2Z"/><path class="cls-7" d="M850.3,516.06v-34.77s21.53-19.95,22.67-47.32"/><line class="cls-7" x1="850.3" y1="481.29" x2="850.3" y2="419.72"/><path class="cls-7" d="M850.3,456.78s-25.22-11.4-24.65-37.05"/><line class="cls-2" x1="767.41" y1="580.45" x2="767.41" y2="421.51"/><path class="cls-27" d="M865.19,507.78c-88.22-11.81-105.6-14.86-195.56,0,51.28-77.87,90.28-168.05,90.28-168.05,3.21-5.98,11.78-5.98,14.99,0,0,0,43.78,114.95,90.28,168.05Z"/><path class="cls-22" d="M839.19,439.05c-64.76-8.67-77.52-10.9-143.56,0,37.64-57.16,66.27-123.36,66.27-123.36,2.36-4.39,8.65-4.39,11.01,0,0,0,32.14,84.39,66.27,123.36Z"/><path class="cls-25" d="M817.41,375.72c-48.22-15.15-53.78-15.37-100,0,35.55-40.48,46.17-85.93,46.17-85.93,1.64-3.06,6.02-3.06,7.67,0,0,0,8.17,47.89,46.17,85.93Z"/><line class="cls-2" x1="699.93" y1="675.12" x2="699.93" y2="516.18"/><path class="cls-27" d="M767.41,583.33c-60.89-11.81-72.88-14.86-134.97,0,35.39-77.87,62.31-168.05,62.31-168.05,2.22-5.98,8.13-5.98,10.35,0,0,0,30.22,114.95,62.31,168.05Z"/><path class="cls-22" d="M749.47,514.6c-44.7-8.67-53.5-10.9-99.08,0,25.98-57.16,45.74-123.36,45.74-123.36,1.63-4.39,5.97-4.39,7.6,0,0,0,22.18,84.39,45.74,123.36Z"/><path class="cls-18" d="M734.43,451.28c-33.28-15.15-37.12-15.37-69.02,0,24.54-40.48,31.86-85.93,31.86-85.93,1.13-3.06,4.16-3.06,5.29,0,0,0,5.64,47.89,31.86,85.93Z"/><line class="cls-2" x1="854.32" y1="657.01" x2="854.32" y2="498.07"/><path class="cls-27" d="M921.81,565.23c-60.89-11.81-72.88-14.86-134.97,0,35.39-77.87,62.31-168.05,62.31-168.05,2.22-5.98,8.13-5.98,10.35,0,0,0,30.22,114.95,62.31,168.05Z"/><path class="cls-22" d="M903.86,496.5c-44.7-8.67-53.5-10.9-99.08,0,25.98-57.16,45.74-123.36,45.74-123.36,1.63-4.39,5.97-4.39,7.6,0,0,0,22.18,84.39,45.74,123.36Z"/><path class="cls-25" d="M888.83,433.17c-33.28-15.15-37.12-15.37-69.02,0,24.54-40.48,31.86-85.93,31.86-85.93,1.13-3.06,4.16-3.06,5.29,0,0,0,5.64,47.89,31.86,85.93Z"/><line class="cls-4" x1="810.67" y1="681.04" x2="810.67" y2="538.11"/><path class="cls-27" d="M886.91,615.69c-68.78-10.62-82.34-13.36-152.48,0,39.98-70.02,70.39-151.12,70.39-151.12,2.5-5.37,9.19-5.37,11.69,0,0,0,34.14,103.37,70.39,151.12Z"/><path class="cls-22" d="M866.64,553.88c-50.49-7.8-60.44-9.81-111.93,0,29.35-51.4,51.68-110.94,51.68-110.94,1.84-3.95,6.74-3.95,8.58,0,0,0,25.06,75.89,51.68,110.94Z"/><path class="cls-23" d="M849.66,496.93c-37.6-13.63-41.93-13.83-77.97,0,27.72-36.4,36-77.28,36-77.28,1.28-2.75,4.7-2.75,5.98,0,0,0,6.37,43.07,36,77.28Z"/><line class="cls-2" x1="757.36" y1="768.84" x2="757.36" y2="609.9"/><path class="cls-27" d="M824.84,677.05c-60.89-11.81-72.88-14.86-134.97,0,35.39-77.87,62.31-168.05,62.31-168.05,2.22-5.98,8.13-5.98,10.35,0,0,0,30.22,114.95,62.31,168.05Z"/><path class="cls-22" d="M806.89,608.33c-44.7-8.67-53.5-10.9-99.08,0,25.98-57.16,45.74-123.36,45.74-123.36,1.63-4.39,5.97-4.39,7.6,0,0,0,22.18,84.39,45.74,123.36Z"/><path class="cls-25" d="M791.86,545c-33.28-15.15-37.12-15.37-69.02,0,24.54-40.48,31.86-85.93,31.86-85.93,1.13-3.06,4.16-3.06,5.29,0,0,0,5.64,47.89,31.86,85.93Z"/><path class="cls-13" d="M1048.45,416.36h0c21.08,0,38.2,17.12,38.2,38.2v115.85h-76.4v-115.85c0-21.08,17.12-38.2,38.2-38.2Z"/><path class="cls-7" d="M1053.34,645.66v-34.77s21.53-19.95,22.67-47.32"/><line class="cls-1" x1="1053.34" y1="610.89" x2="1053.34" y2="549.32"/><path class="cls-7" d="M1053.34,586.37s-25.22-11.4-24.65-37.05"/><line class="cls-6" x1="490.45" y1="571.44" x2="490.45" y2="426.06"/><path class="cls-6" d="M456.3,466.54s2.17,45.61,34.15,68.41c0,0,37.68-25,38.82-80.34"/><path class="cls-12" d="M513.37,505.17l-5.41-3.06c-10.87-6.15-24.17-6.15-35.04,0l-5.41,3.06c-14.83,8.39-33.72,5.24-44.59-7.88-5.94-7.17-9.51-16.38-9.51-26.42v-35.57c0-42.54,34.48-77.02,77.02-77.02h0c42.54,0,77.02,34.48,77.02,77.02v35.57c0,10.04-3.57,19.25-9.51,26.42-10.87,13.13-29.76,16.27-44.59,7.88Z"/><path class="cls-16" d="M945.88,373.21h0c21.08,0,38.2,17.12,38.2,38.2v115.85h-76.4v-115.85c0-21.08,17.12-38.2,38.2-38.2Z"/><path class="cls-7" d="M950.77,602.5v-34.77s21.53-19.95,22.67-47.32"/><line class="cls-7" x1="950.77" y1="567.73" x2="950.77" y2="506.16"/><path class="cls-7" d="M950.77,543.21s-25.22-11.4-24.65-37.05"/><line class="cls-2" x1="924.46" y1="702.09" x2="924.46" y2="543.15"/><path class="cls-27" d="M991.95,610.31c-60.89-11.81-72.88-14.86-134.97,0,35.39-77.87,62.31-168.05,62.31-168.05,2.22-5.98,8.13-5.98,10.35,0,0,0,30.22,114.95,62.31,168.05Z"/><path class="cls-22" d="M974,541.58c-44.7-8.67-53.5-10.9-99.08,0,25.98-57.16,45.74-123.36,45.74-123.36,1.63-4.39,5.97-4.39,7.6,0,0,0,22.18,84.39,45.74,123.36Z"/><path class="cls-25" d="M958.97,478.26c-33.28-15.15-37.12-15.37-69.02,0,24.54-40.48,31.86-85.93,31.86-85.93,1.13-3.06,4.16-3.06,5.29,0,0,0,5.64,47.89,31.86,85.93Z"/><path class="cls-38" d="M680.32,756.85c18.88,0,34.4-15.11,34.66-33.99.01-1,.02-2,.02-3.01,0-47.5-15.53-86.01-34.68-86.01s-34.68,38.51-34.68,86.01c0,1.01,0,2.01.02,3.01.26,18.88,15.78,33.99,34.66,33.99h0Z"/><g class="cls-42"><path class="cls-36" d="M680.32,756.85c18.88,0,34.4-15.11,34.66-33.99.01-1,.02-2,.02-3.01,0-47.5-15.53-86.01-34.68-86.01s-34.68,38.51-34.68,86.01c0,1.01,0,2.01.02,3.01.26,18.88,15.78,33.99,34.66,33.99h0Z"/><polyline class="cls-5" points="727.91 652.15 680.32 685.15 680.32 790.1"/><line class="cls-5" x1="645.64" y1="655" x2="680.32" y2="685.15"/><line class="cls-5" x1="627.01" y1="721.13" x2="680.32" y2="734.81"/><line class="cls-5" x1="727.91" y1="703.45" x2="680.32" y2="721.13"/></g><line class="cls-7" x1="680.32" y1="682.33" x2="680.32" y2="787.29"/><path class="cls-17" d="M385.52,708.88c-10.21,0-18.85-7.57-20.16-17.7-1.07-8.28-1.84-16.9-2.28-25.77-.28-5.68-.42-11.47-.42-17.34,0-78.08,25.52-141.38,57.01-141.38,31.48,0,57.01,63.3,57.01,141.38,0,15.03-.95,29.52-2.7,43.1-1.31,10.13-9.94,17.7-20.16,17.7h-68.3Z"/><path class="cls-15" d="M356.2,642.31c-14.74,0-26.65-11.89-26.83-26.62,0-.67-.01-1.34-.01-2.01,0-36.76,12.02-66.57,26.84-66.57s26.84,29.8,26.84,66.57c0,.67,0,1.34-.01,2.01-.18,14.74-12.09,26.62-26.83,26.62h0Z"/><line class="cls-7" x1="419.67" y1="805.09" x2="419.67" y2="615.83"/><path class="cls-7" d="M419.67,749.8s-14.11,2.28-19.82-53.59"/><path class="cls-7" d="M465.41,706.68c-.83-.71-18.51,27.48-45.74,19.95"/><path class="cls-14" d="M460.42,723.01c-18.88,0-34.4-15.11-34.66-33.99-.01-1-.02-2-.02-3.01,0-47.5,15.53-86.01,34.68-86.01,19.15,0,34.68,38.51,34.68,86.01,0,1.01,0,2.01-.02,3.01-.26,18.88-15.78,33.99-34.66,33.99h0Z"/><path class="cls-38" d="M824.84,751.57c18.88,0,34.4-15.11,34.66-33.99.01-1,.02-2,.02-3.01,0-47.5-15.53-86.01-34.68-86.01s-34.68,38.51-34.68,86.01c0,1.01,0,2.01.02,3.01.26,18.88,15.78,33.99,34.66,33.99h0Z"/><g class="cls-41"><path class="cls-36" d="M824.84,751.57c18.88,0,34.4-15.11,34.66-33.99.01-1,.02-2,.02-3.01,0-47.5-15.53-86.01-34.68-86.01s-34.68,38.51-34.68,86.01c0,1.01,0,2.01.02,3.01.26,18.88,15.78,33.99,34.66,33.99h0Z"/><polyline class="cls-5" points="872.43 646.87 824.84 679.87 824.84 784.83"/><line class="cls-5" x1="790.16" y1="649.72" x2="824.84" y2="679.87"/><line class="cls-5" x1="771.53" y1="715.85" x2="824.84" y2="729.53"/><line class="cls-5" x1="872.43" y1="698.18" x2="824.84" y2="715.85"/></g><line class="cls-7" x1="824.84" y1="677.05" x2="824.84" y2="782.01"/><path class="cls-38" d="M898.63,717.53c18.88,0,34.4-15.11,34.66-33.99.01-1,.02-2,.02-3.01,0-47.5-15.53-86.01-34.68-86.01s-34.68,38.51-34.68,86.01c0,1.01,0,2.01.02,3.01.26,18.88,15.78,33.99,34.66,33.99h0Z"/><g class="cls-40"><path class="cls-36" d="M898.63,717.53c18.88,0,34.4-15.11,34.66-33.99.01-1,.02-2,.02-3.01,0-47.5-15.53-86.01-34.68-86.01s-34.68,38.51-34.68,86.01c0,1.01,0,2.01.02,3.01.26,18.88,15.78,33.99,34.66,33.99h0Z"/><polyline class="cls-5" points="946.22 612.83 898.63 645.83 898.63 750.79"/><line class="cls-5" x1="863.94" y1="615.68" x2="898.63" y2="645.83"/><line class="cls-5" x1="845.32" y1="681.81" x2="898.63" y2="695.49"/><line class="cls-5" x1="946.22" y1="664.14" x2="898.63" y2="681.81"/></g><line class="cls-7" x1="898.63" y1="643.01" x2="898.63" y2="747.97"/><line class="cls-3" x1="641.81" y1="354.08" x2="641.81" y2="243.99"/><path class="cls-27" d="M688.55,290.51c-42.17-8.18-50.48-10.29-93.48,0,24.51-53.93,43.16-116.4,43.16-116.4,1.53-4.14,5.63-4.14,7.17,0,0,0,20.93,79.62,43.16,116.4Z"/><path class="cls-22" d="M676.12,242.9c-30.96-6.01-37.06-7.55-68.63,0,18-39.59,31.68-85.45,31.68-85.45,1.13-3.04,4.13-3.04,5.26,0,0,0,15.36,58.45,31.68,85.45Z"/><path class="cls-25" d="M665.71,199.04c-23.05-10.49-25.71-10.65-47.8,0,16.99-28.04,22.07-59.52,22.07-59.52.78-2.12,2.88-2.12,3.66,0,0,0,3.9,33.17,22.07,59.52Z"/><path class="cls-38" d="M992.64,656.58c18.88,0,34.4-15.11,34.66-33.99.01-1,.02-2,.02-3.01,0-47.5-15.53-86.01-34.68-86.01s-34.68,38.51-34.68,86.01c0,1.01,0,2.01.02,3.01.26,18.88,15.78,33.99,34.66,33.99h0Z"/><g class="cls-43"><path class="cls-36" d="M992.64,656.58c18.88,0,34.4-15.11,34.66-33.99.01-1,.02-2,.02-3.01,0-47.5-15.53-86.01-34.68-86.01s-34.68,38.51-34.68,86.01c0,1.01,0,2.01.02,3.01.26,18.88,15.78,33.99,34.66,33.99h0Z"/><polyline class="cls-5" points="1040.23 551.89 992.64 584.88 992.64 689.84"/><line class="cls-5" x1="957.95" y1="554.74" x2="992.64" y2="584.88"/><line class="cls-5" x1="939.33" y1="620.86" x2="992.64" y2="634.55"/><line class="cls-5" x1="1040.23" y1="603.19" x2="992.64" y2="620.86"/></g><line class="cls-7" x1="992.64" y1="582.07" x2="992.64" y2="687.02"/></g></g></svg>