<?xml version="1.0" encoding="UTF-8"?><svg id="Layer_2" xmlns="http://www.w3.org/2000/svg" width="827.12" height="188.42" viewBox="0 0 827.12 188.42"><defs><style>.cls-1{fill:#ff462e;stroke:#ff8;stroke-width:2.64px;}.cls-1,.cls-2{stroke-miterlimit:10;}.cls-2{fill:none;opacity:.2;stroke:#ffec19;stroke-linecap:round;stroke-width:55.39px;}.cls-3{fill:#fff;stroke-width:0px;}</style></defs><g id="city"><rect class="cls-1" x="41.52" y="1.32" width="744.08" height="185.78" rx="92.89" ry="92.89"/><line class="cls-2" x1="159.39" y1="142.54" x2="667.73" y2="142.54"/><path class="cls-3" d="M231.43,78.59c-.28.5-.59.86-.9,1.08-.32.23-.72.34-1.19.34-.5,0-1.04-.18-1.62-.55-.58-.37-1.27-.77-2.08-1.22-.8-.45-1.74-.86-2.82-1.22-1.08-.37-2.35-.55-3.81-.55-1.33,0-2.49.16-3.48.48s-1.83.76-2.5,1.33c-.67.57-1.18,1.25-1.51,2.04-.33.79-.5,1.66-.5,2.61,0,1.21.34,2.21,1.01,3.02.67.81,1.57,1.49,2.68,2.06,1.11.57,2.38,1.08,3.8,1.53,1.42.45,2.88.93,4.37,1.44,1.49.51,2.95,1.1,4.37,1.78s2.69,1.53,3.8,2.56,2.01,2.29,2.68,3.78c.68,1.49,1.01,3.3,1.01,5.43,0,2.32-.4,4.49-1.19,6.51-.79,2.02-1.95,3.79-3.48,5.29-1.53,1.5-3.39,2.69-5.59,3.55-2.2.86-4.72,1.3-7.56,1.3-1.63,0-3.24-.16-4.83-.48s-3.11-.78-4.56-1.37c-1.46-.59-2.82-1.3-4.1-2.13-1.28-.83-2.41-1.75-3.41-2.77l2.8-4.58c.24-.33.54-.61.92-.83.38-.22.78-.34,1.21-.34.59,0,1.23.24,1.92.73.69.49,1.5,1.02,2.45,1.62.95.59,2.05,1.13,3.32,1.62,1.27.49,2.79.73,4.56.73,2.72,0,4.83-.64,6.32-1.93,1.49-1.29,2.24-3.14,2.24-5.56,0-1.35-.34-2.45-1.01-3.3-.67-.85-1.57-1.57-2.68-2.15-1.11-.58-2.38-1.07-3.8-1.47-1.42-.4-2.86-.84-4.33-1.31-1.47-.47-2.91-1.04-4.33-1.7-1.42-.66-2.69-1.53-3.8-2.59-1.11-1.07-2.01-2.4-2.68-3.99-.68-1.6-1.01-3.57-1.01-5.91,0-1.87.37-3.69,1.12-5.47.75-1.77,1.83-3.35,3.25-4.72,1.42-1.37,3.17-2.47,5.25-3.3,2.08-.83,4.47-1.24,7.17-1.24,3.03,0,5.82.47,8.38,1.42,2.55.95,4.73,2.27,6.53,3.98l-2.38,4.51Z"/><path class="cls-3" d="M252.23,121.15c-3.17,0-5.6-.89-7.29-2.68-1.69-1.79-2.54-4.25-2.54-7.4v-20.34h-3.73c-.47,0-.88-.15-1.21-.46-.33-.31-.5-.77-.5-1.38v-3.48l5.86-.96,1.85-9.94c.12-.47.34-.84.67-1.1.33-.26.76-.39,1.28-.39h4.54v11.47h9.73v6.25h-9.73v19.74c0,1.14.28,2.02.83,2.66s1.32.96,2.29.96c.54,0,1-.07,1.37-.2s.69-.27.96-.41c.27-.14.52-.28.73-.41s.43-.2.64-.2c.26,0,.47.07.64.2s.34.33.53.58l2.63,4.26c-1.28,1.06-2.75,1.87-4.4,2.41-1.66.54-3.37.82-5.15.82Z"/><path class="cls-3" d="M265.65,89.24c4.19-3.83,9.23-5.75,15.12-5.75,2.13,0,4.04.35,5.72,1.05,1.68.7,3.1,1.67,4.26,2.91,1.16,1.24,2.04,2.73,2.64,4.46s.91,3.62.91,5.68v23h-3.98c-.83,0-1.47-.12-1.92-.37-.45-.25-.8-.75-1.06-1.51l-.78-2.63c-.92.83-1.82,1.56-2.7,2.18-.88.63-1.79,1.15-2.73,1.58-.95.43-1.96.75-3.04.98s-2.27.34-3.57.34c-1.54,0-2.96-.21-4.26-.62-1.3-.41-2.43-1.03-3.37-1.86-.95-.83-1.68-1.86-2.2-3.09-.52-1.23-.78-2.66-.78-4.29,0-.92.15-1.84.46-2.75.31-.91.81-1.78,1.51-2.61.7-.83,1.6-1.61,2.71-2.34,1.11-.73,2.48-1.37,4.1-1.92,1.62-.54,3.51-.99,5.66-1.33,2.15-.34,4.61-.55,7.38-.62v-2.13c0-2.44-.52-4.24-1.56-5.41-1.04-1.17-2.54-1.76-4.51-1.76-1.42,0-2.6.17-3.53.5-.94.33-1.76.7-2.47,1.12-.71.41-1.36.79-1.93,1.12-.58.33-1.22.5-1.94.5-.62,0-1.14-.16-1.56-.48s-.77-.69-1.03-1.12l-1.56-2.8ZM285.74,105.04c-2.53.12-4.66.34-6.39.66-1.73.32-3.11.73-4.15,1.22-1.04.5-1.79,1.08-2.24,1.74-.45.66-.68,1.38-.68,2.17,0,1.54.46,2.64,1.37,3.3.91.66,2.1.99,3.57.99,1.8,0,3.36-.33,4.67-.98,1.31-.65,2.6-1.64,3.85-2.96v-6.14Z"/><path class="cls-3" d="M310.8,90.48c1.14-2.18,2.49-3.89,4.05-5.13,1.56-1.24,3.41-1.86,5.54-1.86,1.68,0,3.03.37,4.05,1.1l-.57,6.57c-.12.43-.29.73-.52.91s-.53.27-.9.27c-.36,0-.88-.06-1.58-.18-.7-.12-1.38-.18-2.04-.18-.97,0-1.83.14-2.59.43-.76.28-1.44.69-2.04,1.22-.6.53-1.14,1.18-1.6,1.93-.46.76-.89,1.62-1.29,2.59v22.44h-8.77v-36.42h5.15c.9,0,1.53.16,1.88.48.36.32.59.89.71,1.72l.53,4.12Z"/><path class="cls-3" d="M341.16,121.15c-3.17,0-5.6-.89-7.29-2.68-1.69-1.79-2.54-4.25-2.54-7.4v-20.34h-3.73c-.47,0-.88-.15-1.21-.46-.33-.31-.5-.77-.5-1.38v-3.48l5.86-.96,1.85-9.94c.12-.47.34-.84.67-1.1.33-.26.76-.39,1.28-.39h4.54v11.47h9.73v6.25h-9.73v19.74c0,1.14.28,2.02.83,2.66s1.32.96,2.29.96c.54,0,1-.07,1.37-.2s.69-.27.96-.41c.27-.14.52-.28.73-.41s.43-.2.64-.2c.26,0,.47.07.64.2s.34.33.53.58l2.63,4.26c-1.28,1.06-2.75,1.87-4.4,2.41-1.66.54-3.37.82-5.15.82Z"/><path class="cls-3" d="M375.24,120.59v-29.82l-3.16-.5c-.69-.14-1.24-.38-1.65-.73-.41-.34-.62-.83-.62-1.47v-3.59h5.43v-2.7c0-2.08.31-3.95.94-5.61.62-1.66,1.53-3.07,2.7-4.22s2.6-2.05,4.28-2.66c1.68-.62,3.57-.92,5.68-.92,1.68,0,3.24.23,4.69.67l-.18,4.4c-.03.33-.12.6-.29.8-.17.2-.38.36-.66.46s-.59.18-.94.21c-.35.04-.73.05-1.13.05-1.04,0-1.97.11-2.79.34-.82.23-1.51.62-2.08,1.17-.57.56-1,1.29-1.3,2.2-.29.91-.44,2.04-.44,3.39v2.41h9.48v6.25h-9.2v29.86h-8.77Z"/><path class="cls-3" d="M413.29,83.59c2.7,0,5.15.44,7.37,1.31,2.21.88,4.11,2.12,5.68,3.73,1.57,1.61,2.79,3.57,3.64,5.89s1.28,4.91,1.28,7.77-.43,5.49-1.28,7.81c-.85,2.32-2.06,4.3-3.64,5.93s-3.47,2.89-5.68,3.76c-2.21.88-4.67,1.31-7.37,1.31s-5.2-.44-7.42-1.31c-2.22-.88-4.12-2.13-5.7-3.76s-2.79-3.61-3.66-5.93c-.87-2.32-1.29-4.92-1.29-7.81s.43-5.46,1.29-7.77c.86-2.32,2.08-4.28,3.66-5.89,1.57-1.61,3.47-2.85,5.7-3.73,2.22-.88,4.7-1.31,7.42-1.31ZM413.29,114.37c3.03,0,5.27-1.02,6.73-3.05,1.46-2.04,2.18-5.02,2.18-8.95s-.73-6.92-2.18-8.98c-1.46-2.06-3.7-3.09-6.73-3.09s-5.36,1.04-6.83,3.11c-1.48,2.07-2.22,5.06-2.22,8.96s.74,6.88,2.22,8.93,3.76,3.07,6.83,3.07Z"/><path class="cls-3" d="M446.24,90.48c1.14-2.18,2.49-3.89,4.05-5.13,1.56-1.24,3.41-1.86,5.54-1.86,1.68,0,3.03.37,4.05,1.1l-.57,6.57c-.12.43-.29.73-.52.91s-.53.27-.9.27c-.36,0-.88-.06-1.58-.18-.7-.12-1.38-.18-2.04-.18-.97,0-1.83.14-2.59.43-.76.28-1.44.69-2.04,1.22-.6.53-1.14,1.18-1.6,1.93-.46.76-.89,1.62-1.29,2.59v22.44h-8.77v-36.42h5.15c.9,0,1.53.16,1.88.48.36.32.59.89.71,1.72l.53,4.12Z"/><path class="cls-3" d="M463.13,89.24c4.19-3.83,9.23-5.75,15.12-5.75,2.13,0,4.04.35,5.71,1.05,1.68.7,3.1,1.67,4.26,2.91,1.16,1.24,2.04,2.73,2.65,4.46s.9,3.62.9,5.68v23h-3.98c-.83,0-1.47-.12-1.92-.37-.45-.25-.8-.75-1.06-1.51l-.78-2.63c-.92.83-1.82,1.56-2.7,2.18s-1.79,1.15-2.73,1.58c-.95.43-1.96.75-3.04.98-1.08.22-2.27.34-3.57.34-1.54,0-2.96-.21-4.26-.62-1.3-.41-2.43-1.03-3.37-1.86-.95-.83-1.68-1.86-2.2-3.09-.52-1.23-.78-2.66-.78-4.29,0-.92.15-1.84.46-2.75.31-.91.81-1.78,1.51-2.61s1.6-1.61,2.72-2.34c1.11-.73,2.48-1.37,4.1-1.92,1.62-.54,3.51-.99,5.66-1.33,2.15-.34,4.62-.55,7.38-.62v-2.13c0-2.44-.52-4.24-1.56-5.41-1.04-1.17-2.54-1.76-4.51-1.76-1.42,0-2.6.17-3.53.5s-1.76.7-2.47,1.12c-.71.41-1.36.79-1.94,1.12-.58.33-1.22.5-1.93.5-.62,0-1.14-.16-1.56-.48s-.77-.69-1.03-1.12l-1.56-2.8ZM483.23,105.04c-2.53.12-4.66.34-6.39.66-1.73.32-3.11.73-4.15,1.22-1.04.5-1.79,1.08-2.24,1.74s-.67,1.38-.67,2.17c0,1.54.46,2.64,1.37,3.3.91.66,2.1.99,3.57.99,1.8,0,3.36-.33,4.67-.98,1.31-.65,2.6-1.64,3.85-2.96v-6.14Z"/><path class="cls-3" d="M531.97,85.41v3.27c0,1.04-.63,1.68-1.88,1.92l-3.27.6c.5,1.25.74,2.63.74,4.12,0,1.8-.36,3.43-1.08,4.88-.72,1.46-1.72,2.69-3,3.71s-2.79,1.8-4.53,2.36c-1.74.56-3.62.83-5.63.83-.71,0-1.4-.04-2.06-.11-.66-.07-1.31-.17-1.95-.28-1.14.69-1.71,1.46-1.71,2.31,0,.73.34,1.27,1.01,1.62.68.34,1.57.59,2.68.73,1.11.14,2.38.23,3.8.27,1.42.04,2.88.11,4.37.23,1.49.12,2.95.33,4.37.62s2.69.76,3.8,1.4c1.11.64,2.01,1.51,2.68,2.61s1.01,2.52,1.01,4.24c0,1.61-.4,3.17-1.19,4.69s-1.94,2.86-3.44,4.05c-1.5,1.18-3.35,2.14-5.54,2.86-2.19.72-4.68,1.08-7.47,1.08s-5.13-.27-7.17-.8-3.73-1.24-5.08-2.13c-1.35-.89-2.36-1.91-3.02-3.07-.66-1.16-.99-2.37-.99-3.62,0-1.7.51-3.13,1.54-4.28,1.03-1.15,2.44-2.06,4.24-2.75-.97-.5-1.74-1.16-2.31-1.99-.57-.83-.85-1.92-.85-3.27,0-.54.1-1.11.3-1.69.2-.58.5-1.15.89-1.72s.88-1.11,1.47-1.62c.59-.51,1.29-.96,2.09-1.37-1.85-.99-3.29-2.32-4.35-3.98-1.05-1.66-1.58-3.6-1.58-5.82,0-1.8.36-3.43,1.08-4.88.72-1.46,1.73-2.7,3.02-3.73,1.29-1.03,2.82-1.82,4.58-2.36,1.76-.54,3.69-.82,5.77-.82,1.56,0,3.03.16,4.4.48,1.37.32,2.63.79,3.76,1.4h10.47ZM523.24,122.22c0-.71-.21-1.29-.64-1.74s-1.01-.8-1.74-1.05c-.73-.25-1.59-.43-2.57-.55-.98-.12-2.02-.21-3.12-.27-1.1-.06-2.24-.11-3.41-.16-1.17-.05-2.31-.14-3.43-.28-.97.54-1.76,1.18-2.36,1.92s-.9,1.58-.9,2.56c0,.64.16,1.24.48,1.79.32.56.83,1.04,1.53,1.44.7.4,1.6.72,2.71.94,1.11.22,2.47.34,4.08.34s3.04-.12,4.22-.37c1.18-.25,2.16-.59,2.93-1.03.77-.44,1.33-.96,1.69-1.56s.53-1.26.53-1.97ZM513.33,101.49c1.09,0,2.04-.15,2.84-.44.8-.3,1.47-.7,2.01-1.22.53-.52.93-1.15,1.21-1.88.27-.73.41-1.54.41-2.41,0-1.8-.54-3.22-1.62-4.28-1.08-1.05-2.69-1.58-4.85-1.58s-3.77.53-4.85,1.58c-1.08,1.05-1.62,2.48-1.62,4.28,0,.85.13,1.65.41,2.38.27.73.67,1.37,1.21,1.9.53.53,1.21.95,2.02,1.24.82.3,1.76.44,2.82.44Z"/><path class="cls-3" d="M547.8,73.55c0,.76-.15,1.47-.46,2.13-.31.66-.71,1.24-1.22,1.74-.51.5-1.11.89-1.79,1.19-.69.3-1.42.44-2.2.44s-1.47-.15-2.15-.44-1.26-.69-1.76-1.19c-.5-.5-.89-1.08-1.19-1.74-.29-.66-.44-1.37-.44-2.13s.15-1.51.44-2.2c.3-.69.69-1.28,1.19-1.78.5-.5,1.08-.89,1.76-1.19.67-.29,1.39-.44,2.15-.44s1.51.15,2.2.44c.69.3,1.28.69,1.79,1.19.51.5.92,1.09,1.22,1.78.31.69.46,1.42.46,2.2ZM546.6,84.16v36.42h-8.8v-36.42h8.8Z"/><path class="cls-3" d="M563.74,88.64c.73-.73,1.51-1.41,2.32-2.04s1.68-1.16,2.59-1.6c.91-.44,1.89-.78,2.93-1.03,1.04-.25,2.18-.37,3.41-.37,1.99,0,3.75.34,5.29,1.01,1.54.67,2.82,1.62,3.85,2.84,1.03,1.22,1.81,2.67,2.34,4.37.53,1.69.8,3.56.8,5.59v23.18h-8.77v-23.18c0-2.22-.51-3.95-1.53-5.17-1.02-1.22-2.57-1.83-4.65-1.83-1.51,0-2.93.34-4.26,1.03-1.32.69-2.58,1.62-3.76,2.8v26.34h-8.77v-36.42h5.36c1.13,0,1.88.53,2.24,1.6l.6,2.88Z"/><path class="cls-3" d="M627.54,85.41v3.27c0,1.04-.63,1.68-1.88,1.92l-3.27.6c.5,1.25.74,2.63.74,4.12,0,1.8-.36,3.43-1.08,4.88-.72,1.46-1.72,2.69-3,3.71s-2.79,1.8-4.53,2.36c-1.74.56-3.62.83-5.63.83-.71,0-1.4-.04-2.06-.11-.66-.07-1.31-.17-1.95-.28-1.14.69-1.71,1.46-1.71,2.31,0,.73.34,1.27,1.01,1.62.68.34,1.57.59,2.68.73,1.11.14,2.38.23,3.8.27,1.42.04,2.88.11,4.37.23,1.49.12,2.95.33,4.37.62s2.69.76,3.8,1.4c1.11.64,2.01,1.51,2.68,2.61s1.01,2.52,1.01,4.24c0,1.61-.4,3.17-1.19,4.69s-1.94,2.86-3.44,4.05c-1.5,1.18-3.35,2.14-5.54,2.86-2.19.72-4.68,1.08-7.47,1.08s-5.13-.27-7.17-.8-3.73-1.24-5.08-2.13c-1.35-.89-2.36-1.91-3.02-3.07-.66-1.16-.99-2.37-.99-3.62,0-1.7.51-3.13,1.54-4.28,1.03-1.15,2.44-2.06,4.24-2.75-.97-.5-1.74-1.16-2.31-1.99-.57-.83-.85-1.92-.85-3.27,0-.54.1-1.11.3-1.69.2-.58.5-1.15.89-1.72s.88-1.11,1.47-1.62c.59-.51,1.29-.96,2.09-1.37-1.85-.99-3.29-2.32-4.35-3.98-1.05-1.66-1.58-3.6-1.58-5.82,0-1.8.36-3.43,1.08-4.88.72-1.46,1.73-2.7,3.02-3.73,1.29-1.03,2.82-1.82,4.58-2.36,1.76-.54,3.69-.82,5.77-.82,1.56,0,3.03.16,4.4.48,1.37.32,2.63.79,3.76,1.4h10.47ZM618.8,122.22c0-.71-.21-1.29-.64-1.74s-1.01-.8-1.74-1.05c-.73-.25-1.59-.43-2.57-.55-.98-.12-2.02-.21-3.12-.27-1.1-.06-2.24-.11-3.41-.16-1.17-.05-2.31-.14-3.43-.28-.97.54-1.76,1.18-2.36,1.92s-.9,1.58-.9,2.56c0,.64.16,1.24.48,1.79.32.56.83,1.04,1.53,1.44.7.4,1.6.72,2.71.94,1.11.22,2.47.34,4.08.34s3.04-.12,4.22-.37c1.18-.25,2.16-.59,2.93-1.03.77-.44,1.33-.96,1.69-1.56s.53-1.26.53-1.97ZM608.9,101.49c1.09,0,2.04-.15,2.84-.44.8-.3,1.47-.7,2.01-1.22.53-.52.93-1.15,1.21-1.88.27-.73.41-1.54.41-2.41,0-1.8-.54-3.22-1.62-4.28-1.08-1.05-2.69-1.58-4.85-1.58s-3.77.53-4.85,1.58c-1.08,1.05-1.62,2.48-1.62,4.28,0,.85.13,1.65.41,2.38.27.73.67,1.37,1.21,1.9.53.53,1.21.95,2.02,1.24.82.3,1.76.44,2.82.44Z"/></g></svg>