<?xml version="1.0" encoding="UTF-8"?><svg id="Layer_2" xmlns="http://www.w3.org/2000/svg" width="903.39" height="977.85" xmlns:xlink="http://www.w3.org/1999/xlink" viewBox="0 0 903.39 977.85"><defs><style>.cls-1{stroke:#e99d00;}.cls-1,.cls-2{stroke-width:2.97px;}.cls-1,.cls-2,.cls-3,.cls-4,.cls-5,.cls-6,.cls-7,.cls-8,.cls-9,.cls-10,.cls-11,.cls-12,.cls-13,.cls-14,.cls-15,.cls-16{stroke-miterlimit:10;}.cls-1,.cls-2,.cls-4,.cls-17,.cls-5,.cls-6,.cls-9,.cls-10,.cls-15,.cls-16{fill:none;}.cls-1,.cls-2,.cls-6,.cls-9{stroke-linecap:round;}.cls-2,.cls-3{stroke:#f27c52;}.cls-3{stroke-width:2.55px;}.cls-3,.cls-7,.cls-12{fill:#d4fffd;}.cls-4{stroke-width:22.88px;}.cls-4,.cls-13{stroke:#513e36;}.cls-18{clip-path:url(#clippath);}.cls-17,.cls-19,.cls-20,.cls-21,.cls-22,.cls-23,.cls-24,.cls-25,.cls-26,.cls-27,.cls-28,.cls-29,.cls-30,.cls-31,.cls-32,.cls-33,.cls-34,.cls-35,.cls-36,.cls-37,.cls-38,.cls-39,.cls-40,.cls-41,.cls-42,.cls-43,.cls-44,.cls-45,.cls-46,.cls-47,.cls-48,.cls-49,.cls-50,.cls-51,.cls-52,.cls-53,.cls-54,.cls-55,.cls-56,.cls-57{stroke-width:0px;}.cls-58,.cls-36{fill:#da494a;}.cls-5{stroke:#6d2815;stroke-width:2.47px;}.cls-6{stroke:#261109;stroke-width:7px;}.cls-7{stroke-width:1.58px;}.cls-7,.cls-12{stroke:#600e0e;}.cls-59{clip-path:url(#clippath-1);}.cls-60{clip-path:url(#clippath-4);}.cls-61{clip-path:url(#clippath-3);}.cls-62{clip-path:url(#clippath-2);}.cls-8{fill:#94cfff;stroke:#aa5600;stroke-width:2.75px;}.cls-9{stroke:#1c0c04;stroke-width:5.93px;}.cls-10{stroke:#d15534;stroke-width:2.91px;}.cls-11{stroke-width:2.26px;}.cls-11,.cls-14{fill:#317a36;stroke:#ffebca;}.cls-12{stroke-width:2.26px;}.cls-13{stroke-width:4.71px;}.cls-13,.cls-19{fill:#513e36;}.cls-14{stroke-width:3.02px;}.cls-15{stroke:#280000;stroke-width:1.92px;}.cls-20{fill:#280000;}.cls-21{fill:#492519;}.cls-22{fill:#492522;}.cls-23{fill:#478e4b;}.cls-24{fill:#63935f;}.cls-25{fill:#3a0d0b;}.cls-26{fill:#56a55c;}.cls-27{fill:#3f0d00;}.cls-28{fill:#3f1400;}.cls-29{fill:#1a8124;}.cls-30{fill:#407f4c;}.cls-31{fill:#427f3d;}.cls-32{fill:#082b24;}.cls-33{fill:#190e0d;}.cls-34{fill:#24601f;}.cls-35{fill:#cce5a8;}.cls-37{fill:#abd6f2;}.cls-38{fill:#bc9f26;}.cls-39{fill:#c1512f;}.cls-40{fill:#a86127;}.cls-41{fill:#aa6000;}.cls-42{fill:#a40;}.cls-43{fill:#b6ddda;}.cls-44{fill:#83bf80;}.cls-45{fill:#872d2d;}.cls-46{fill:#ff8946;}.cls-47{fill:#82262a;}.cls-48{fill:#64bc69;}.cls-49{fill:#fef5a4;}.cls-50{fill:#ffd483;}.cls-51{fill:#f27c52;}.cls-52{fill:#041105;}.cls-53{fill:#032a00;}.cls-54{fill:#005546;}.cls-55{fill:#00707f;}.cls-56{fill:#68b0e4;}.cls-57{fill:#007f65;}.cls-16{stroke:#1d261c;stroke-width:5.38px;}</style><clipPath id="clippath"><rect class="cls-17" width="903.39" height="977.85"/></clipPath><clipPath id="clippath-1"><polygon class="cls-17" points="738.19 286.27 880.05 205.68 828.28 98.11 685.17 177.27 738.19 286.27"/></clipPath><clipPath id="clippath-2"><polygon class="cls-17" points="733.63 475.46 707.59 452.48 680.61 502.66 680.37 625.67 734.57 596.2 733.63 475.46"/></clipPath><clipPath id="clippath-3"><path class="cls-36" d="M294.03,593.5l-29.79-17.2v-43.33s0,0,0,0c7.36-4.5,22.43,4.21,29.79,17.2h0v43.33Z"/></clipPath><clipPath id="clippath-4"><path class="cls-17" d="M463.57,483.77c18.88,0,34.4-15.11,34.66-33.99.01-1,.02-2,.02-3.01,0-47.5-15.53-86.01-34.68-86.01s-34.68,38.51-34.68,86.01c0,1.01,0,2.01.02,3.01.26,18.88,15.78,33.99,34.66,33.99h0Z"/></clipPath></defs><g id="city"><g class="cls-18"><path class="cls-35" d="M243.9,661.27l-111.29-64.25c-18.63-10.75-16.81-28.65,4.07-39.97l42.62-23.11c20.87-11.32,52.9-11.78,71.53-1.02l111.29,64.25c18.63,10.75,16.81,28.65-4.07,39.97l-42.62,23.11c-20.87,11.32-52.9,11.78-71.53,1.02Z"/><path class="cls-35" d="M459.05,555.65l-111.29-64.25c-18.63-10.75-16.81-28.65,4.07-39.97l42.62-23.11c20.87-11.32,52.9-11.78,71.53-1.02l111.29,64.25c18.63,10.75,16.81,28.65-4.07,39.97l-42.62,23.11c-20.87,11.32-52.9,11.78-71.53,1.02Z"/><path class="cls-35" d="M903.39,977.85l-111.29-64.25c-18.63-10.75-17.44-27.55,2.66-37.52l41.03-20.35c20.09-9.97,51.48-9.33,70.11,1.43l111.29,64.25c18.63,10.75,17.44,27.55-2.66,37.52l-41.03,20.35c-20.09,9.97-51.48,9.33-70.11-1.43Z"/><ellipse class="cls-26" cx="81.58" cy="566.95" rx="23.7" ry="46.25" transform="translate(-138.87 38.28) rotate(-14.45)"/><ellipse class="cls-48" cx="131.52" cy="597.15" rx="23.7" ry="46.25" transform="translate(-144.83 51.7) rotate(-14.45)"/><ellipse class="cls-48" cx="231.4" cy="656.18" rx="23.7" ry="46.25" transform="translate(-156.4 78.49) rotate(-14.45)"/><ellipse class="cls-26" cx="281.34" cy="685.01" rx="23.7" ry="46.25" transform="translate(-162.01 91.86) rotate(-14.45)"/><ellipse class="cls-26" cx="181.46" cy="624.62" rx="23.7" ry="46.25" transform="translate(-150.1 65.03) rotate(-14.45)"/><g id="suburban"><g id="house"><polygon class="cls-50" points="735.81 396.7 869.35 319.6 865.48 203.58 735.81 276.72 735.81 396.7"/><polygon class="cls-50" points="778.89 139.73 792.29 131.99 792.29 89.77 778.89 97.5 778.89 139.73"/><polygon class="cls-45" points="765.37 131.99 778.77 139.73 778.77 97.5 765.37 89.77 765.37 131.99"/><polygon class="cls-50" points="759.34 82.64 778.19 71.76 778.17 77.51 759.32 88.39 759.34 82.64"/><polygon class="cls-45" points="778.19 71.72 796.84 82.48 796.71 88.44 778.07 77.67 778.19 71.72"/><polygon class="cls-42" points="762.18 85.74 778.06 76.57 793.85 85.69 777.96 94.86 762.18 85.74"/><ellipse class="cls-27" cx="778.19" cy="86.42" rx="5.72" ry="9.92" transform="translate(687.55 864.14) rotate(-89.69)"/><polygon class="cls-50" points="778.04 94.06 796.89 83.18 796.87 88.93 778.01 99.82 778.04 94.06"/><polygon class="cls-45" points="759.49 83.1 778.14 93.86 778.01 99.82 759.37 89.05 759.49 83.1"/><polygon class="cls-45" points="641.52 342.26 735.81 396.7 735.81 276.72 688.24 176.28 641.52 222.28 641.52 342.26"/><polygon class="cls-7" points="702.35 263.78 702.35 238.54 674.98 222.74 674.98 247.98 702.35 263.78"/><polygon class="cls-12" points="710.2 347.3 710.2 314.3 667.13 289.44 667.13 322.44 710.2 347.3"/><g class="cls-59"><polygon class="cls-57" points="713.62 302.05 905.73 191.13 826.73 94.86 665.45 188.79 713.62 302.05"/><polygon class="cls-44" points="737.09 293.12 842.49 234.8 773.84 124.93 681.38 178.31 737.09 293.12"/></g><polygon class="cls-3" points="815.49 205.68 844.43 189.13 821.52 139.75 792.58 156.3 815.49 205.68"/><polygon class="cls-3" points="752.86 241.07 781.79 224.53 758.88 175.15 729.94 191.7 752.86 241.07"/><polyline class="cls-2" points="828.28 98.11 685.17 177.27 636.19 227.77"/></g><g id="house-2"><path class="cls-28" d="M408.94,235.64s-8.44,64.92-31.31,101.27l-53.95-27.42s32.68-12.48,42.29-84.91c0,0,18.08,12.73,42.96,11.06Z"/><path class="cls-50" d="M396.03,333.8s-18.02-53.3-25.13-93.4c-8.23,32.54-25.52,66.64-25.52,66.64v136.25s50.65,26.76,50.65,26.76v-136.25Z"/><path class="cls-53" d="M379.95,298.83l-.98-1.43c-4.54-6.62-11.98-10.55-16.52-8.73l-.98.39c-.74.3-1.17,1.06-1.17,2.11v17.11c0,2.01,1.55,4.45,3.46,5.46l13.9,7.34c1.91,1.01,3.46.2,3.46-1.81v-17.11c0-1.04-.43-2.26-1.17-3.34Z"/><path class="cls-53" d="M361.69,340.69h0c-3.18-6.23-8.37-8.98-11.55-6.1h0c-.62.56-.97,1.65-.97,2.98v15.61c0,4.67,1.29,5.35,2.88,6.19l7.73,4.09c1.59.84,2.88,1.52,2.88-3.15v-15.61c0-1.34-.35-2.8-.97-4.01Z"/><path class="cls-53" d="M390.52,355.92h0c-3.18-6.23-8.37-8.98-11.55-6.1h0c-.62.56-.97,1.65-.97,2.98v15.61c0,4.67,1.29,5.35,2.88,6.19l7.73,4.09c1.59.84,2.88,1.52,2.88-3.15v-15.61c0-1.34-.35-2.8-.97-4.01Z"/><path class="cls-53" d="M383.87,417.98h0c-7.24-14.7-19.1-20.97-26.34-13.92h0c-1.41,1.37-2.22,3.99-2.22,7.18v37.3s30.77,16.26,30.77,16.26v-37.3c0-3.19-.81-6.66-2.22-9.52Z"/><polygon class="cls-55" points="395.59 332.1 442.75 304.87 443.18 442.83 396.03 470.05 395.59 332.1"/><path class="cls-46" d="M368.56,228.34s8.44,75.44,31.31,117.67l53.95-31.86s-32.68-14.5-42.29-98.66c0,0-18.08,14.8-42.96,12.85Z"/><path class="cls-53" d="M404.71,355.94h0c3.18-6.23,8.37-8.98,11.55-6.1h0c.62.56.97,1.65.97,2.98v15.61c0,4.67-1.29,5.35-2.88,6.19l-7.73,4.09c-1.59.84-2.88,1.52-2.88-3.15v-15.61c0-1.34.35-2.8.97-4.01Z"/><path class="cls-53" d="M426.67,344.49h0c3.18-6.23,8.37-8.98,11.55-6.1h0c.62.56.97,1.65.97,2.98v15.61c0,4.67-1.29,5.35-2.88,6.19l-7.73,4.09c-1.59.84-2.88,1.52-2.88-3.15v-15.61c0-1.34.35-2.8.97-4.01Z"/><path class="cls-53" d="M426.37,398.31h0c3.18-6.23,8.37-8.98,11.55-6.1h0c.62.56.97,1.65.97,2.98v15.61c0,4.67-1.29,5.35-2.88,6.19l-7.73,4.09c-1.59.84-2.88,1.52-2.88-3.15v-15.61c0-1.34.35-2.8.97-4.01Z"/><path class="cls-53" d="M404.71,410.65h0c3.18-6.23,8.37-8.98,11.55-6.1h0c.62.56.97,1.65.97,2.98v15.61c0,4.67-1.29,5.35-2.88,6.19l-7.73,4.09c-1.59.84-2.88,1.52-2.88-3.15v-15.61c0-1.34.35-2.8.97-4.01Z"/></g><polygon class="cls-56" points="713.05 465.02 940.37 596.26 940.37 498 713.05 366.75 713.05 465.02"/><polygon class="cls-51" points="713.05 366.75 826.71 432.37 826.71 530.64 713.05 465.02 713.05 366.75"/><path class="cls-47" d="M886.94,536.88l28.11,16.23c3.3,1.9,5.97-.12,5.97-4.51v-20.03c0-4.39-2.67-9.5-5.97-11.4l-28.11-16.23c-3.3-1.9-5.97.12-5.97,4.51v20.03c0,4.39,2.67,9.5,5.97,11.4Z"/><path class="cls-20" d="M831.08,533.49l26.11,15.08v-42.39c0-7.31-4.45-15.81-9.93-18.98l-16.18-9.34v55.64Z"/><path class="cls-47" d="M734.18,448.68l29.47,17.01c3.36,1.94,6.08-.12,6.08-4.6v-19.71c0-4.48-2.72-9.68-6.08-11.62l-29.47-17.01c-3.36-1.94-6.08.12-6.08,4.6v19.71c0,4.48,2.72,9.68,6.08,11.62Z"/><path class="cls-20" d="M796.63,513.6l26.11,15.08v-55.64s-16.04-9.26-16.04-9.26c-5.56-3.21-10.07.2-10.07,7.62v42.21Z"/><ellipse class="cls-51" cx="851.52" cy="514.91" rx="1.61" ry="2.83" transform="translate(-135.92 391.65) rotate(-24.05)"/><ellipse class="cls-51" cx="801.55" cy="486.06" rx="1.61" ry="2.83" transform="translate(-128.5 368.79) rotate(-24.05)"/><polyline class="cls-15" points="826.71 432.37 826.71 510.32 826.71 530.64"/><polygon class="cls-36" points="900.45 361.76 912.87 368.93 912.87 327.68 900.45 320.51 900.45 361.76"/><ellipse class="cls-19" cx="912.87" cy="320.51" rx="8.21" ry="14.21" transform="translate(587.42 1231.63) rotate(-89.69)"/><rect class="cls-19" x="898.73" y="315.35" width="28.32" height="5.94" transform="translate(1825.78 636.63) rotate(-180)"/><ellipse class="cls-50" cx="912.5" cy="315.76" rx="8.21" ry="14.21" transform="translate(591.8 1226.53) rotate(-89.69)"/><polygon class="cls-22" points="694.5 368.71 970.74 528.2 1044.21 424.6 767.97 265.11 694.5 368.71"/><g id="house-3"><polygon class="cls-50" points="680.37 491.02 619.23 455.72 619.23 590.68 680.37 625.98 680.37 491.02"/><polygon class="cls-8" points="666.54 527.26 633.06 507.93 633.06 483.01 666.54 502.34 666.54 527.26"/><polygon class="cls-8" points="646.97 573.35 630.52 563.85 630.52 541.55 646.97 551.05 646.97 573.35"/><polygon class="cls-8" points="671.14 587.3 654.69 577.81 654.69 555.5 671.14 565 671.14 587.3"/><polygon class="cls-52" points="630.26 506.08 621.52 511.12 621.74 496.78 630.52 491.47 630.26 506.08"/><polygon class="cls-52" points="668.6 528.34 659.86 533.39 660.07 519.04 668.85 513.73 668.6 528.34"/><polygon class="cls-29" points="660.07 519.04 621.74 496.78 621.5 511.12 659.86 533.26 660.07 519.04"/><line class="cls-9" x1="734.81" y1="473.19" x2="708.7" y2="455.72"/><line class="cls-9" x1="734.81" y1="473.19" x2="718.03" y2="455.72"/><g class="cls-62"><polygon class="cls-41" points="733.63 473.72 714.34 457.24 679.44 503.19 679.2 626.2 733.4 596.74 733.63 473.72"/><line class="cls-5" x1="679.84" y1="512" x2="733.62" y2="481.03"/></g><path class="cls-19" d="M682.73,507.42l-72.55-41.89c-2.14-1.23-2.71-4.06-1.22-6.03l32.94-43.44c1.21-1.6,3.4-2.09,5.18-1.15l71.32,37.48c2.15,1.13,2.85,3.87,1.51,5.9l-31.71,47.86c-1.2,1.81-3.59,2.37-5.47,1.29Z"/><polygon class="cls-50" points="760.74 655.99 692.99 616.87 692.99 552.97 760.74 592.09 760.74 655.99"/><polygon class="cls-40" points="812.8 625.94 760.74 655.99 760.61 591.88 786.59 552.77 812.67 561.82 812.8 625.94"/><path class="cls-25" d="M799.93,592.61l-16.94,9.78c-.89.51-1.6,1.88-1.6,3.06v38.7s20.15-11.63,20.15-11.63v-38.7c0-1.18-.72-1.72-1.6-1.21Z"/><path class="cls-34" d="M798.9,595.89l-14.88,8.59c-.16.1-.3.35-.3.57v37.76s15.47-8.93,15.47-8.93v-37.76c0-.22-.13-.32-.3-.23Z"/><ellipse class="cls-38" cx="795.76" cy="617.65" rx="1.07" ry=".62" transform="translate(-139.07 992.91) rotate(-59.69)"/><polyline class="cls-6" points="721.74 510.11 792.72 551.09 815.52 559.55"/><polygon class="cls-19" points="758.34 600.4 684.47 557.75 718.86 508.44 792.72 551.09 758.34 600.4"/><polygon class="cls-8" points="729.97 620.38 713.51 610.88 713.51 588.58 729.97 598.08 729.97 620.38"/></g><g id="house-4"><path class="cls-33" d="M462.59,691.52l-79.75-3.5c-2.37-.1-3.27-3.15-1.33-4.53l38.17-27.05c.07-.05.14-.09.22-.14l179.58-101.43c1.07-.61,2.43-.34,3.19.63l7.03,8.96c.83,1.05.67,2.58-.35,3.44l-145.03,123.01c-.48.41-1.09.62-1.72.59Z"/><polygon class="cls-50" points="462.47 816.24 388.75 773.68 388.8 684.11 422.97 661.75 462.52 726.67 462.47 816.24"/><polygon class="cls-51" points="644.35 711.87 463.57 816.24 463.57 728.12 644.35 623.74 644.35 711.87"/><polygon class="cls-14" points="528.81 755.36 483.13 781.74 483.13 738.1 528.81 711.73 528.81 755.36"/><polygon class="cls-14" points="626.45 698.03 580.76 724.4 580.76 680.77 626.45 654.39 626.45 698.03"/><path class="cls-10" d="M462.52,816.24v-92.94,92.94Z"/><path class="cls-22" d="M603.6,556.45l-185.65,103.71,47.55,74.09c1.71,2.66,5.2,3.52,7.95,1.96l181.22-103.23c2.72-1.55,3.44-5.13,1.55-7.62l-52.62-68.91Z"/><polygon class="cls-11" points="442.71 749.11 408.55 729.39 408.55 762.02 442.71 781.74 442.71 749.11"/></g><g id="house-5"><path class="cls-32" d="M835.45,653.05l-171.44,92.96-10.08,25.88c-2.06,5.29,2.78,10.67,8.26,9.17l162.38-44.43,10.89-83.59Z"/><polygon class="cls-36" points="665.37 887.45 731.31 925.52 730 781.3 666.05 747.67 665.37 887.45"/><polygon class="cls-49" points="731.42 901.7 923.01 791.09 921.9 699.23 730 783.71 731.42 901.7"/><polygon class="cls-44" points="875.38 789.02 907.22 770.64 906.84 739.59 875.01 757.97 875.38 789.02"/><polygon class="cls-44" points="772.68 853.71 805.02 835.04 804.65 803.99 772.31 822.66 772.68 853.71"/><polygon class="cls-39" points="827.13 846.87 853.63 831.57 852.94 774.32 826.45 789.62 827.13 846.87"/><ellipse class="cls-21" cx="832.73" cy="817.52" rx="2.25" ry="1.01" transform="translate(-328.92 706.45) rotate(-39.01)"/><path class="cls-54" d="M753.74,808.94l180.97-105.06c3.58-2.08,4.48-6.87,1.9-10.15l-13-21.18s-11.96-6.46-14.89-4.73l-179.34,105.41c-3.48,2.04-4.42,6.66-2.02,9.94l17.45,23.87c2.07,2.83,5.92,3.65,8.93,1.9Z"/><polygon class="cls-37" points="728.59 785.14 923.6 672.55 856.68 635.09 664.51 746.04 728.59 785.14"/></g><g id="house-6"><polygon class="cls-43" points="364.1 633.95 181.46 528.5 181.46 448.19 364.1 553.64 364.1 633.95"/><path class="cls-36" d="M248.57,547.68l-14.84-8.57v-26.45s0,0,0,0c3.78-3.33,11.06.88,14.84,8.57h0v26.45Z"/><path class="cls-36" d="M215.25,526.76l-23.73-13.7v-26.45s0,0,0,0c6.53-2.18,17.2,3.99,23.73,13.7h0v26.45Z"/><path class="cls-36" d="M332.92,594.7l-14.84-8.57v-26.45s0,0,0,0c3.66-3.22,11.18,1.11,14.84,8.57h0v26.45Z"/><path class="cls-36" d="M349.95,604.53l-14.84-8.57v-26.45s0,0,0,0c3.66-3.22,11.18,1.11,14.84,8.57h0v26.45Z"/><path class="cls-58" d="M294.03,593.5l-29.79-17.2v-43.33s0,0,0,0c7.36-4.5,22.43,4.21,29.79,17.2h0v43.33Z"/><g class="cls-61"><path class="cls-51" d="M294.03,593.5l-29.79-17.2v-43.33s0,0,0,0c7.36-4.5,22.43,4.21,29.79,17.2h0v43.33Z"/><polygon class="cls-50" points="255.18 574.94 279.14 588.77 279.14 531.14 255.18 517.31 255.18 574.94"/></g><polygon class="cls-56" points="430.27 529.16 364.1 567 364.1 633.95 430.06 596.2 430.27 529.16"/><polygon class="cls-44" points="430.27 529.16 364.73 567 399.01 506.23 430.27 529.16"/><path class="cls-19" d="M366.9,569.55l-194.1-112.06c-1.28-.74-1.67-2.42-.84-3.65l37.13-55.15c.62-.92,1.84-1.2,2.8-.65l196.08,113.21-38.92,57.8c-.47.7-1.41.92-2.15.5Z"/><polyline class="cls-1" points="211.89 398.04 407.97 511.25 430.27 529.16"/></g></g><line class="cls-13" x1="611.85" y1="188.64" x2="608.72" y2="383.6"/><line class="cls-13" x1="609.49" y1="335.72" x2="638.1" y2="302.08"/><line class="cls-13" x1="563.97" y1="291.25" x2="608.72" y2="347.12"/><path class="cls-36" d="M608.72,127.79h0c29.57,0,53.59,24.01,53.59,53.59v55.95c0,14.26-11.58,25.84-25.84,25.84h-55.48c-14.26,0-25.84-11.58-25.84-25.84v-55.95c0-29.57,24.01-53.59,53.59-53.59Z"/><path class="cls-51" d="M560.55,242.13h0c13.74,0,24.89,11.16,24.89,24.89v25.99c0,6.63-5.38,12.01-12.01,12.01h-25.78c-6.63,0-12.01-5.38-12.01-12.01v-25.99c0-13.74,11.16-24.89,24.89-24.89Z"/><path class="cls-50" d="M638.1,284.43h0c8.37,0,15.16,6.79,15.16,15.16v6.62c0,4.71-3.83,8.54-8.54,8.54h-13.25c-4.71,0-8.54-3.83-8.54-8.54v-6.62c0-8.37,6.79-15.16,15.16-15.16Z"/><path class="cls-31" d="M547.12,428.43c3.8-17.54,5.97-37.76,5.97-59.29,0-67.17-21.1-121.61-47.13-121.61s-47.13,54.45-47.13,121.61c0,21.53,2.17,41.75,5.97,59.29h82.3Z"/><line class="cls-16" x1="505.97" y1="501.78" x2="505.97" y2="308.91"/><polyline class="cls-16" points="480.89 412.66 505.97 460.55 534.47 412.66"/><ellipse class="cls-26" cx="291.61" cy="680.05" rx="46.25" ry="23.7" transform="translate(-439.69 792.77) rotate(-75.55)"/><ellipse class="cls-48" cx="341.55" cy="652.58" rx="46.25" ry="23.7" transform="translate(-375.6 820.51) rotate(-75.55)"/><ellipse class="cls-48" cx="441.44" cy="596.27" rx="46.25" ry="23.7" transform="translate(-246.12 874.98) rotate(-75.55)"/><ellipse class="cls-26" cx="491.38" cy="567.44" rx="46.25" ry="23.7" transform="translate(-180.71 901.7) rotate(-75.55)"/><ellipse class="cls-26" cx="391.49" cy="622.38" rx="46.25" ry="23.7" transform="translate(-308.88 846.21) rotate(-75.55)"/><ellipse class="cls-26" cx="485.14" cy="799.26" rx="46.25" ry="23.7" transform="translate(-409.89 1069.64) rotate(-75.55)"/><ellipse class="cls-48" cx="535.08" cy="771.79" rx="46.25" ry="23.7" transform="translate(-345.8 1097.39) rotate(-75.55)"/><ellipse class="cls-48" cx="634.96" cy="715.48" rx="46.25" ry="23.7" transform="translate(-216.32 1151.85) rotate(-75.55)"/><ellipse class="cls-26" cx="684.9" cy="686.65" rx="46.25" ry="23.7" transform="translate(-150.91 1178.58) rotate(-75.55)"/><ellipse class="cls-26" cx="585.02" cy="741.59" rx="46.25" ry="23.7" transform="translate(-279.08 1123.09) rotate(-75.55)"/><line class="cls-4" x1="685.17" y1="1123.74" x2="685.17" y2="964.8"/><path class="cls-30" d="M752.65,1031.95c-60.89-11.81-72.88-14.86-134.97,0,35.39-77.87,62.31-168.05,62.31-168.05,2.22-5.98,8.13-5.98,10.35,0,0,0,30.22,114.95,62.31,168.05Z"/><path class="cls-23" d="M734.71,963.23c-44.7-8.67-53.5-10.9-99.08,0,25.98-57.16,45.74-123.36,45.74-123.36,1.63-4.39,5.97-4.39,7.6,0,0,0,22.18,84.39,45.74,123.36Z"/><path class="cls-26" d="M719.68,899.9c-33.28-15.15-37.12-15.37-69.02,0,24.54-40.48,31.86-85.93,31.86-85.93,1.13-3.06,4.16-3.06,5.29,0,0,0,5.64,47.89,31.86,85.93Z"/><line class="cls-4" x1="619.29" y1="1075.54" x2="619.29" y2="916.6"/><path class="cls-30" d="M686.78,983.75c-60.89-11.81-72.88-14.86-134.97,0,35.39-77.87,62.31-168.05,62.31-168.05,2.22-5.98,8.13-5.98,10.35,0,0,0,30.22,114.95,62.31,168.05Z"/><path class="cls-23" d="M668.83,915.02c-44.7-8.67-53.5-10.9-99.08,0,25.98-57.16,45.74-123.36,45.74-123.36,1.63-4.39,5.97-4.39,7.6,0,0,0,22.18,84.39,45.74,123.36Z"/><path class="cls-26" d="M653.8,851.7c-33.28-15.15-37.12-15.37-69.02,0,24.54-40.48,31.86-85.93,31.86-85.93,1.13-3.06,4.16-3.06,5.29,0,0,0,5.64,47.89,31.86,85.93Z"/><path class="cls-30" d="M829.66,1060.31c-60.89-11.81-72.88-14.86-134.97,0,35.39-77.87,62.31-168.05,62.31-168.05,2.22-5.98,8.13-5.98,10.35,0,0,0,30.22,114.95,62.31,168.05Z"/><path class="cls-23" d="M811.72,991.59c-44.7-8.67-53.5-10.9-99.08,0,25.98-57.16,45.74-123.36,45.74-123.36,1.63-4.39,5.97-4.39,7.6,0,0,0,22.18,84.39,45.74,123.36Z"/><path class="cls-26" d="M796.69,928.26c-33.28-15.15-37.12-15.37-69.02,0,24.54-40.48,31.86-85.93,31.86-85.93,1.13-3.06,4.16-3.06,5.29,0,0,0,5.64,47.89,31.86,85.93Z"/><path class="cls-30" d="M631.95,1048.64c-60.89-11.81-72.88-14.86-134.97,0,35.39-77.87,62.31-168.05,62.31-168.05,2.22-5.98,8.13-5.98,10.35,0,0,0,30.22,114.95,62.31,168.05Z"/><path class="cls-23" d="M614.01,979.91c-44.7-8.67-53.5-10.9-99.08,0,25.98-57.16,45.74-123.36,45.74-123.36,1.63-4.39,5.97-4.39,7.6,0,0,0,22.18,84.39,45.74,123.36Z"/><path class="cls-26" d="M598.98,916.58c-33.28-15.15-37.12-15.37-69.02,0,24.54-40.48,31.86-85.93,31.86-85.93,1.13-3.06,4.16-3.06,5.29,0,0,0,5.64,47.89,31.86,85.93Z"/><g class="cls-60"><path class="cls-24" d="M463.57,483.77c18.88,0,34.4-15.11,34.66-33.99.01-1,.02-2,.02-3.01,0-47.5-15.53-86.01-34.68-86.01s-34.68,38.51-34.68,86.01c0,1.01,0,2.01.02,3.01.26,18.88,15.78,33.99,34.66,33.99h0Z"/><polyline class="cls-16" points="511.16 379.07 463.57 412.07 463.57 517.03"/><line class="cls-16" x1="428.89" y1="381.92" x2="463.57" y2="412.07"/><line class="cls-16" x1="410.26" y1="448.05" x2="463.57" y2="461.73"/><line class="cls-16" x1="511.16" y1="430.38" x2="463.57" y2="448.05"/></g><line class="cls-16" x1="463.57" y1="409.25" x2="463.57" y2="514.21"/><path class="cls-30" d="M904.07,1112.88c-60.89-11.81-72.88-14.86-134.97,0,35.39-77.87,62.31-168.05,62.31-168.05,2.22-5.98,8.13-5.98,10.35,0,0,0,30.22,114.95,62.31,168.05Z"/><path class="cls-23" d="M886.13,1044.16c-44.7-8.67-53.5-10.9-99.08,0,25.98-57.16,45.74-123.36,45.74-123.36,1.63-4.39,5.97-4.39,7.6,0,0,0,22.18,84.39,45.74,123.36Z"/><path class="cls-26" d="M871.1,980.83c-33.28-15.15-37.12-15.37-69.02,0,24.54-40.48,31.86-85.93,31.86-85.93,1.13-3.06,4.16-3.06,5.29,0,0,0,5.64,47.89,31.86,85.93Z"/></g></g></svg>